<svg width="197" height="197" viewBox="0 0 197 197" fill="none" xmlns="http://www.w3.org/2000/svg">
<rect width="197" height="197" rx="20" fill="#404040"/>
<path d="M54.0475 32.1631H142.817C156.26 32.1631 167.157 43.0606 167.157 56.503V141.836C167.157 155.279 156.26 166.177 142.817 166.177H54.0475C40.6051 166.176 29.7075 155.279 29.7075 141.836V56.503C29.7075 43.0603 40.6051 32.1631 54.0475 32.1631Z" fill="#00005B"/>
<path d="M84.925 112.345H63.6251L59.2917 125.833C59.1701 126.339 58.7055 126.687 58.1851 126.663H47.3971C46.7819 126.663 46.5667 126.324 46.7516 125.648L65.1928 72.757C65.3772 72.2039 65.5616 71.6631 65.746 70.9556C65.9875 69.7255 66.111 68.4751 66.1147 67.2214C66.0705 66.9093 66.2873 66.6202 66.5995 66.5759C66.6529 66.5684 66.7068 66.5684 66.7602 66.5759H81.4212C81.8503 66.5759 82.0964 66.7297 82.159 67.037L103.09 125.74C103.274 126.355 103.09 126.663 102.536 126.663H90.5494C90.1235 126.71 89.7287 126.434 89.6275 126.017L84.925 112.345ZM74.2288 77.0908H74.1365L66.9446 100.972H81.5132L74.2288 77.0908Z" fill="#9999FF"/>
<path d="M137.022 107.096H118.857C119.08 108.893 119.677 110.624 120.609 112.176C121.64 113.713 123.099 114.915 124.804 115.634C127.116 116.634 129.617 117.124 132.135 117.07C134.133 117.032 136.124 116.813 138.082 116.417C139.834 116.181 141.551 115.733 143.196 115.084C143.503 114.84 143.657 114.992 143.657 115.546V124.305C143.672 124.544 143.624 124.782 143.518 124.997C143.413 125.164 143.271 125.306 143.103 125.412C141.279 126.219 139.36 126.791 137.391 127.113C134.716 127.616 131.998 127.848 129.277 127.805C124.912 127.805 121.254 127.129 118.304 125.777C115.516 124.548 113.053 122.685 111.112 120.337C109.299 118.123 107.951 115.568 107.147 112.822C106.352 110.112 105.948 107.302 105.949 104.477C105.94 101.393 106.423 98.3274 107.378 95.3952C108.298 92.5346 109.753 89.8752 111.666 87.5576C115.88 82.4506 121.681 80.3223 128.17 80.3223C133.762 80.3223 139.498 82.1742 143.108 86.6354C144.618 88.5847 145.773 90.7853 146.519 93.1358C147.246 95.4011 147.619 97.7645 147.626 100.144C147.626 101.496 147.58 102.726 147.487 103.832C147.395 104.938 147.319 105.737 147.257 106.229C147.207 106.65 146.851 106.967 146.427 106.967C146.058 106.967 145.428 107.013 144.537 107.105C143.645 107.197 142.539 107.259 141.218 107.29C139.894 107.321 138.497 107.096 137.022 107.096ZM118.857 98.6959H130.936C132.412 98.6959 133.503 98.6806 134.209 98.6497C134.682 98.6025 135.139 98.4511 135.547 98.2066V97.6532C135.528 96.932 135.404 96.2175 135.178 95.5326C134.156 92.2993 131.098 90.1478 127.71 90.2769C124.539 90.0853 121.555 91.7853 120.103 94.6104C119.47 95.8965 119.05 97.2761 118.857 98.6959Z" fill="#9999FF"/>
</svg>
