<svg width="197" height="197" viewBox="0 0 197 197" fill="none" xmlns="http://www.w3.org/2000/svg">
<rect width="197" height="197" rx="20" fill="#404040"/>
<path d="M140.452 37.5244H62.0544C43.1246 37.5244 32.5709 44.0571 32.5709 62.987V144.065C32.5709 162.995 33.7436 167.518 52.6735 167.518H140.452C159.382 167.518 162.564 162.995 162.564 144.065V62.987C162.564 44.0571 159.382 37.5244 140.452 37.5244Z" fill="#001E36"/>
<path d="M76.6366 120.731H100.927V131.465H62.6826V73.5801H76.6366V120.731ZM132.216 100.574L127.804 100.257C123.589 100.257 120.885 101.582 119.694 104.233V131.465H106.296V88.4481H118.859L119.296 93.9753C121.548 89.7607 124.688 87.6534 128.718 87.6534C130.15 87.6534 131.394 87.8133 132.455 88.1307L132.216 100.574Z" fill="#31A8FF"/>
</svg>
