<svg width="197" height="197" viewBox="0 0 197 197" fill="none" xmlns="http://www.w3.org/2000/svg">
<rect width="197" height="197" rx="20" fill="#404040"/>
<path d="M56.9645 38.8643H141.784C154.644 38.8643 165.041 49.2614 165.041 62.1213V143.657C165.041 156.517 154.644 166.915 141.784 166.915H56.9645C44.1047 166.914 33.7075 156.517 33.7075 143.657V62.1213C33.7075 49.2614 44.1047 38.8643 56.9645 38.8643Z" fill="#001834"/>
<path d="M63.2578 128.661V72.3522C63.2578 71.9693 63.422 71.7502 63.805 71.7502C64.7353 71.7502 65.6108 71.7502 66.8695 71.6956C68.1828 71.6409 69.5508 71.6409 71.0283 71.586C72.5058 71.5312 74.0928 71.5314 75.7891 71.4765C77.4854 71.4219 79.1271 71.4219 80.7688 71.4219C85.2559 71.4219 88.9771 71.969 92.0416 73.1182C94.7778 74.0485 97.295 75.5807 99.3745 77.6053C101.126 79.3565 102.494 81.4907 103.369 83.8437C104.19 86.142 104.628 88.495 104.628 90.9575C104.628 95.6637 103.533 99.5488 101.344 102.613C99.1557 105.678 96.0911 107.976 92.5341 109.289C88.8129 110.657 84.7088 111.15 80.2216 111.15C78.9083 111.15 78.0328 111.15 77.4854 111.095C76.9383 111.041 76.1721 111.041 75.1325 111.041V128.607C75.1871 128.989 74.9136 129.318 74.5304 129.373C74.4758 129.373 74.4209 129.373 74.3116 129.373H63.9145C63.4766 129.373 63.2578 129.154 63.2578 128.661ZM75.1873 82.3118V100.698C75.9535 100.753 76.6648 100.808 77.3215 100.808H80.2219C84.0005 100.808 88.3645 99.9199 91.002 96.9229C93.2718 94.3434 93.2783 89.2281 91.4398 86.4162C89.2575 83.0782 84.8932 82.1112 81.152 82.2025C79.7291 82.2025 78.4707 82.2025 77.4308 82.2571C76.3365 82.2022 75.5703 82.2569 75.1873 82.3118Z" fill="#00A9FF"/>
<path d="M138.774 97.3603C137.133 96.4848 135.381 95.8828 133.521 95.4998C131.496 95.062 129.471 94.7885 127.392 94.7885C126.298 94.7339 125.148 94.8981 124.109 95.1715C123.398 95.3357 122.796 95.7186 122.413 96.266C122.139 96.7039 121.975 97.251 121.975 97.7435C121.975 98.236 122.193 98.7285 122.522 99.1664C123.014 99.7684 123.671 100.261 124.382 100.644C125.641 101.301 126.954 101.903 128.268 102.45C131.223 103.435 134.068 104.803 136.695 106.444C138.501 107.594 139.978 109.126 141.018 110.986C141.893 112.738 142.331 114.653 142.276 116.623C142.331 119.195 141.565 121.766 140.142 123.901C138.61 126.089 136.476 127.786 134.013 128.771C131.332 129.92 128.049 130.522 124.109 130.522C121.592 130.522 119.129 130.303 116.667 129.811C114.751 129.483 112.836 128.881 111.085 128.06C110.702 127.841 110.428 127.458 110.483 127.02V117.498C110.483 117.334 110.538 117.115 110.702 117.006C110.866 116.896 111.03 116.951 111.194 117.061C113.328 118.319 115.572 119.195 117.98 119.742C120.059 120.289 122.248 120.563 124.437 120.563C126.516 120.563 127.994 120.289 128.979 119.796C129.854 119.414 130.456 118.483 130.456 117.498C130.456 116.732 130.019 116.021 129.143 115.309C128.268 114.598 126.462 113.777 123.78 112.737C120.989 111.752 118.417 110.439 116.01 108.797C114.313 107.594 112.891 106.006 111.851 104.146C110.976 102.395 110.538 100.48 110.592 98.5644C110.592 96.2114 111.249 93.9677 112.453 91.9431C113.821 89.7543 115.846 88.0031 118.199 86.9085C120.771 85.5952 123.999 84.9932 127.884 84.9932C130.128 84.9932 132.426 85.1573 134.67 85.4857C136.312 85.7045 137.899 86.1423 139.376 86.7444C139.595 86.799 139.814 87.0181 139.923 87.2369C139.978 87.4557 140.033 87.6747 140.033 87.8935V96.8132C140.033 97.032 139.923 97.251 139.759 97.3603C139.267 97.4698 138.993 97.4698 138.774 97.3603Z" fill="#00A9FF"/>
</svg>
