<svg width="197" height="197" viewBox="0 0 197 197" fill="none" xmlns="http://www.w3.org/2000/svg">
<rect width="197" height="197" rx="20" fill="#404040"/>
<path d="M55.385 37.5254H141.489C154.543 37.5254 165.098 48.08 165.098 61.1345V143.905C165.098 156.96 154.543 167.514 141.489 167.514H55.385C42.3304 167.514 31.7759 156.96 31.7759 143.905V61.1345C31.7759 48.08 42.3304 37.5254 55.385 37.5254Z" fill="#00005B"/>
<path d="M81.2168 70.5771C85.7718 70.5771 89.5492 71.1326 92.6601 72.2991C97.884 74.258 102.18 77.8685 104.159 83.1872C104.993 85.5203 105.437 87.9091 105.437 90.4088C105.437 98.5993 101.116 106.081 93.1603 109.018C89.3829 110.407 85.2167 110.907 80.6614 110.907C79.3282 110.907 78.4393 110.907 77.8839 110.852C77.3285 110.796 76.5507 110.796 75.4953 110.796V128.628C75.5508 129.017 75.2732 129.35 74.8842 129.406C74.8287 129.406 74.773 129.406 74.6621 129.406H64.1075C63.663 129.406 63.4409 129.184 63.4409 128.684V71.5213C63.4409 71.1326 63.6076 70.9102 63.9963 70.9102C64.9408 70.9102 65.8295 70.9102 67.1072 70.8547L81.2168 70.5771ZM75.5505 81.6317V100.297C76.3283 100.352 77.0504 100.408 77.717 100.408H80.6612C82.8276 100.408 84.994 100.075 87.0493 99.4081C91.0275 98.1179 93.3267 94.8812 93.3267 90.7424C93.3267 87.2758 91.4943 83.8963 88.1606 82.6318C86.1054 81.7986 83.8832 81.4653 81.6056 81.5207C80.1612 81.5207 78.8835 81.5207 77.8281 81.5762C76.7171 81.5205 75.9393 81.5762 75.5505 81.6317Z" fill="#9999FF"/>
<path d="M113.213 84.8531H122.935C123.49 84.8531 123.934 85.2419 124.101 85.7418C124.268 86.1863 124.379 86.6305 124.434 87.1305C124.546 87.6859 124.656 88.297 124.712 88.8524C124.768 89.4635 124.823 90.1301 124.823 90.8522C126.49 88.9079 128.49 87.2969 130.767 86.0749C133.323 84.6305 136.267 83.9084 139.211 83.9084C139.6 83.853 139.933 84.1305 139.989 84.5196V84.7417V95.5741C139.989 96.0186 139.711 96.1852 139.1 96.1852C137.1 96.1297 135.045 96.2964 133.101 96.7406C131.49 97.0739 129.934 97.5739 128.434 98.2404C127.379 98.7404 126.379 99.407 125.601 100.296V128.627C125.601 129.182 125.379 129.404 124.879 129.404H113.936C113.491 129.46 113.102 129.182 113.047 128.738C113.047 128.682 113.047 128.571 113.047 128.516V97.7405C113.047 96.4073 113.047 95.0184 112.991 93.5743C112.936 92.1299 112.936 90.6855 112.88 89.2414C112.88 87.9637 112.769 86.7417 112.658 85.464C112.603 85.1862 112.769 84.9086 113.047 84.8529C113.047 84.7974 113.158 84.7974 113.213 84.8531Z" fill="#9999FF"/>
</svg>
