<svg width="197" height="197" viewBox="0 0 197 197" fill="none" xmlns="http://www.w3.org/2000/svg">
<rect width="197" height="197" rx="20" fill="#404040"/>
<path d="M55.7995 34.8438H141.928C154.971 34.8438 165.544 45.417 165.544 58.4597V141.255C165.544 154.297 154.971 164.87 141.928 164.87H55.7995C42.7568 164.87 32.1836 154.297 32.1836 141.255V58.4597C32.1836 45.417 42.7568 34.8438 55.7995 34.8438Z" fill="#470137"/>
<path d="M102.291 69.0374L85.6508 96.5024L103.454 125.667C103.568 125.871 103.6 126.111 103.544 126.338C103.483 126.548 103.275 126.416 102.917 126.475H90.2138C89.3189 126.475 88.6927 126.443 88.3348 125.846C87.1411 123.52 85.9482 121.209 84.7563 118.913C83.5626 116.617 82.2952 114.276 80.9544 111.89C79.6125 109.505 78.2854 107.09 76.9732 104.643H76.8836C75.6899 107.03 74.4522 109.415 73.1707 111.8C71.8877 114.187 70.6202 116.557 69.3687 118.913C68.1162 121.269 66.8339 123.61 65.5219 125.935C65.2828 126.472 64.8648 126.528 64.2691 126.528H52.0128C51.775 126.528 51.6408 126.622 51.6101 126.383C51.5765 126.164 51.6242 125.942 51.7445 125.757L69.0106 97.3968L52.1917 68.9478C52.0128 68.7102 51.9831 68.5164 52.1021 68.3664C52.236 68.2117 52.435 68.1289 52.6392 68.1427H65.2531C65.5282 68.1276 65.8032 68.1734 66.0585 68.2771C66.2723 68.3982 66.456 68.5665 66.5953 68.7691C67.6689 71.1552 68.8619 73.5408 70.1738 75.9261C71.4852 78.3122 72.812 80.6681 74.155 82.9938C75.4969 85.3197 76.7346 87.6756 77.8679 90.0614H77.9575C79.1496 87.6164 80.3574 85.2309 81.5808 82.9044C82.8026 80.5785 84.0549 78.2374 85.338 75.8816C86.62 73.5262 87.8577 71.1851 89.0509 68.8587C89.1194 68.6378 89.2426 68.438 89.4087 68.2773C89.6296 68.1653 89.8778 68.1187 90.1245 68.1429H101.844C102.119 68.0752 102.397 68.243 102.465 68.5177C102.512 68.7097 102.444 68.9121 102.291 69.0374Z" fill="#FF61F6"/>
<path d="M127.965 127.637C123.848 127.699 119.768 126.843 116.022 125.131C112.533 123.517 109.616 120.88 107.658 117.572C105.629 114.203 104.615 109.983 104.616 104.913C104.582 100.807 105.632 96.7645 107.658 93.193C109.745 89.5554 112.814 86.5788 116.514 84.6045C120.391 82.4575 125.073 81.3839 130.56 81.3839C130.858 81.3839 131.245 81.3987 131.723 81.4287C132.2 81.4594 132.767 81.5039 133.423 81.5628V63.9386C133.423 63.5221 133.602 63.3124 133.96 63.3124H145.232C145.491 63.2754 145.732 63.4557 145.769 63.7151C145.775 63.7596 145.775 63.8047 145.769 63.8492V116.722C145.769 117.737 145.814 118.84 145.903 120.032C145.993 121.226 146.067 122.299 146.127 123.253C146.149 123.633 145.936 123.988 145.59 124.147C142.682 125.36 139.653 126.26 136.554 126.831C133.721 127.354 130.847 127.624 127.965 127.637ZM133.423 116.543V92.1199C132.939 91.9889 132.445 91.899 131.947 91.8513C131.337 91.7901 130.725 91.7602 130.112 91.762C127.942 91.7404 125.796 92.2308 123.85 93.1932C121.955 94.1353 120.337 95.5533 119.153 97.3086C117.93 99.0977 117.319 101.454 117.319 104.376C117.276 106.326 117.594 108.268 118.259 110.102C118.799 111.58 119.654 112.923 120.764 114.038C121.826 115.065 123.112 115.83 124.521 116.275C126.009 116.757 127.564 116.998 129.128 116.99C129.963 116.99 130.738 116.96 131.454 116.901C132.121 116.851 132.781 116.731 133.423 116.543Z" fill="#FF61F6"/>
</svg>
