<svg width="1440" height="1662" viewBox="0 0 1440 1662" fill="none" xmlns="http://www.w3.org/2000/svg">
<mask id="mask0_1862_2256" style="mask-type:alpha" maskUnits="userSpaceOnUse" x="-2" y="18" width="1442" height="1626">
<path d="M659.795 35.8678C696.432 14.7408 741.551 14.7408 778.188 35.8679L1378.72 382.169C1415.41 403.329 1438.02 442.466 1438.02 484.824V1177.18C1438.02 1219.53 1415.41 1258.67 1378.72 1279.83L778.188 1626.13C741.551 1647.26 696.432 1647.26 659.795 1626.13L59.2647 1279.83C22.5706 1258.67 -0.0385132 1219.53 -0.0385132 1177.18V484.824C-0.0385132 442.466 22.5707 403.329 59.2647 382.169L659.795 35.8678Z" fill="#F9B000" stroke="black" stroke-width="3"/>
</mask>
<g mask="url(#mask0_1862_2256)">
<path d="M-112.008 2846.72L1530.78 2846.72L1530.78 -356.713L-112.008 -356.713L-112.008 2846.72Z" fill="#191919"/>
<mask id="mask1_1862_2256" style="mask-type:luminance" maskUnits="userSpaceOnUse" x="-113" y="-357" width="1644" height="3204">
<path d="M-112.008 2846.72L1530.78 2846.72L1530.78 -356.714L-112.008 -356.714L-112.008 2846.72Z" fill="white"/>
</mask>
<g mask="url(#mask1_1862_2256)">
<g style="mix-blend-mode:screen">
<path d="M1750.22 602.032C1558.62 529.875 1351.73 491.258 1136.11 493.198C522.121 498.788 -15.3784 831.395 -325.911 1330.96L-325.911 3056.97L1750.22 3056.97L1750.22 602.032Z" fill="url(#paint0_radial_1862_2256)"/>
</g>
<g style="mix-blend-mode:color-dodge">
<path d="M1750.22 1595.12C1589.31 1445.96 1376.83 1356.12 1144.55 1358.23C648.011 1362.73 249.122 1785.98 253.97 2303.52C256.822 2614.39 404.559 2888.53 629.701 3056.97L1677.66 3056.97C1702.87 3038.09 1727.06 3017.79 1750.22 2996.34L1750.22 1595.12Z" fill="url(#paint1_radial_1862_2256)"/>
</g>
<g style="mix-blend-mode:screen">
<path d="M1750.22 1774.51C1425.08 1411.62 960.654 1186.42 446.884 1191.1C168.979 1193.61 -93.2395 1263.25 -325.911 1384.92L-325.911 3056.97L1750.22 3056.97L1750.22 1774.51Z" fill="url(#paint2_radial_1862_2256)"/>
</g>
<g style="mix-blend-mode:screen">
<path d="M-325.912 26.6574L-325.911 3056.97L1230.8 3056.97C1506.82 2729.78 1672.64 2299.52 1668.36 1829.45C1659.18 816.165 863.569 1.90168 -108.813 10.7431C-182.339 11.4277 -254.781 16.8464 -325.912 26.6003L-325.912 26.6574Z" fill="url(#paint3_radial_1862_2256)"/>
</g>
<g style="mix-blend-mode:color-dodge">
<path d="M-325.912 2717.75C-248.621 2739.49 -167.338 2750.78 -83.3729 2749.98C413.285 2745.47 812.06 2322.23 807.326 1804.64C802.591 1287.1 396.23 871.157 -100.371 875.663C-178.347 876.348 -253.926 887.414 -325.912 907.549L-325.912 2717.75Z" fill="url(#paint4_radial_1862_2256)"/>
</g>
<path d="M1356.8 33.9551L1430.39 33.9551L1467.18 -29.7602L1430.39 -93.4752L1356.8 -93.4752L1320.01 -29.7602L1356.8 33.9551Z" fill="#111111"/>
<path d="M1356.8 175.59L1430.39 175.59L1467.18 111.818L1430.39 48.1028L1356.8 48.1028L1320.01 111.818L1356.8 175.59Z" fill="#111111"/>
<path d="M1356.8 317.166L1430.39 317.166L1467.18 253.451L1430.39 189.736L1356.8 189.736L1320.01 253.451L1356.8 317.166Z" fill="#111111"/>
<path d="M1356.8 458.744L1430.39 458.744L1467.18 395.029L1430.39 331.314L1356.8 331.314L1320.01 395.029L1356.8 458.744Z" fill="#111111"/>
<path d="M1356.8 600.381L1430.39 600.381L1467.18 536.666L1430.39 472.951L1356.8 472.951L1320.01 536.666L1356.8 600.381Z" fill="#111111"/>
<path d="M1356.8 741.955L1430.39 741.955L1467.18 678.24L1430.39 614.525L1356.8 614.525L1320.01 678.24L1356.8 741.955Z" fill="#111111"/>
<path d="M1356.8 883.592L1430.39 883.592L1467.18 819.82L1430.39 756.105L1356.8 756.105L1320.01 819.82L1356.8 883.592Z" fill="#111111"/>
<path d="M1356.8 1025.17L1430.39 1025.17L1467.18 961.454L1430.39 897.739L1356.8 897.739L1320.01 961.454L1356.8 1025.17Z" fill="#111111"/>
<path d="M1356.8 1166.74L1430.39 1166.74L1467.18 1103.02L1430.39 1039.31L1356.8 1039.31L1320.01 1103.02L1356.8 1166.74Z" fill="#111111"/>
<path d="M1356.8 1308.37L1430.39 1308.37L1467.18 1244.65L1430.39 1180.94L1356.8 1180.94L1320.01 1244.66L1356.8 1308.37Z" fill="#111111"/>
<path d="M1356.8 1449.95L1430.39 1449.95L1467.18 1386.23L1430.39 1322.52L1356.8 1322.52L1320.01 1386.23L1356.8 1449.95Z" fill="#111111"/>
<path d="M1356.8 1591.58L1430.39 1591.58L1467.18 1527.81L1430.39 1464.09L1356.8 1464.09L1320.01 1527.81L1356.8 1591.58Z" fill="#111111"/>
<path d="M1356.8 1733.16L1430.39 1733.16L1467.18 1669.44L1430.39 1605.73L1356.8 1605.73L1320.01 1669.44L1356.8 1733.16Z" fill="#111111"/>
<path d="M1234.17 104.744L1307.75 104.744L1344.54 41.0292L1307.75 -22.6861L1234.17 -22.6861L1197.37 41.0292L1234.17 104.744Z" fill="#111111"/>
<path d="M1234.17 246.381L1307.75 246.381L1344.54 182.666L1307.75 118.951L1234.17 118.951L1197.37 182.666L1234.17 246.381Z" fill="#111111"/>
<path d="M1234.17 387.953L1307.75 387.953L1344.54 324.238L1307.75 260.523L1234.17 260.523L1197.37 324.238L1234.17 387.953Z" fill="#111111"/>
<path d="M1234.17 529.59L1307.75 529.59L1344.54 465.818L1307.75 402.103L1234.17 402.103L1197.37 465.818L1234.17 529.59Z" fill="#111111"/>
<path d="M1234.17 671.168L1307.75 671.168L1344.54 607.453L1307.75 543.738L1234.17 543.738L1197.37 607.453L1234.17 671.168Z" fill="#111111"/>
<path d="M1234.17 812.746L1307.75 812.746L1344.54 749.031L1307.75 685.316L1234.17 685.316L1197.37 749.031L1234.17 812.746Z" fill="#111111"/>
<path d="M1234.17 954.377L1307.75 954.377L1344.54 890.662L1307.75 826.947L1234.17 826.947L1197.37 890.662L1234.17 954.377Z" fill="#111111"/>
<path d="M1234.17 1095.96L1307.75 1095.96L1344.54 1032.24L1307.75 968.529L1234.17 968.529L1197.37 1032.24L1234.17 1095.96Z" fill="#111111"/>
<path d="M1234.17 1237.58L1307.75 1237.58L1344.54 1173.81L1307.75 1110.09L1234.17 1110.09L1197.37 1173.81L1234.17 1237.58Z" fill="#111111"/>
<path d="M1234.17 1379.16L1307.75 1379.16L1344.54 1315.44L1307.75 1251.73L1234.17 1251.73L1197.37 1315.44L1234.17 1379.16Z" fill="#111111"/>
<path d="M1234.17 1520.74L1307.75 1520.74L1344.54 1457.02L1307.75 1393.31L1234.17 1393.31L1197.37 1457.02L1234.17 1520.74Z" fill="#111111"/>
<path d="M1234.17 1662.37L1307.75 1662.37L1344.54 1598.66L1307.75 1534.94L1234.17 1534.94L1197.37 1598.66L1234.17 1662.37Z" fill="#111111"/>
<path d="M1111.53 33.9551L1185.11 33.9551L1221.9 -29.7602L1185.11 -93.4752L1111.53 -93.4752L1074.74 -29.7602L1111.53 33.9551Z" fill="#111111"/>
<path d="M1111.53 175.59L1185.11 175.59L1221.9 111.818L1185.11 48.1028L1111.53 48.1028L1074.74 111.818L1111.53 175.59Z" fill="#111111"/>
<path d="M1111.53 317.166L1185.11 317.166L1221.9 253.451L1185.11 189.736L1111.53 189.736L1074.74 253.451L1111.53 317.166Z" fill="#111111"/>
<path d="M1111.53 458.744L1185.11 458.744L1221.9 395.029L1185.11 331.314L1111.53 331.314L1074.74 395.029L1111.53 458.744Z" fill="#111111"/>
<path d="M1111.53 600.381L1185.11 600.381L1221.9 536.666L1185.11 472.951L1111.53 472.951L1074.74 536.666L1111.53 600.381Z" fill="#111111"/>
<path d="M1111.53 741.955L1185.11 741.955L1221.9 678.24L1185.11 614.525L1111.53 614.525L1074.74 678.24L1111.53 741.955Z" fill="#111111"/>
<path d="M1111.53 883.592L1185.11 883.592L1221.9 819.82L1185.11 756.105L1111.53 756.105L1074.74 819.82L1111.53 883.592Z" fill="#111111"/>
<path d="M1111.53 1025.17L1185.11 1025.17L1221.9 961.454L1185.11 897.739L1111.53 897.739L1074.74 961.454L1111.53 1025.17Z" fill="#111111"/>
<path d="M1111.53 1166.74L1185.11 1166.74L1221.9 1103.02L1185.11 1039.31L1111.53 1039.31L1074.74 1103.02L1111.53 1166.74Z" fill="#111111"/>
<path d="M1111.53 1308.37L1185.11 1308.37L1221.9 1244.65L1185.11 1180.94L1111.53 1180.94L1074.74 1244.65L1111.53 1308.37Z" fill="#111111"/>
<path d="M1111.53 1449.95L1185.11 1449.95L1221.9 1386.23L1185.11 1322.52L1111.53 1322.52L1074.74 1386.23L1111.53 1449.95Z" fill="#111111"/>
<path d="M1111.53 1591.58L1185.11 1591.58L1221.9 1527.81L1185.11 1464.09L1111.53 1464.09L1074.74 1527.81L1111.53 1591.58Z" fill="#111111"/>
<path d="M1111.53 1733.16L1185.11 1733.16L1221.9 1669.44L1185.11 1605.73L1111.53 1605.73L1074.74 1669.44L1111.53 1733.16Z" fill="#111111"/>
<path d="M988.889 104.744L1062.47 104.744L1099.26 41.0292L1062.47 -22.6861L988.889 -22.6861L952.098 41.0292L988.889 104.744Z" fill="#111111"/>
<path d="M988.889 246.379L1062.47 246.379L1099.26 182.664L1062.47 118.949L988.889 118.949L952.098 182.664L988.889 246.379Z" fill="#111111"/>
<path d="M988.89 387.953L1062.47 387.953L1099.26 324.238L1062.47 260.523L988.89 260.523L952.098 324.238L988.89 387.953Z" fill="#111111"/>
<path d="M988.889 529.588L1062.47 529.588L1099.26 465.816L1062.47 402.101L988.889 402.101L952.098 465.816L988.889 529.588Z" fill="#111111"/>
<path d="M988.889 671.168L1062.47 671.168L1099.26 607.453L1062.47 543.738L988.889 543.738L952.098 607.453L988.889 671.168Z" fill="#111111"/>
<path d="M988.889 812.746L1062.47 812.746L1099.26 749.031L1062.47 685.316L988.889 685.316L952.098 749.031L988.889 812.746Z" fill="#111111"/>
<path d="M988.889 954.377L1062.47 954.377L1099.26 890.662L1062.47 826.947L988.889 826.947L952.098 890.662L988.889 954.377Z" fill="#111111"/>
<path d="M988.889 1095.96L1062.47 1095.96L1099.26 1032.24L1062.47 968.529L988.889 968.529L952.098 1032.24L988.889 1095.96Z" fill="#111111"/>
<path d="M988.889 1237.58L1062.47 1237.58L1099.26 1173.81L1062.47 1110.09L988.889 1110.09L952.098 1173.81L988.889 1237.58Z" fill="#111111"/>
<path d="M988.889 1379.16L1062.47 1379.16L1099.26 1315.44L1062.47 1251.73L988.889 1251.73L952.098 1315.44L988.889 1379.16Z" fill="#111111"/>
<path d="M988.889 1520.74L1062.47 1520.74L1099.26 1457.02L1062.47 1393.31L988.889 1393.31L952.098 1457.02L988.889 1520.74Z" fill="#111111"/>
<path d="M988.889 1662.37L1062.47 1662.37L1099.26 1598.66L1062.47 1534.94L988.889 1534.94L952.098 1598.66L988.889 1662.37Z" fill="#111111"/>
<path d="M866.251 33.9551L939.834 33.9551L976.625 -29.7602L939.834 -93.4752L866.251 -93.4752L829.516 -29.7602L866.251 33.9551Z" fill="#111111"/>
<path d="M866.251 175.588L939.834 175.588L976.625 111.816L939.834 48.1009L866.251 48.1009L829.516 111.816L866.251 175.588Z" fill="#111111"/>
<path d="M866.251 317.166L939.834 317.166L976.625 253.451L939.834 189.736L866.251 189.736L829.516 253.451L866.251 317.166Z" fill="#111111"/>
<path d="M866.251 458.744L939.834 458.744L976.625 395.029L939.834 331.314L866.251 331.314L829.516 395.029L866.251 458.744Z" fill="#111111"/>
<path d="M866.251 600.379L939.834 600.379L976.625 536.664L939.834 472.949L866.251 472.949L829.516 536.664L866.251 600.379Z" fill="#111111"/>
<path d="M866.251 741.955L939.834 741.955L976.625 678.24L939.834 614.525L866.251 614.525L829.516 678.24L866.251 741.955Z" fill="#111111"/>
<path d="M866.251 883.592L939.834 883.592L976.625 819.82L939.834 756.105L866.251 756.105L829.516 819.82L866.251 883.592Z" fill="#111111"/>
<path d="M866.251 1025.17L939.834 1025.17L976.625 961.454L939.834 897.739L866.251 897.739L829.516 961.454L866.251 1025.17Z" fill="#111111"/>
<path d="M866.251 1166.73L939.834 1166.73L976.625 1103.02L939.834 1039.3L866.251 1039.3L829.516 1103.02L866.251 1166.73Z" fill="#111111"/>
<path d="M866.251 1308.37L939.834 1308.37L976.625 1244.65L939.834 1180.94L866.251 1180.94L829.516 1244.65L866.251 1308.37Z" fill="#111111"/>
<path d="M866.251 1449.95L939.834 1449.95L976.625 1386.23L939.834 1322.52L866.251 1322.52L829.516 1386.23L866.251 1449.95Z" fill="#111111"/>
<path d="M866.251 1591.58L939.834 1591.58L976.625 1527.81L939.834 1464.09L866.251 1464.09L829.516 1527.81L866.251 1591.58Z" fill="#111111"/>
<path d="M866.251 1733.16L939.834 1733.16L976.625 1669.44L939.834 1605.73L866.251 1605.73L829.516 1669.44L866.251 1733.16Z" fill="#111111"/>
<path d="M743.67 104.744L817.253 104.744L854.045 41.0292L817.253 -22.6861L743.67 -22.6861L706.879 41.0292L743.67 104.744Z" fill="#111111"/>
<path d="M743.67 246.379L817.253 246.379L854.045 182.664L817.253 118.949L743.67 118.949L706.879 182.664L743.67 246.379Z" fill="#111111"/>
<path d="M743.67 387.953L817.254 387.953L854.045 324.238L817.254 260.523L743.67 260.523L706.879 324.238L743.67 387.953Z" fill="#111111"/>
<path d="M743.67 529.588L817.254 529.588L854.045 465.816L817.254 402.101L743.67 402.101L706.879 465.816L743.67 529.588Z" fill="#111111"/>
<path d="M743.67 671.168L817.254 671.168L854.045 607.453L817.254 543.738L743.67 543.738L706.879 607.453L743.67 671.168Z" fill="#111111"/>
<path d="M743.67 812.746L817.253 812.746L854.045 749.031L817.253 685.316L743.67 685.316L706.879 749.031L743.67 812.746Z" fill="#111111"/>
<path d="M743.67 954.377L817.253 954.377L854.045 890.662L817.253 826.947L743.67 826.947L706.879 890.662L743.67 954.377Z" fill="#111111"/>
<path d="M743.67 1095.96L817.254 1095.96L854.045 1032.24L817.254 968.529L743.67 968.529L706.879 1032.24L743.67 1095.96Z" fill="#111111"/>
<path d="M743.67 1237.58L817.254 1237.58L854.045 1173.81L817.254 1110.09L743.67 1110.09L706.879 1173.81L743.67 1237.58Z" fill="#111111"/>
<path d="M743.67 1379.16L817.254 1379.16L854.045 1315.44L817.254 1251.73L743.67 1251.73L706.879 1315.44L743.67 1379.16Z" fill="#111111"/>
<path d="M743.67 1520.74L817.253 1520.74L854.045 1457.02L817.253 1393.31L743.67 1393.31L706.879 1457.02L743.67 1520.74Z" fill="#111111"/>
<path d="M743.67 1662.37L817.253 1662.37L854.045 1598.66L817.253 1534.94L743.67 1534.94L706.879 1598.66L743.67 1662.37Z" fill="#111111"/>
<path d="M621.031 33.9551L694.614 33.9551L731.406 -29.7602L694.614 -93.4752L621.031 -93.4752L584.239 -29.7602L621.031 33.9551Z" fill="#111111"/>
<path d="M621.031 175.588L694.614 175.588L731.406 111.816L694.614 48.1009L621.031 48.1009L584.239 111.816L621.031 175.588Z" fill="#111111"/>
<path d="M621.032 317.166L694.615 317.166L731.407 253.451L694.615 189.736L621.032 189.736L584.24 253.451L621.032 317.166Z" fill="#111111"/>
<path d="M621.032 458.744L694.615 458.744L731.406 395.029L694.615 331.314L621.032 331.314L584.24 395.029L621.032 458.744Z" fill="#111111"/>
<path d="M621.031 600.379L694.615 600.379L731.406 536.664L694.615 472.949L621.031 472.949L584.24 536.664L621.031 600.379Z" fill="#111111"/>
<path d="M621.031 741.955L694.614 741.955L731.406 678.24L694.614 614.525L621.031 614.525L584.24 678.24L621.031 741.955Z" fill="#111111"/>
<path d="M621.031 883.592L694.614 883.592L731.406 819.82L694.614 756.105L621.031 756.105L584.24 819.82L621.031 883.592Z" fill="#111111"/>
<path d="M621.032 1025.17L694.615 1025.17L731.406 961.454L694.615 897.739L621.032 897.739L584.24 961.454L621.032 1025.17Z" fill="#111111"/>
<path d="M621.032 1166.73L694.615 1166.73L731.406 1103.02L694.615 1039.3L621.032 1039.3L584.24 1103.02L621.032 1166.73Z" fill="#111111"/>
<path d="M621.031 1308.37L694.615 1308.37L731.406 1244.65L694.615 1180.94L621.031 1180.94L584.24 1244.65L621.031 1308.37Z" fill="#111111"/>
<path d="M621.031 1449.95L694.614 1449.95L731.406 1386.23L694.614 1322.52L621.031 1322.52L584.239 1386.23L621.031 1449.95Z" fill="#111111"/>
<path d="M621.031 1591.58L694.614 1591.58L731.406 1527.81L694.614 1464.09L621.031 1464.09L584.239 1527.81L621.031 1591.58Z" fill="#111111"/>
<path d="M621.032 1733.16L694.615 1733.16L731.406 1669.44L694.615 1605.73L621.032 1605.73L584.24 1669.44L621.032 1733.16Z" fill="#111111"/>
<path d="M498.393 104.744L571.976 104.744L608.768 41.0292L571.976 -22.6861L498.393 -22.6861L461.601 41.0292L498.393 104.744Z" fill="#111111"/>
<path d="M498.393 246.379L571.976 246.379L608.767 182.664L571.976 118.949L498.393 118.949L461.601 182.664L498.393 246.379Z" fill="#111111"/>
<path d="M498.393 387.953L571.976 387.953L608.768 324.238L571.976 260.523L498.393 260.523L461.601 324.238L498.393 387.953Z" fill="#111111"/>
<path d="M498.393 529.588L571.976 529.588L608.768 465.816L571.976 402.101L498.393 402.101L461.601 465.816L498.393 529.588Z" fill="#111111"/>
<path d="M498.393 671.168L571.976 671.168L608.768 607.453L571.976 543.738L498.393 543.738L461.602 607.453L498.393 671.168Z" fill="#111111"/>
<path d="M498.393 812.746L571.976 812.746L608.768 749.031L571.976 685.316L498.393 685.316L461.602 749.031L498.393 812.746Z" fill="#111111"/>
<path d="M498.393 954.377L571.976 954.377L608.768 890.662L571.976 826.947L498.393 826.947L461.602 890.662L498.393 954.377Z" fill="#111111"/>
<path d="M498.393 1095.96L571.976 1095.96L608.768 1032.24L571.976 968.528L498.393 968.528L461.602 1032.24L498.393 1095.96Z" fill="#111111"/>
<path d="M498.393 1237.58L571.976 1237.58L608.768 1173.81L571.976 1110.09L498.393 1110.09L461.601 1173.81L498.393 1237.58Z" fill="#111111"/>
<path d="M498.393 1379.16L571.976 1379.16L608.768 1315.44L571.976 1251.73L498.393 1251.73L461.601 1315.44L498.393 1379.16Z" fill="#111111"/>
<path d="M498.393 1520.74L571.976 1520.74L608.767 1457.02L571.976 1393.31L498.393 1393.31L461.601 1457.02L498.393 1520.74Z" fill="#111111"/>
<path d="M498.393 1662.37L571.976 1662.37L608.767 1598.66L571.976 1534.94L498.393 1534.94L461.601 1598.66L498.393 1662.37Z" fill="#111111"/>
<path d="M375.754 33.9551L449.337 33.9551L486.129 -29.7602L449.337 -93.4752L375.754 -93.4752L338.962 -29.7602L375.754 33.9551Z" fill="#111111"/>
<path d="M375.754 175.588L449.337 175.588L486.129 111.816L449.337 48.1009L375.754 48.1009L338.962 111.816L375.754 175.588Z" fill="#111111"/>
<path d="M375.754 317.166L449.338 317.166L486.129 253.451L449.338 189.736L375.754 189.736L338.963 253.451L375.754 317.166Z" fill="#111111"/>
<path d="M375.754 458.744L449.338 458.744L486.129 395.029L449.338 331.314L375.754 331.314L338.963 395.029L375.754 458.744Z" fill="#111111"/>
<path d="M375.754 600.379L449.337 600.379L486.129 536.664L449.337 472.949L375.754 472.949L338.963 536.664L375.754 600.379Z" fill="#111111"/>
<path d="M375.754 741.955L449.337 741.955L486.129 678.24L449.337 614.525L375.754 614.525L338.963 678.24L375.754 741.955Z" fill="#111111"/>
<path d="M375.754 883.59L449.337 883.59L486.129 819.818L449.337 756.103L375.754 756.103L338.963 819.818L375.754 883.59Z" fill="#111111"/>
<path d="M375.754 1025.17L449.337 1025.17L486.129 961.453L449.337 897.738L375.754 897.738L338.963 961.453L375.754 1025.17Z" fill="#111111"/>
<path d="M375.754 1166.73L449.337 1166.73L486.129 1103.02L449.337 1039.3L375.754 1039.3L338.963 1103.02L375.754 1166.73Z" fill="#111111"/>
<path d="M375.754 1308.37L449.337 1308.37L486.129 1244.65L449.337 1180.94L375.754 1180.94L338.962 1244.65L375.754 1308.37Z" fill="#111111"/>
<path d="M375.754 1449.95L449.337 1449.95L486.129 1386.23L449.337 1322.52L375.754 1322.52L338.962 1386.23L375.754 1449.95Z" fill="#111111"/>
<path d="M375.754 1591.58L449.337 1591.58L486.129 1527.81L449.337 1464.09L375.754 1464.09L338.962 1527.81L375.754 1591.58Z" fill="#111111"/>
<path d="M375.754 1733.16L449.338 1733.16L486.129 1669.44L449.338 1605.73L375.754 1605.73L338.963 1669.44L375.754 1733.16Z" fill="#111111"/>
<path d="M253.116 104.744L326.699 104.744L363.49 41.0292L326.699 -22.6861L253.116 -22.6861L216.324 41.0292L253.116 104.744Z" fill="#111111"/>
<path d="M253.116 246.377L326.699 246.377L363.49 182.662L326.699 118.947L253.116 118.947L216.324 182.662L253.116 246.377Z" fill="#111111"/>
<path d="M253.116 387.953L326.699 387.953L363.49 324.238L326.699 260.523L253.116 260.523L216.324 324.238L253.116 387.953Z" fill="#111111"/>
<path d="M253.116 529.588L326.699 529.588L363.49 465.816L326.699 402.101L253.116 402.101L216.324 465.816L253.116 529.588Z" fill="#111111"/>
<path d="M253.116 671.168L326.699 671.168L363.49 607.453L326.699 543.738L253.116 543.738L216.324 607.453L253.116 671.168Z" fill="#111111"/>
<path d="M253.116 812.746L326.699 812.746L363.49 749.031L326.699 685.316L253.116 685.316L216.324 749.031L253.116 812.746Z" fill="#111111"/>
<path d="M253.116 954.377L326.699 954.377L363.49 890.662L326.699 826.947L253.116 826.947L216.324 890.662L253.116 954.377Z" fill="#111111"/>
<path d="M253.116 1095.96L326.699 1095.96L363.49 1032.24L326.699 968.528L253.116 968.528L216.324 1032.24L253.116 1095.96Z" fill="#111111"/>
<path d="M253.116 1237.58L326.699 1237.58L363.49 1173.81L326.699 1110.09L253.116 1110.09L216.324 1173.81L253.116 1237.58Z" fill="#111111"/>
<path d="M253.116 1379.16L326.699 1379.16L363.49 1315.44L326.699 1251.73L253.116 1251.73L216.324 1315.44L253.116 1379.16Z" fill="#111111"/>
<path d="M253.116 1520.74L326.699 1520.74L363.49 1457.02L326.699 1393.31L253.116 1393.31L216.324 1457.02L253.116 1520.74Z" fill="#111111"/>
<path d="M253.116 1662.37L326.699 1662.37L363.49 1598.66L326.699 1534.94L253.116 1534.94L216.324 1598.66L253.116 1662.37Z" fill="#111111"/>
<path d="M130.534 33.9551L204.06 33.9551L240.852 -29.7602L204.06 -93.4752L130.534 -93.4752L93.7427 -29.7602L130.534 33.9551Z" fill="#111111"/>
<path d="M130.534 175.588L204.06 175.588L240.852 111.816L204.06 48.1009L130.534 48.1009L93.7424 111.816L130.534 175.588Z" fill="#111111"/>
<path d="M130.534 317.166L204.061 317.166L240.852 253.451L204.061 189.736L130.534 189.736L93.7429 253.451L130.534 317.166Z" fill="#111111"/>
<path d="M130.534 458.744L204.061 458.744L240.852 395.029L204.061 331.314L130.534 331.314L93.7429 395.029L130.534 458.744Z" fill="#111111"/>
<path d="M130.534 600.379L204.061 600.379L240.852 536.664L204.061 472.949L130.534 472.949L93.7429 536.664L130.534 600.379Z" fill="#111111"/>
<path d="M130.534 741.957L204.061 741.957L240.852 678.242L204.061 614.527L130.534 614.527L93.7429 678.242L130.534 741.957Z" fill="#111111"/>
<path d="M130.534 883.59L204.06 883.59L240.852 819.818L204.06 756.103L130.534 756.103L93.7427 819.818L130.534 883.59Z" fill="#111111"/>
<path d="M130.534 1025.17L204.06 1025.17L240.852 961.454L204.06 897.739L130.534 897.739L93.7427 961.454L130.534 1025.17Z" fill="#111111"/>
<path d="M130.534 1166.74L204.06 1166.74L240.852 1103.02L204.06 1039.31L130.534 1039.31L93.7427 1103.02L130.534 1166.74Z" fill="#111111"/>
<path d="M130.534 1308.37L204.06 1308.37L240.852 1244.65L204.06 1180.94L130.534 1180.94L93.7427 1244.66L130.534 1308.37Z" fill="#111111"/>
<path d="M130.534 1449.95L204.06 1449.95L240.852 1386.23L204.06 1322.52L130.534 1322.52L93.7427 1386.23L130.534 1449.95Z" fill="#111111"/>
<path d="M130.534 1591.58L204.06 1591.58L240.852 1527.81L204.06 1464.09L130.534 1464.09L93.7424 1527.81L130.534 1591.58Z" fill="#111111"/>
<path d="M130.534 1733.16L204.061 1733.16L240.852 1669.44L204.061 1605.73L130.534 1605.73L93.7429 1669.44L130.534 1733.16Z" fill="#111111"/>
<path d="M7.89448 104.744L81.4778 104.744L118.269 41.0292L81.4778 -22.6861L7.89447 -22.6861L-28.897 41.0292L7.89448 104.744Z" fill="#111111"/>
<path d="M7.89448 246.379L81.4778 246.379L118.269 182.664L81.4778 118.949L7.89447 118.949L-28.897 182.664L7.89448 246.379Z" fill="#111111"/>
<path d="M7.89448 387.953L81.4778 387.953L118.269 324.238L81.4778 260.523L7.89447 260.523L-28.897 324.238L7.89448 387.953Z" fill="#111111"/>
<path d="M7.89448 529.59L81.4778 529.59L118.269 465.818L81.4778 402.103L7.89447 402.103L-28.897 465.818L7.89448 529.59Z" fill="#111111"/>
<path d="M7.89448 671.168L81.4778 671.168L118.269 607.453L81.4778 543.738L7.89447 543.738L-28.897 607.453L7.89448 671.168Z" fill="#111111"/>
<path d="M7.89448 812.744L81.4778 812.744L118.269 749.029L81.4778 685.314L7.89447 685.314L-28.897 749.029L7.89448 812.744Z" fill="#111111"/>
<path d="M7.89448 954.377L81.4778 954.377L118.269 890.662L81.4778 826.947L7.89447 826.947L-28.897 890.662L7.89448 954.377Z" fill="#111111"/>
<path d="M7.89448 1095.96L81.4778 1095.96L118.269 1032.24L81.4778 968.529L7.89447 968.529L-28.897 1032.24L7.89448 1095.96Z" fill="#111111"/>
<path d="M7.89448 1237.58L81.4778 1237.58L118.269 1173.81L81.4778 1110.09L7.89447 1110.09L-28.897 1173.81L7.89448 1237.58Z" fill="#111111"/>
<path d="M7.89448 1379.16L81.4778 1379.16L118.269 1315.44L81.4778 1251.73L7.89447 1251.73L-28.897 1315.44L7.89448 1379.16Z" fill="#111111"/>
<path d="M7.89448 1520.74L81.4778 1520.74L118.269 1457.02L81.4778 1393.31L7.89447 1393.31L-28.897 1457.02L7.89448 1520.74Z" fill="#111111"/>
<path d="M7.89472 1662.37L81.478 1662.37L118.27 1598.66L81.478 1534.94L7.89471 1534.94L-28.8968 1598.66L7.89472 1662.37Z" fill="#111111"/>
<g style="mix-blend-mode:screen">
<path d="M1750.22 2082.65C1430.33 1764.76 996.191 1571.16 519.383 1575.5C212.216 1578.29 -75.8419 1663 -325.911 1809.48L-325.911 3056.97L1750.22 3056.97L1750.22 2082.65Z" fill="url(#paint5_radial_1862_2256)"/>
</g>
<g style="mix-blend-mode:screen">
<path d="M1750.22 503.807C1617.2 471.693 1478.53 455.208 1335.99 456.463C555.034 463.536 -102.252 999.724 -325.911 1735.56L-325.911 2844.32C-303.721 2917.34 -277.254 2988.3 -246.908 3056.97L1750.22 3056.97L1750.22 503.807Z" fill="url(#paint6_radial_1862_2256)"/>
</g>
<g style="mix-blend-mode:color-dodge">
<path d="M1750.22 1418.01C1627.92 1355.03 1490.05 1320.18 1344.43 1321.49C847.883 1326 448.994 1749.25 453.843 2266.78C456.866 2601.38 627.876 2893.49 882.508 3056.97L1750.22 3056.97L1750.22 1418.01Z" fill="url(#paint7_radial_1862_2256)"/>
</g>
<g style="mix-blend-mode:screen">
<path d="M-325.912 65.332L-325.912 3056.97L1181.17 3056.97C1433.35 2736.34 1583.2 2325.19 1579.15 1878.04C1569.97 864.764 774.356 50.5008 -198.026 59.3422C-241.035 59.7416 -283.702 61.7953 -325.912 65.332Z" fill="url(#paint8_radial_1862_2256)"/>
</g>
<g style="mix-blend-mode:color-dodge">
<path d="M-325.911 2786.37C-276.056 2794.81 -224.833 2799.09 -172.584 2798.57C324.074 2794.07 722.849 2370.82 718.115 1853.23C713.38 1335.69 307.019 919.75 -189.582 924.256C-235.957 924.655 -281.476 928.762 -325.911 936.235L-325.911 2786.37Z" fill="url(#paint9_radial_1862_2256)"/>
</g>
</g>
<g style="mix-blend-mode:hard-light">
<path d="M-112.008 2846.72L1530.78 2846.72L1530.78 -356.713L-112.008 -356.713L-112.008 2846.72Z" fill="#FFD538"/>
</g>
</g>
<defs>
<radialGradient id="paint0_radial_1862_2256" cx="0" cy="0" r="1" gradientUnits="userSpaceOnUse" gradientTransform="translate(1145.43 2337.52) rotate(89.48) scale(1834.5 1761.02)">
<stop offset="0.14" stop-color="#616161"/>
<stop offset="0.49" stop-color="#373737"/>
<stop offset="1"/>
</radialGradient>
<radialGradient id="paint1_radial_1862_2256" cx="0" cy="0" r="1" gradientUnits="userSpaceOnUse" gradientTransform="translate(1145.52 2305.22) rotate(89.48) scale(936.988 899.455)">
<stop offset="0.14" stop-color="#616161"/>
<stop offset="0.49" stop-color="#373737"/>
<stop offset="1"/>
</radialGradient>
<radialGradient id="paint2_radial_1862_2256" cx="0" cy="0" r="1" gradientUnits="userSpaceOnUse" gradientTransform="translate(455.9 3035.18) rotate(89.48) scale(1834.5 1761.02)">
<stop offset="0.14" stop-color="#878787"/>
<stop offset="0.62" stop-color="#383838"/>
<stop offset="1"/>
</radialGradient>
<radialGradient id="paint3_radial_1862_2256" cx="0" cy="0" r="1" gradientUnits="userSpaceOnUse" gradientTransform="translate(-99.8644 1855.19) rotate(89.48) scale(1834.5 1761.02)">
<stop offset="0.14" stop-color="#828282"/>
<stop offset="0.61" stop-color="#383838"/>
<stop offset="1"/>
</radialGradient>
<radialGradient id="paint4_radial_1862_2256" cx="0" cy="0" r="1" gradientUnits="userSpaceOnUse" gradientTransform="translate(-99.7793 1822.49) rotate(89.48) scale(936.988 899.455)">
<stop offset="0.14" stop-color="#828282"/>
<stop offset="0.61" stop-color="#383838"/>
<stop offset="1"/>
</radialGradient>
<radialGradient id="paint5_radial_1862_2256" cx="0" cy="0" r="1" gradientUnits="userSpaceOnUse" gradientTransform="translate(528.669 3419.7) rotate(89.48) scale(1834.5 1761.02)">
<stop offset="0.14" stop-color="#444444"/>
<stop offset="0.28" stop-color="#383838"/>
<stop offset="1"/>
</radialGradient>
<radialGradient id="paint6_radial_1862_2256" cx="0" cy="0" r="1" gradientUnits="userSpaceOnUse" gradientTransform="translate(1345.28 2301.01) rotate(89.48) scale(1834.5 1761.02)">
<stop offset="0.14" stop-color="#202020"/>
<stop offset="1"/>
</radialGradient>
<radialGradient id="paint7_radial_1862_2256" cx="0" cy="0" r="1" gradientUnits="userSpaceOnUse" gradientTransform="translate(1345.75 2268.31) rotate(89.48) scale(936.988 899.455)">
<stop offset="0.14" stop-color="#202020"/>
<stop offset="1"/>
</radialGradient>
<radialGradient id="paint8_radial_1862_2256" cx="0" cy="0" r="1" gradientUnits="userSpaceOnUse" gradientTransform="translate(-189.373 1903.85) rotate(89.48) scale(1834.5 1761.02)">
<stop offset="0.14" stop-color="#2E2E2E"/>
<stop offset="1"/>
</radialGradient>
<radialGradient id="paint9_radial_1862_2256" cx="0" cy="0" r="1" gradientUnits="userSpaceOnUse" gradientTransform="translate(-188.902 1871.14) rotate(89.48) scale(936.988 899.455)">
<stop offset="0.14" stop-color="#2E2E2E"/>
<stop offset="1"/>
</radialGradient>
</defs>
</svg>
