<svg width="1440" height="799" viewBox="0 0 1440 799" fill="none" xmlns="http://www.w3.org/2000/svg">
<path d="M54.7806 30.7329V-1.41196L26.8903 -17.4844L-1 -1.41196V30.7329L26.8903 46.8006L54.7806 30.7329Z" fill="#181818"/>
<path d="M116.763 30.7329V-1.41196L88.8724 -17.4844L60.9821 -1.41196V30.7329L88.8724 46.8006L116.763 30.7329Z" fill="#181818"/>
<path d="M178.744 30.7329V-1.41196L150.854 -17.4844L122.963 -1.41196V30.7329L150.854 46.8006L178.744 30.7329Z" fill="#181818"/>
<path d="M240.726 30.7329V-1.41196L212.836 -17.4844L184.945 -1.41196V30.7329L212.836 46.8006L240.726 30.7329Z" fill="#181818"/>
<path d="M302.707 30.7329V-1.41196L274.817 -17.4844L246.922 -1.41196V30.7329L274.817 46.8006L302.707 30.7329Z" fill="#181818"/>
<path d="M364.689 30.7329V-1.41196L336.798 -17.4844L308.903 -1.41196V30.7329L336.798 46.8006L364.689 30.7329Z" fill="#181818"/>
<path d="M426.671 30.7329V-1.41196L398.776 -17.4844L370.885 -1.41196V30.7329L398.776 46.8006L426.671 30.7329Z" fill="#181818"/>
<path d="M488.648 30.7329V-1.41196L460.757 -17.4844L432.867 -1.41196V30.7329L460.757 46.8006L488.648 30.7329Z" fill="#181818"/>
<path d="M550.629 30.7329V-1.41196L522.739 -17.4844L494.849 -1.41196V30.7329L522.739 46.8006L550.629 30.7329Z" fill="#181818"/>
<path d="M612.611 30.7329V-1.41196L584.721 -17.4844L556.83 -1.41196V30.7329L584.721 46.8006L612.611 30.7329Z" fill="#181818"/>
<path d="M674.592 30.7329V-1.41196L646.702 -17.4844L618.812 -1.41196V30.7329L646.702 46.8006L674.592 30.7329Z" fill="#181818"/>
<path d="M736.574 30.7329V-1.41196L708.684 -17.4844L680.788 -1.41196V30.7329L708.684 46.8006L736.574 30.7329Z" fill="#181818"/>
<path d="M798.555 30.7329V-1.41196L770.665 -17.4844L742.77 -1.41196V30.7329L770.665 46.8006L798.555 30.7329Z" fill="#181818"/>
<path d="M860.537 30.7329V-1.41196L832.642 -17.4844L804.752 -1.41196V30.7329L832.642 46.8006L860.537 30.7329Z" fill="#181818"/>
<path d="M922.515 30.7329V-1.41196L894.624 -17.4844L866.734 -1.41196V30.7329L894.624 46.8006L922.515 30.7329Z" fill="#181818"/>
<path d="M984.496 30.7329V-1.41196L956.605 -17.4844L928.715 -1.41196V30.7329L956.605 46.8006L984.496 30.7329Z" fill="#181818"/>
<path d="M1046.48 30.7329V-1.41196L1018.59 -17.4844L990.697 -1.41196V30.7329L1018.59 46.8006L1046.48 30.7329Z" fill="#181818"/>
<path d="M1108.46 30.7329V-1.41196L1080.57 -17.4844L1052.68 -1.41196V30.7329L1080.57 46.8006L1108.46 30.7329Z" fill="#181818"/>
<path d="M1170.44 30.7329V-1.41196L1142.55 -17.4844L1114.66 -1.41196V30.7329L1142.55 46.8006L1170.44 30.7329Z" fill="#181818"/>
<path d="M1232.42 30.7329V-1.41196L1204.53 -17.4844L1176.64 -1.41196V30.7329L1204.53 46.8006L1232.42 30.7329Z" fill="#181818"/>
<path d="M1294.4 30.7329V-1.41196L1266.51 -17.4844L1238.62 -1.41196V30.7329L1266.51 46.8006L1294.4 30.7329Z" fill="#181818"/>
<path d="M1356.38 30.7329V-1.41196L1328.49 -17.4844L1300.6 -1.41196V30.7329L1328.49 46.8006L1356.38 30.7329Z" fill="#181818"/>
<path d="M1418.36 30.7329V-1.41196L1390.47 -17.4844L1362.58 -1.41196V30.7329L1390.47 46.8006L1418.36 30.7329Z" fill="#181818"/>
<path d="M85.7715 84.3032V52.1583L57.8812 36.0859L29.9908 52.1583V84.3032L57.8812 100.376L85.7715 84.3032Z" fill="#181818"/>
<path d="M147.753 84.3032V52.1583L119.862 36.0859L91.9722 52.1583V84.3032L119.862 100.376L147.753 84.3032Z" fill="#181818"/>
<path d="M209.735 84.3032V52.1583L181.845 36.0859L153.954 52.1583V84.3032L181.845 100.376L209.735 84.3032Z" fill="#181818"/>
<path d="M271.716 84.3032V52.1583L243.826 36.0859L215.936 52.1583V84.3032L243.826 100.376L271.716 84.3032Z" fill="#181818"/>
<path d="M333.698 84.3032V52.1583L305.807 36.0859L277.912 52.1583V84.3032L305.807 100.376L333.698 84.3032Z" fill="#181818"/>
<path d="M395.68 84.3032V52.1583L367.785 36.0859L339.894 52.1583V84.3032L367.785 100.376L395.68 84.3032Z" fill="#181818"/>
<path d="M457.662 84.3032V52.1583L429.767 36.0859L401.876 52.1583V84.3032L429.767 100.376L457.662 84.3032Z" fill="#181818"/>
<path d="M519.638 84.3032V52.1583L491.748 36.0859L463.858 52.1583V84.3032L491.748 100.376L519.638 84.3032Z" fill="#181818"/>
<path d="M581.62 84.3032V52.1583L553.729 36.0859L525.839 52.1583V84.3032L553.729 100.376L581.62 84.3032Z" fill="#181818"/>
<path d="M643.601 84.3032V52.1583L615.711 36.0859L587.821 52.1583V84.3032L615.711 100.376L643.601 84.3032Z" fill="#181818"/>
<path d="M705.583 84.3032V52.1583L677.693 36.0859L649.798 52.1583V84.3032L677.693 100.376L705.583 84.3032Z" fill="#181818"/>
<path d="M767.565 84.3032V52.1583L739.675 36.0859L711.78 52.1583V84.3032L739.675 100.376L767.565 84.3032Z" fill="#181818"/>
<path d="M829.547 84.3032V52.1583L801.652 36.0859L773.761 52.1583V84.3032L801.652 100.376L829.547 84.3032Z" fill="#181818"/>
<path d="M891.528 84.3032V52.1583L863.633 36.0859L835.743 52.1583V84.3032L863.633 100.376L891.528 84.3032Z" fill="#181818"/>
<path d="M953.505 84.3032V52.1583L925.615 36.0859L897.724 52.1583V84.3032L925.615 100.376L953.505 84.3032Z" fill="#181818"/>
<path d="M1015.49 84.3032V52.1583L987.596 36.0859L959.706 52.1583V84.3032L987.596 100.376L1015.49 84.3032Z" fill="#181818"/>
<path d="M1077.47 84.3032V52.1583L1049.58 36.0859L1021.69 52.1583V84.3032L1049.58 100.376L1077.47 84.3032Z" fill="#181818"/>
<path d="M1139.45 84.3032V52.1583L1111.56 36.0859L1083.67 52.1583V84.3032L1111.56 100.376L1139.45 84.3032Z" fill="#181818"/>
<path d="M1201.43 84.3032V52.1583L1173.54 36.0859L1145.65 52.1583V84.3032L1173.54 100.376L1201.43 84.3032Z" fill="#181818"/>
<path d="M1263.41 84.3032V52.1583L1235.52 36.0859L1207.63 52.1583V84.3032L1235.52 100.376L1263.41 84.3032Z" fill="#181818"/>
<path d="M1325.39 84.3032V52.1583L1297.5 36.0859L1269.61 52.1583V84.3032L1297.5 100.376L1325.39 84.3032Z" fill="#181818"/>
<path d="M1387.37 84.3032V52.1583L1359.48 36.0859L1331.59 52.1583V84.3032L1359.48 100.376L1387.37 84.3032Z" fill="#181818"/>
<path d="M1421.46 100.375L1440 89.6929V46.767L1421.46 36.0898L1393.57 52.1575V84.3024L1421.46 100.375Z" fill="#181818"/>
<path d="M54.7806 137.877V105.733L26.8903 89.6602L-1 105.733V137.877L26.8903 153.95L54.7806 137.877Z" fill="#181818"/>
<path d="M116.763 137.877V105.733L88.8724 89.6602L60.9821 105.733V137.877L88.8724 153.95L116.763 137.877Z" fill="#181818"/>
<path d="M178.744 137.877V105.733L150.854 89.6602L122.963 105.733V137.877L150.854 153.95L178.744 137.877Z" fill="#181818"/>
<path d="M240.726 137.877V105.733L212.836 89.6602L184.945 105.733V137.877L212.836 153.95L240.726 137.877Z" fill="#181818"/>
<path d="M302.707 137.877V105.733L274.817 89.6602L246.922 105.733V137.877L274.817 153.95L302.707 137.877Z" fill="#181818"/>
<path d="M364.689 137.877V105.733L336.798 89.6602L308.903 105.733V137.877L336.798 153.95L364.689 137.877Z" fill="#181818"/>
<path d="M426.671 137.877V105.733L398.776 89.6602L370.885 105.733V137.877L398.776 153.95L426.671 137.877Z" fill="#181818"/>
<path d="M488.648 137.877V105.733L460.757 89.6602L432.867 105.733V137.877L460.757 153.95L488.648 137.877Z" fill="#181818"/>
<path d="M550.629 137.877V105.733L522.739 89.6602L494.849 105.733V137.877L522.739 153.95L550.629 137.877Z" fill="#181818"/>
<path d="M612.611 137.877V105.733L584.721 89.6602L556.83 105.733V137.877L584.721 153.95L612.611 137.877Z" fill="#181818"/>
<path d="M674.592 137.877V105.733L646.702 89.6602L618.812 105.733V137.877L646.702 153.95L674.592 137.877Z" fill="#181818"/>
<path d="M736.574 137.877V105.733L708.684 89.6602L680.788 105.733V137.877L708.684 153.95L736.574 137.877Z" fill="#181818"/>
<path d="M798.555 137.877V105.733L770.665 89.6602L742.77 105.733V137.877L770.665 153.95L798.555 137.877Z" fill="#181818"/>
<path d="M860.537 137.877V105.733L832.642 89.6602L804.752 105.733V137.877L832.642 153.95L860.537 137.877Z" fill="#181818"/>
<path d="M922.515 137.877V105.733L894.624 89.6602L866.734 105.733V137.877L894.624 153.95L922.515 137.877Z" fill="#181818"/>
<path d="M984.496 137.877V105.733L956.605 89.6602L928.715 105.733V137.877L956.605 153.95L984.496 137.877Z" fill="#181818"/>
<path d="M1046.48 137.877V105.733L1018.59 89.6602L990.697 105.733V137.877L1018.59 153.95L1046.48 137.877Z" fill="#181818"/>
<path d="M1108.46 137.877V105.733L1080.57 89.6602L1052.68 105.733V137.877L1080.57 153.95L1108.46 137.877Z" fill="#181818"/>
<path d="M1170.44 137.877V105.733L1142.55 89.6602L1114.66 105.733V137.877L1142.55 153.95L1170.44 137.877Z" fill="#181818"/>
<path d="M1232.42 137.877V105.733L1204.53 89.6602L1176.64 105.733V137.877L1204.53 153.95L1232.42 137.877Z" fill="#181818"/>
<path d="M1294.4 137.877V105.733L1266.51 89.6602L1238.62 105.733V137.877L1266.51 153.95L1294.4 137.877Z" fill="#181818"/>
<path d="M1356.38 137.877V105.733L1328.49 89.6602L1300.6 105.733V137.877L1328.49 153.95L1356.38 137.877Z" fill="#181818"/>
<path d="M1418.36 137.877V105.733L1390.47 89.6602L1362.58 105.733V137.877L1390.47 153.95L1418.36 137.877Z" fill="#181818"/>
<path d="M85.7715 191.449V159.309L57.8812 143.236L29.9908 159.309V191.449L57.8812 207.521L85.7715 191.449Z" fill="#181818"/>
<path d="M147.753 191.449V159.309L119.862 143.236L91.9722 159.309V191.449L119.862 207.521L147.753 191.449Z" fill="#181818"/>
<path d="M209.735 191.449V159.309L181.845 143.236L153.954 159.309V191.449L181.845 207.521L209.735 191.449Z" fill="#181818"/>
<path d="M271.716 191.449V159.309L243.826 143.236L215.936 159.309V191.449L243.826 207.521L271.716 191.449Z" fill="#181818"/>
<path d="M333.698 191.449V159.309L305.807 143.236L277.912 159.309V191.449L305.807 207.521L333.698 191.449Z" fill="#181818"/>
<path d="M395.68 191.449V159.309L367.785 143.236L339.894 159.309V191.449L367.785 207.521L395.68 191.449Z" fill="#181818"/>
<path d="M457.662 191.449V159.309L429.767 143.236L401.876 159.309V191.449L429.767 207.521L457.662 191.449Z" fill="#181818"/>
<path d="M519.638 191.449V159.309L491.748 143.236L463.858 159.309V191.449L491.748 207.521L519.638 191.449Z" fill="#181818"/>
<path d="M581.62 191.449V159.309L553.729 143.236L525.839 159.309V191.449L553.729 207.521L581.62 191.449Z" fill="#181818"/>
<path d="M643.601 191.449V159.309L615.711 143.236L587.821 159.309V191.449L615.711 207.521L643.601 191.449Z" fill="#181818"/>
<path d="M705.583 191.449V159.309L677.693 143.236L649.798 159.309V191.449L677.693 207.521L705.583 191.449Z" fill="#181818"/>
<path d="M767.565 191.449V159.309L739.675 143.236L711.78 159.309V191.449L739.675 207.521L767.565 191.449Z" fill="#181818"/>
<path d="M829.547 191.449V159.309L801.652 143.236L773.761 159.309V191.449L801.652 207.521L829.547 191.449Z" fill="#181818"/>
<path d="M891.528 191.449V159.309L863.633 143.236L835.743 159.309V191.449L863.633 207.521L891.528 191.449Z" fill="#181818"/>
<path d="M953.505 191.449V159.309L925.615 143.236L897.724 159.309V191.449L925.615 207.521L953.505 191.449Z" fill="#181818"/>
<path d="M1015.49 191.449V159.309L987.596 143.236L959.706 159.309V191.449L987.596 207.521L1015.49 191.449Z" fill="#181818"/>
<path d="M1077.47 191.449V159.309L1049.58 143.236L1021.69 159.309V191.449L1049.58 207.521L1077.47 191.449Z" fill="#181818"/>
<path d="M1139.45 191.449V159.309L1111.56 143.236L1083.67 159.309V191.449L1111.56 207.521L1139.45 191.449Z" fill="#181818"/>
<path d="M1201.43 191.449V159.309L1173.54 143.236L1145.65 159.309V191.449L1173.54 207.521L1201.43 191.449Z" fill="#181818"/>
<path d="M1263.41 191.449V159.309L1235.52 143.236L1207.63 159.309V191.449L1235.52 207.521L1263.41 191.449Z" fill="#181818"/>
<path d="M1325.39 191.449V159.309L1297.5 143.236L1269.61 159.309V191.449L1297.5 207.521L1325.39 191.449Z" fill="#181818"/>
<path d="M1387.37 191.449V159.309L1359.48 143.236L1331.59 159.309V191.449L1359.48 207.521L1387.37 191.449Z" fill="#181818"/>
<path d="M1421.46 207.521L1440 196.839V153.918L1421.46 143.236L1393.57 159.309V191.449L1421.46 207.521Z" fill="#181818"/>
<path d="M54.7806 245.022V212.877L26.8903 196.805L-1 212.877V245.022L26.8903 261.094L54.7806 245.022Z" fill="#181818"/>
<path d="M116.763 245.022V212.877L88.8724 196.805L60.9821 212.877V245.022L88.8724 261.094L116.763 245.022Z" fill="#181818"/>
<path d="M178.744 245.022V212.877L150.854 196.805L122.963 212.877V245.022L150.854 261.094L178.744 245.022Z" fill="#181818"/>
<path d="M240.726 245.022V212.877L212.836 196.805L184.945 212.877V245.022L212.836 261.094L240.726 245.022Z" fill="#181818"/>
<path d="M302.707 245.022V212.877L274.817 196.805L246.922 212.877V245.022L274.817 261.094L302.707 245.022Z" fill="#181818"/>
<path d="M364.689 245.022V212.877L336.798 196.805L308.903 212.877V245.022L336.798 261.094L364.689 245.022Z" fill="#181818"/>
<path d="M426.671 245.022V212.877L398.776 196.805L370.885 212.877V245.022L398.776 261.094L426.671 245.022Z" fill="#181818"/>
<path d="M488.648 245.022V212.877L460.757 196.805L432.867 212.877V245.022L460.757 261.094L488.648 245.022Z" fill="#181818"/>
<path d="M550.629 245.022V212.877L522.739 196.805L494.849 212.877V245.022L522.739 261.094L550.629 245.022Z" fill="#181818"/>
<path d="M612.611 245.022V212.877L584.721 196.805L556.83 212.877V245.022L584.721 261.094L612.611 245.022Z" fill="#181818"/>
<path d="M674.592 245.022V212.877L646.702 196.805L618.812 212.877V245.022L646.702 261.094L674.592 245.022Z" fill="#181818"/>
<path d="M736.574 245.022V212.877L708.684 196.805L680.788 212.877V245.022L708.684 261.094L736.574 245.022Z" fill="#181818"/>
<path d="M798.555 245.022V212.877L770.665 196.805L742.77 212.877V245.022L770.665 261.094L798.555 245.022Z" fill="#181818"/>
<path d="M860.537 245.022V212.877L832.642 196.805L804.752 212.877V245.022L832.642 261.094L860.537 245.022Z" fill="#181818"/>
<path d="M922.515 245.022V212.877L894.624 196.805L866.734 212.877V245.022L894.624 261.094L922.515 245.022Z" fill="#181818"/>
<path d="M984.496 245.022V212.877L956.605 196.805L928.715 212.877V245.022L956.605 261.094L984.496 245.022Z" fill="#181818"/>
<path d="M1046.48 245.022V212.877L1018.59 196.805L990.697 212.877V245.022L1018.59 261.094L1046.48 245.022Z" fill="#181818"/>
<path d="M1108.46 245.022V212.877L1080.57 196.805L1052.68 212.877V245.022L1080.57 261.094L1108.46 245.022Z" fill="#181818"/>
<path d="M1170.44 245.022V212.877L1142.55 196.805L1114.66 212.877V245.022L1142.55 261.094L1170.44 245.022Z" fill="#181818"/>
<path d="M1232.42 245.022V212.877L1204.53 196.805L1176.64 212.877V245.022L1204.53 261.094L1232.42 245.022Z" fill="#181818"/>
<path d="M1294.4 245.022V212.877L1266.51 196.805L1238.62 212.877V245.022L1266.51 261.094L1294.4 245.022Z" fill="#181818"/>
<path d="M1356.38 245.022V212.877L1328.49 196.805L1300.6 212.877V245.022L1328.49 261.094L1356.38 245.022Z" fill="#181818"/>
<path d="M1418.36 245.022V212.877L1390.47 196.805L1362.58 212.877V245.022L1390.47 261.094L1418.36 245.022Z" fill="#181818"/>
<path d="M85.7715 298.598V266.453L57.8812 250.381L29.9908 266.453V298.598L57.8812 314.666L85.7715 298.598Z" fill="#181818"/>
<path d="M147.753 298.598V266.453L119.862 250.381L91.9722 266.453V298.598L119.862 314.666L147.753 298.598Z" fill="#181818"/>
<path d="M209.735 298.598V266.453L181.845 250.381L153.954 266.453V298.598L181.845 314.666L209.735 298.598Z" fill="#181818"/>
<path d="M271.716 298.598V266.453L243.826 250.381L215.936 266.453V298.598L243.826 314.666L271.716 298.598Z" fill="#181818"/>
<path d="M333.698 298.598V266.453L305.807 250.381L277.912 266.453V298.598L305.807 314.666L333.698 298.598Z" fill="#181818"/>
<path d="M395.68 298.598V266.453L367.785 250.381L339.894 266.453V298.598L367.785 314.666L395.68 298.598Z" fill="#181818"/>
<path d="M457.662 298.598V266.453L429.767 250.381L401.876 266.453V298.598L429.767 314.666L457.662 298.598Z" fill="#181818"/>
<path d="M519.638 298.598V266.453L491.748 250.381L463.858 266.453V298.598L491.748 314.666L519.638 298.598Z" fill="#181818"/>
<path d="M581.62 298.598V266.453L553.729 250.381L525.839 266.453V298.598L553.729 314.666L581.62 298.598Z" fill="#181818"/>
<path d="M643.601 298.598V266.453L615.711 250.381L587.821 266.453V298.598L615.711 314.666L643.601 298.598Z" fill="#181818"/>
<path d="M705.583 298.598V266.453L677.693 250.381L649.798 266.453V298.598L677.693 314.666L705.583 298.598Z" fill="#181818"/>
<path d="M767.565 298.598V266.453L739.675 250.381L711.78 266.453V298.598L739.675 314.666L767.565 298.598Z" fill="#181818"/>
<path d="M829.547 298.598V266.453L801.652 250.381L773.761 266.453V298.598L801.652 314.666L829.547 298.598Z" fill="#181818"/>
<path d="M891.528 298.598V266.453L863.633 250.381L835.743 266.453V298.598L863.633 314.666L891.528 298.598Z" fill="#181818"/>
<path d="M953.505 298.598V266.453L925.615 250.381L897.724 266.453V298.598L925.615 314.666L953.505 298.598Z" fill="#181818"/>
<path d="M1015.49 298.598V266.453L987.596 250.381L959.706 266.453V298.598L987.596 314.666L1015.49 298.598Z" fill="#181818"/>
<path d="M1077.47 298.598V266.453L1049.58 250.381L1021.69 266.453V298.598L1049.58 314.666L1077.47 298.598Z" fill="#181818"/>
<path d="M1139.45 298.598V266.453L1111.56 250.381L1083.67 266.453V298.598L1111.56 314.666L1139.45 298.598Z" fill="#181818"/>
<path d="M1201.43 298.598V266.453L1173.54 250.381L1145.65 266.453V298.598L1173.54 314.666L1201.43 298.598Z" fill="#181818"/>
<path d="M1263.41 298.598V266.453L1235.52 250.381L1207.63 266.453V298.598L1235.52 314.666L1263.41 298.598Z" fill="#181818"/>
<path d="M1325.39 298.598V266.453L1297.5 250.381L1269.61 266.453V298.598L1297.5 314.666L1325.39 298.598Z" fill="#181818"/>
<path d="M1387.37 298.598V266.453L1359.48 250.381L1331.59 266.453V298.598L1359.48 314.666L1387.37 298.598Z" fill="#181818"/>
<path d="M1421.46 314.666L1440 303.989V261.063L1421.46 250.381L1393.57 266.453V298.598L1421.46 314.666Z" fill="#181818"/>
<path d="M54.7806 352.168V320.023L26.8903 303.955L-1 320.023V352.168L26.8903 368.24L54.7806 352.168Z" fill="#181818"/>
<path d="M116.763 352.168V320.023L88.8724 303.955L60.9821 320.023V352.168L88.8724 368.24L116.763 352.168Z" fill="#181818"/>
<path d="M178.744 352.168V320.023L150.854 303.955L122.963 320.023V352.168L150.854 368.24L178.744 352.168Z" fill="#181818"/>
<path d="M240.726 352.168V320.023L212.836 303.955L184.945 320.023V352.168L212.836 368.24L240.726 352.168Z" fill="#181818"/>
<path d="M302.707 352.168V320.023L274.817 303.955L246.922 320.023V352.168L274.817 368.24L302.707 352.168Z" fill="#181818"/>
<path d="M364.689 352.168V320.023L336.798 303.955L308.903 320.023V352.168L336.798 368.24L364.689 352.168Z" fill="#181818"/>
<path d="M426.671 352.168V320.023L398.776 303.955L370.885 320.023V352.168L398.776 368.24L426.671 352.168Z" fill="#181818"/>
<path d="M488.648 352.168V320.023L460.757 303.955L432.867 320.023V352.168L460.757 368.24L488.648 352.168Z" fill="#181818"/>
<path d="M550.629 352.168V320.023L522.739 303.955L494.849 320.023V352.168L522.739 368.24L550.629 352.168Z" fill="#181818"/>
<path d="M612.611 352.168V320.023L584.721 303.955L556.83 320.023V352.168L584.721 368.24L612.611 352.168Z" fill="#181818"/>
<path d="M674.592 352.168V320.023L646.702 303.955L618.812 320.023V352.168L646.702 368.24L674.592 352.168Z" fill="#181818"/>
<path d="M736.574 352.168V320.023L708.684 303.955L680.788 320.023V352.168L708.684 368.24L736.574 352.168Z" fill="#181818"/>
<path d="M798.555 352.168V320.023L770.665 303.955L742.77 320.023V352.168L770.665 368.24L798.555 352.168Z" fill="#181818"/>
<path d="M860.537 352.168V320.023L832.642 303.955L804.752 320.023V352.168L832.642 368.24L860.537 352.168Z" fill="#181818"/>
<path d="M922.515 352.168V320.023L894.624 303.955L866.734 320.023V352.168L894.624 368.24L922.515 352.168Z" fill="#181818"/>
<path d="M984.496 352.168V320.023L956.605 303.955L928.715 320.023V352.168L956.605 368.24L984.496 352.168Z" fill="#181818"/>
<path d="M1046.48 352.168V320.023L1018.59 303.955L990.697 320.023V352.168L1018.59 368.24L1046.48 352.168Z" fill="#181818"/>
<path d="M1108.46 352.168V320.023L1080.57 303.955L1052.68 320.023V352.168L1080.57 368.24L1108.46 352.168Z" fill="#181818"/>
<path d="M1170.44 352.168V320.023L1142.55 303.955L1114.66 320.023V352.168L1142.55 368.24L1170.44 352.168Z" fill="#181818"/>
<path d="M1232.42 352.168V320.023L1204.53 303.955L1176.64 320.023V352.168L1204.53 368.24L1232.42 352.168Z" fill="#181818"/>
<path d="M1294.4 352.168V320.023L1266.51 303.955L1238.62 320.023V352.168L1266.51 368.24L1294.4 352.168Z" fill="#181818"/>
<path d="M1356.38 352.168V320.023L1328.49 303.955L1300.6 320.023V352.168L1328.49 368.24L1356.38 352.168Z" fill="#181818"/>
<path d="M1418.36 352.168V320.023L1390.47 303.955L1362.58 320.023V352.168L1390.47 368.24L1418.36 352.168Z" fill="#181818"/>
<path d="M85.7715 405.743V373.598L57.8812 357.525L29.9908 373.598V405.743L57.8812 421.815L85.7715 405.743Z" fill="#181818"/>
<path d="M147.753 405.743V373.598L119.862 357.525L91.9722 373.598V405.743L119.862 421.815L147.753 405.743Z" fill="#181818"/>
<path d="M209.735 405.743V373.598L181.845 357.525L153.954 373.598V405.743L181.845 421.815L209.735 405.743Z" fill="#181818"/>
<path d="M271.716 405.743V373.598L243.826 357.525L215.936 373.598V405.743L243.826 421.815L271.716 405.743Z" fill="#181818"/>
<path d="M333.698 405.743V373.598L305.807 357.525L277.912 373.598V405.743L305.807 421.815L333.698 405.743Z" fill="#181818"/>
<path d="M395.68 405.743V373.598L367.785 357.525L339.894 373.598V405.743L367.785 421.815L395.68 405.743Z" fill="#181818"/>
<path d="M457.662 405.743V373.598L429.767 357.525L401.876 373.598V405.743L429.767 421.815L457.662 405.743Z" fill="#181818"/>
<path d="M519.638 405.743V373.598L491.748 357.525L463.858 373.598V405.743L491.748 421.815L519.638 405.743Z" fill="#181818"/>
<path d="M581.62 405.743V373.598L553.729 357.525L525.839 373.598V405.743L553.729 421.815L581.62 405.743Z" fill="#181818"/>
<path d="M643.601 405.743V373.598L615.711 357.525L587.821 373.598V405.743L615.711 421.815L643.601 405.743Z" fill="#181818"/>
<path d="M705.583 405.743V373.598L677.693 357.525L649.798 373.598V405.743L677.693 421.815L705.583 405.743Z" fill="#181818"/>
<path d="M767.565 405.743V373.598L739.675 357.525L711.78 373.598V405.743L739.675 421.815L767.565 405.743Z" fill="#181818"/>
<path d="M829.547 405.743V373.598L801.652 357.525L773.761 373.598V405.743L801.652 421.815L829.547 405.743Z" fill="#181818"/>
<path d="M891.528 405.743V373.598L863.633 357.525L835.743 373.598V405.743L863.633 421.815L891.528 405.743Z" fill="#181818"/>
<path d="M953.505 405.743V373.598L925.615 357.525L897.724 373.598V405.743L925.615 421.815L953.505 405.743Z" fill="#181818"/>
<path d="M1015.49 405.743V373.598L987.596 357.525L959.706 373.598V405.743L987.596 421.815L1015.49 405.743Z" fill="#181818"/>
<path d="M1077.47 405.743V373.598L1049.58 357.525L1021.69 373.598V405.743L1049.58 421.815L1077.47 405.743Z" fill="#181818"/>
<path d="M1139.45 405.743V373.598L1111.56 357.525L1083.67 373.598V405.743L1111.56 421.815L1139.45 405.743Z" fill="#181818"/>
<path d="M1201.43 405.743V373.598L1173.54 357.525L1145.65 373.598V405.743L1173.54 421.815L1201.43 405.743Z" fill="#181818"/>
<path d="M1263.41 405.743V373.598L1235.52 357.525L1207.63 373.598V405.743L1235.52 421.815L1263.41 405.743Z" fill="#181818"/>
<path d="M1325.39 405.743V373.598L1297.5 357.525L1269.61 373.598V405.743L1297.5 421.815L1325.39 405.743Z" fill="#181818"/>
<path d="M1387.37 405.743V373.598L1359.48 357.525L1331.59 373.598V405.743L1359.48 421.815L1387.37 405.743Z" fill="#181818"/>
<path d="M1421.46 421.815L1440 411.133V368.207L1421.46 357.525L1393.57 373.598V405.743L1421.46 421.815Z" fill="#181818"/>
<path d="M54.7806 459.314V427.174L26.8903 411.102L-1 427.174V459.314L26.8903 475.386L54.7806 459.314Z" fill="#181818"/>
<path d="M116.763 459.314V427.174L88.8724 411.102L60.9821 427.174V459.314L88.8724 475.386L116.763 459.314Z" fill="#181818"/>
<path d="M178.744 459.314V427.174L150.854 411.102L122.963 427.174V459.314L150.854 475.386L178.744 459.314Z" fill="#181818"/>
<path d="M240.726 459.314V427.174L212.836 411.102L184.945 427.174V459.314L212.836 475.386L240.726 459.314Z" fill="#181818"/>
<path d="M302.707 459.314V427.174L274.817 411.102L246.922 427.174V459.314L274.817 475.386L302.707 459.314Z" fill="#181818"/>
<path d="M364.689 459.314V427.174L336.798 411.102L308.903 427.174V459.314L336.798 475.386L364.689 459.314Z" fill="#181818"/>
<path d="M426.671 459.314V427.174L398.776 411.102L370.885 427.174V459.314L398.776 475.386L426.671 459.314Z" fill="#181818"/>
<path d="M488.648 459.314V427.174L460.757 411.102L432.867 427.174V459.314L460.757 475.386L488.648 459.314Z" fill="#181818"/>
<path d="M550.629 459.314V427.174L522.739 411.102L494.849 427.174V459.314L522.739 475.386L550.629 459.314Z" fill="#181818"/>
<path d="M612.611 459.314V427.174L584.721 411.102L556.83 427.174V459.314L584.721 475.386L612.611 459.314Z" fill="#181818"/>
<path d="M674.592 459.314V427.174L646.702 411.102L618.812 427.174V459.314L646.702 475.386L674.592 459.314Z" fill="#181818"/>
<path d="M736.574 459.314V427.174L708.684 411.102L680.788 427.174V459.314L708.684 475.386L736.574 459.314Z" fill="#181818"/>
<path d="M798.555 459.314V427.174L770.665 411.102L742.77 427.174V459.314L770.665 475.386L798.555 459.314Z" fill="#181818"/>
<path d="M860.537 459.314V427.174L832.642 411.102L804.752 427.174V459.314L832.642 475.386L860.537 459.314Z" fill="#181818"/>
<path d="M922.515 459.314V427.174L894.624 411.102L866.734 427.174V459.314L894.624 475.386L922.515 459.314Z" fill="#181818"/>
<path d="M984.496 459.314V427.174L956.605 411.102L928.715 427.174V459.314L956.605 475.386L984.496 459.314Z" fill="#181818"/>
<path d="M1046.48 459.314V427.174L1018.59 411.102L990.697 427.174V459.314L1018.59 475.386L1046.48 459.314Z" fill="#181818"/>
<path d="M1108.46 459.314V427.174L1080.57 411.102L1052.68 427.174V459.314L1080.57 475.386L1108.46 459.314Z" fill="#181818"/>
<path d="M1170.44 459.314V427.174L1142.55 411.102L1114.66 427.174V459.314L1142.55 475.386L1170.44 459.314Z" fill="#181818"/>
<path d="M1232.42 459.314V427.174L1204.53 411.102L1176.64 427.174V459.314L1204.53 475.386L1232.42 459.314Z" fill="#181818"/>
<path d="M1294.4 459.314V427.174L1266.51 411.102L1238.62 427.174V459.314L1266.51 475.386L1294.4 459.314Z" fill="#181818"/>
<path d="M1356.38 459.314V427.174L1328.49 411.102L1300.6 427.174V459.314L1328.49 475.386L1356.38 459.314Z" fill="#181818"/>
<path d="M1418.36 459.314V427.174L1390.47 411.102L1362.58 427.174V459.314L1390.47 475.386L1418.36 459.314Z" fill="#181818"/>
<path d="M85.7715 512.887V480.742L57.8812 464.67L29.9908 480.742V512.887L57.8812 528.96L85.7715 512.887Z" fill="#181818"/>
<path d="M147.753 512.887V480.742L119.862 464.67L91.9722 480.742V512.887L119.862 528.96L147.753 512.887Z" fill="#181818"/>
<path d="M209.735 512.887V480.742L181.845 464.67L153.954 480.742V512.887L181.845 528.96L209.735 512.887Z" fill="#181818"/>
<path d="M271.716 512.887V480.742L243.826 464.67L215.936 480.742V512.887L243.826 528.96L271.716 512.887Z" fill="#181818"/>
<path d="M333.698 512.887V480.742L305.807 464.67L277.912 480.742V512.887L305.807 528.96L333.698 512.887Z" fill="#181818"/>
<path d="M395.68 512.887V480.742L367.785 464.67L339.894 480.742V512.887L367.785 528.96L395.68 512.887Z" fill="#181818"/>
<path d="M457.662 512.887V480.742L429.767 464.67L401.876 480.742V512.887L429.767 528.96L457.662 512.887Z" fill="#181818"/>
<path d="M519.638 512.887V480.742L491.748 464.67L463.858 480.742V512.887L491.748 528.96L519.638 512.887Z" fill="#181818"/>
<path d="M581.62 512.887V480.742L553.729 464.67L525.839 480.742V512.887L553.729 528.96L581.62 512.887Z" fill="#181818"/>
<path d="M643.601 512.887V480.742L615.711 464.67L587.821 480.742V512.887L615.711 528.96L643.601 512.887Z" fill="#181818"/>
<path d="M705.583 512.887V480.742L677.693 464.67L649.798 480.742V512.887L677.693 528.96L705.583 512.887Z" fill="#181818"/>
<path d="M767.565 512.887V480.742L739.675 464.67L711.78 480.742V512.887L739.675 528.96L767.565 512.887Z" fill="#181818"/>
<path d="M829.547 512.887V480.742L801.652 464.67L773.761 480.742V512.887L801.652 528.96L829.547 512.887Z" fill="#181818"/>
<path d="M891.528 512.887V480.742L863.633 464.67L835.743 480.742V512.887L863.633 528.96L891.528 512.887Z" fill="#181818"/>
<path d="M953.505 512.887V480.742L925.615 464.67L897.724 480.742V512.887L925.615 528.96L953.505 512.887Z" fill="#181818"/>
<path d="M1015.49 512.887V480.742L987.596 464.67L959.706 480.742V512.887L987.596 528.96L1015.49 512.887Z" fill="#181818"/>
<path d="M1077.47 512.887V480.742L1049.58 464.67L1021.69 480.742V512.887L1049.58 528.96L1077.47 512.887Z" fill="#181818"/>
<path d="M1139.45 512.887V480.742L1111.56 464.67L1083.67 480.742V512.887L1111.56 528.96L1139.45 512.887Z" fill="#181818"/>
<path d="M1201.43 512.887V480.742L1173.54 464.67L1145.65 480.742V512.887L1173.54 528.96L1201.43 512.887Z" fill="#181818"/>
<path d="M1263.41 512.887V480.742L1235.52 464.67L1207.63 480.742V512.887L1235.52 528.96L1263.41 512.887Z" fill="#181818"/>
<path d="M1325.39 512.887V480.742L1297.5 464.67L1269.61 480.742V512.887L1297.5 528.96L1325.39 512.887Z" fill="#181818"/>
<path d="M1387.37 512.887V480.742L1359.48 464.67L1331.59 480.742V512.887L1359.48 528.96L1387.37 512.887Z" fill="#181818"/>
<path d="M1421.46 528.96L1440 518.278V475.352L1421.46 464.67L1393.57 480.742V512.887L1421.46 528.96Z" fill="#181818"/>
<path d="M54.7806 566.461V534.317L26.8903 518.244L-1 534.317V566.461L26.8903 582.534L54.7806 566.461Z" fill="#181818"/>
<path d="M116.763 566.461V534.317L88.8724 518.244L60.9821 534.317V566.461L88.8724 582.534L116.763 566.461Z" fill="#181818"/>
<path d="M178.744 566.461V534.317L150.854 518.244L122.963 534.317V566.461L150.854 582.534L178.744 566.461Z" fill="#181818"/>
<path d="M240.726 566.461V534.317L212.836 518.244L184.945 534.317V566.461L212.836 582.534L240.726 566.461Z" fill="#181818"/>
<path d="M302.707 566.461V534.317L274.817 518.244L246.922 534.317V566.461L274.817 582.534L302.707 566.461Z" fill="#181818"/>
<path d="M364.689 566.461V534.317L336.798 518.244L308.903 534.317V566.461L336.798 582.534L364.689 566.461Z" fill="#181818"/>
<path d="M426.671 566.461V534.317L398.776 518.244L370.885 534.317V566.461L398.776 582.534L426.671 566.461Z" fill="#181818"/>
<path d="M488.648 566.461V534.317L460.757 518.244L432.867 534.317V566.461L460.757 582.534L488.648 566.461Z" fill="#181818"/>
<path d="M550.629 566.461V534.317L522.739 518.244L494.849 534.317V566.461L522.739 582.534L550.629 566.461Z" fill="#181818"/>
<path d="M612.611 566.461V534.317L584.721 518.244L556.83 534.317V566.461L584.721 582.534L612.611 566.461Z" fill="#181818"/>
<path d="M674.592 566.461V534.317L646.702 518.244L618.812 534.317V566.461L646.702 582.534L674.592 566.461Z" fill="#181818"/>
<path d="M736.574 566.461V534.317L708.684 518.244L680.788 534.317V566.461L708.684 582.534L736.574 566.461Z" fill="#181818"/>
<path d="M798.555 566.461V534.317L770.665 518.244L742.77 534.317V566.461L770.665 582.534L798.555 566.461Z" fill="#181818"/>
<path d="M860.537 566.461V534.317L832.642 518.244L804.752 534.317V566.461L832.642 582.534L860.537 566.461Z" fill="#181818"/>
<path d="M922.515 566.461V534.317L894.624 518.244L866.734 534.317V566.461L894.624 582.534L922.515 566.461Z" fill="#181818"/>
<path d="M984.496 566.461V534.317L956.605 518.244L928.715 534.317V566.461L956.605 582.534L984.496 566.461Z" fill="#181818"/>
<path d="M1046.48 566.461V534.317L1018.59 518.244L990.697 534.317V566.461L1018.59 582.534L1046.48 566.461Z" fill="#181818"/>
<path d="M1108.46 566.461V534.317L1080.57 518.244L1052.68 534.317V566.461L1080.57 582.534L1108.46 566.461Z" fill="#181818"/>
<path d="M1170.44 566.461V534.317L1142.55 518.244L1114.66 534.317V566.461L1142.55 582.534L1170.44 566.461Z" fill="#181818"/>
<path d="M1232.42 566.461V534.317L1204.53 518.244L1176.64 534.317V566.461L1204.53 582.534L1232.42 566.461Z" fill="#181818"/>
<path d="M1294.4 566.461V534.317L1266.51 518.244L1238.62 534.317V566.461L1266.51 582.534L1294.4 566.461Z" fill="#181818"/>
<path d="M1356.38 566.461V534.317L1328.49 518.244L1300.6 534.317V566.461L1328.49 582.534L1356.38 566.461Z" fill="#181818"/>
<path d="M1418.36 566.461V534.317L1390.47 518.244L1362.58 534.317V566.461L1390.47 582.534L1418.36 566.461Z" fill="#181818"/>
<path d="M85.7715 620.033V587.888L57.8812 571.82L29.9908 587.888V620.033L57.8812 636.105L85.7715 620.033Z" fill="#181818"/>
<path d="M147.753 620.033V587.888L119.862 571.82L91.9722 587.888V620.033L119.862 636.105L147.753 620.033Z" fill="#181818"/>
<path d="M209.735 620.033V587.888L181.845 571.82L153.954 587.888V620.033L181.845 636.105L209.735 620.033Z" fill="#181818"/>
<path d="M271.716 620.033V587.888L243.826 571.82L215.936 587.888V620.033L243.826 636.105L271.716 620.033Z" fill="#181818"/>
<path d="M333.698 620.033V587.888L305.807 571.82L277.912 587.888V620.033L305.807 636.105L333.698 620.033Z" fill="#181818"/>
<path d="M395.68 620.033V587.888L367.785 571.82L339.894 587.888V620.033L367.785 636.105L395.68 620.033Z" fill="#181818"/>
<path d="M457.662 620.033V587.888L429.767 571.82L401.876 587.888V620.033L429.767 636.105L457.662 620.033Z" fill="#181818"/>
<path d="M519.638 620.033V587.888L491.748 571.82L463.858 587.888V620.033L491.748 636.105L519.638 620.033Z" fill="#181818"/>
<path d="M581.62 620.033V587.888L553.729 571.82L525.839 587.888V620.033L553.729 636.105L581.62 620.033Z" fill="#181818"/>
<path d="M643.601 620.033V587.888L615.711 571.82L587.821 587.888V620.033L615.711 636.105L643.601 620.033Z" fill="#181818"/>
<path d="M705.583 620.033V587.888L677.693 571.82L649.798 587.888V620.033L677.693 636.105L705.583 620.033Z" fill="#181818"/>
<path d="M767.565 620.033V587.888L739.675 571.82L711.78 587.888V620.033L739.675 636.105L767.565 620.033Z" fill="#181818"/>
<path d="M829.547 620.033V587.888L801.652 571.82L773.761 587.888V620.033L801.652 636.105L829.547 620.033Z" fill="#181818"/>
<path d="M891.528 620.033V587.888L863.633 571.82L835.743 587.888V620.033L863.633 636.105L891.528 620.033Z" fill="#181818"/>
<path d="M953.505 620.033V587.888L925.615 571.82L897.724 587.888V620.033L925.615 636.105L953.505 620.033Z" fill="#181818"/>
<path d="M1015.49 620.033V587.888L987.596 571.82L959.706 587.888V620.033L987.596 636.105L1015.49 620.033Z" fill="#181818"/>
<path d="M1077.47 620.033V587.888L1049.58 571.82L1021.69 587.888V620.033L1049.58 636.105L1077.47 620.033Z" fill="#181818"/>
<path d="M1139.45 620.033V587.888L1111.56 571.82L1083.67 587.888V620.033L1111.56 636.105L1139.45 620.033Z" fill="#181818"/>
<path d="M1201.43 620.033V587.888L1173.54 571.82L1145.65 587.888V620.033L1173.54 636.105L1201.43 620.033Z" fill="#181818"/>
<path d="M1263.41 620.033V587.888L1235.52 571.82L1207.63 587.888V620.033L1235.52 636.105L1263.41 620.033Z" fill="#181818"/>
<path d="M1325.39 620.033V587.888L1297.5 571.82L1269.61 587.888V620.033L1297.5 636.105L1325.39 620.033Z" fill="#181818"/>
<path d="M1387.37 620.033V587.888L1359.48 571.82L1331.59 587.888V620.033L1359.48 636.105L1387.37 620.033Z" fill="#181818"/>
<path d="M1421.46 636.105L1440 625.423V582.498L1421.46 571.82L1393.57 587.888V620.033L1421.46 636.105Z" fill="#181818"/>
<path d="M54.7806 673.608V641.463L26.8903 625.391L-1 641.463V673.608L26.8903 689.68L54.7806 673.608Z" fill="#181818"/>
<path d="M116.763 673.608V641.463L88.8724 625.391L60.9821 641.463V673.608L88.8724 689.68L116.763 673.608Z" fill="#181818"/>
<path d="M178.744 673.608V641.463L150.854 625.391L122.963 641.463V673.608L150.854 689.68L178.744 673.608Z" fill="#181818"/>
<path d="M240.726 673.608V641.463L212.836 625.391L184.945 641.463V673.608L212.836 689.68L240.726 673.608Z" fill="#181818"/>
<path d="M302.707 673.608V641.463L274.817 625.391L246.922 641.463V673.608L274.817 689.68L302.707 673.608Z" fill="#181818"/>
<path d="M364.689 673.608V641.463L336.798 625.391L308.903 641.463V673.608L336.798 689.68L364.689 673.608Z" fill="#181818"/>
<path d="M426.671 673.608V641.463L398.776 625.391L370.885 641.463V673.608L398.776 689.68L426.671 673.608Z" fill="#181818"/>
<path d="M488.648 673.608V641.463L460.757 625.391L432.867 641.463V673.608L460.757 689.68L488.648 673.608Z" fill="#181818"/>
<path d="M550.629 673.608V641.463L522.739 625.391L494.849 641.463V673.608L522.739 689.68L550.629 673.608Z" fill="#181818"/>
<path d="M612.611 673.608V641.463L584.721 625.391L556.83 641.463V673.608L584.721 689.68L612.611 673.608Z" fill="#181818"/>
<path d="M674.592 673.608V641.463L646.702 625.391L618.812 641.463V673.608L646.702 689.68L674.592 673.608Z" fill="#181818"/>
<path d="M736.574 673.608V641.463L708.684 625.391L680.788 641.463V673.608L708.684 689.68L736.574 673.608Z" fill="#181818"/>
<path d="M798.555 673.608V641.463L770.665 625.391L742.77 641.463V673.608L770.665 689.68L798.555 673.608Z" fill="#181818"/>
<path d="M860.537 673.608V641.463L832.642 625.391L804.752 641.463V673.608L832.642 689.68L860.537 673.608Z" fill="#181818"/>
<path d="M922.515 673.608V641.463L894.624 625.391L866.734 641.463V673.608L894.624 689.68L922.515 673.608Z" fill="#181818"/>
<path d="M984.496 673.608V641.463L956.605 625.391L928.715 641.463V673.608L956.605 689.68L984.496 673.608Z" fill="#181818"/>
<path d="M1046.48 673.608V641.463L1018.59 625.391L990.697 641.463V673.608L1018.59 689.68L1046.48 673.608Z" fill="#181818"/>
<path d="M1108.46 673.608V641.463L1080.57 625.391L1052.68 641.463V673.608L1080.57 689.68L1108.46 673.608Z" fill="#181818"/>
<path d="M1170.44 673.608V641.463L1142.55 625.391L1114.66 641.463V673.608L1142.55 689.68L1170.44 673.608Z" fill="#181818"/>
<path d="M1232.42 673.608V641.463L1204.53 625.391L1176.64 641.463V673.608L1204.53 689.68L1232.42 673.608Z" fill="#181818"/>
<path d="M1294.4 673.608V641.463L1266.51 625.391L1238.62 641.463V673.608L1266.51 689.68L1294.4 673.608Z" fill="#181818"/>
<path d="M1356.38 673.608V641.463L1328.49 625.391L1300.6 641.463V673.608L1328.49 689.68L1356.38 673.608Z" fill="#181818"/>
<path d="M1418.36 673.608V641.463L1390.47 625.391L1362.58 641.463V673.608L1390.47 689.68L1418.36 673.608Z" fill="#181818"/>
<path d="M85.7715 727.182V695.037L57.8812 678.965L29.9908 695.037V727.182L57.8812 743.25L85.7715 727.182Z" fill="#181818"/>
<path d="M147.753 727.182V695.037L119.862 678.965L91.9722 695.037V727.182L119.862 743.25L147.753 727.182Z" fill="#181818"/>
<path d="M209.735 727.182V695.037L181.845 678.965L153.954 695.037V727.182L181.845 743.25L209.735 727.182Z" fill="#181818"/>
<path d="M271.716 727.182V695.037L243.826 678.965L215.936 695.037V727.182L243.826 743.25L271.716 727.182Z" fill="#181818"/>
<path d="M333.698 727.182V695.037L305.807 678.965L277.912 695.037V727.182L305.807 743.25L333.698 727.182Z" fill="#181818"/>
<path d="M395.68 727.182V695.037L367.785 678.965L339.894 695.037V727.182L367.785 743.25L395.68 727.182Z" fill="#181818"/>
<path d="M457.662 727.182V695.037L429.767 678.965L401.876 695.037V727.182L429.767 743.25L457.662 727.182Z" fill="#181818"/>
<path d="M519.638 727.182V695.037L491.748 678.965L463.858 695.037V727.182L491.748 743.25L519.638 727.182Z" fill="#181818"/>
<path d="M581.62 727.182V695.037L553.729 678.965L525.839 695.037V727.182L553.729 743.25L581.62 727.182Z" fill="#181818"/>
<path d="M643.601 727.182V695.037L615.711 678.965L587.821 695.037V727.182L615.711 743.25L643.601 727.182Z" fill="#181818"/>
<path d="M705.583 727.182V695.037L677.693 678.965L649.798 695.037V727.182L677.693 743.25L705.583 727.182Z" fill="#181818"/>
<path d="M767.565 727.182V695.037L739.675 678.965L711.78 695.037V727.182L739.675 743.25L767.565 727.182Z" fill="#181818"/>
<path d="M829.547 727.182V695.037L801.652 678.965L773.761 695.037V727.182L801.652 743.25L829.547 727.182Z" fill="#181818"/>
<path d="M891.528 727.182V695.037L863.633 678.965L835.743 695.037V727.182L863.633 743.25L891.528 727.182Z" fill="#181818"/>
<path d="M953.505 727.182V695.037L925.615 678.965L897.724 695.037V727.182L925.615 743.25L953.505 727.182Z" fill="#181818"/>
<path d="M1015.49 727.182V695.037L987.596 678.965L959.706 695.037V727.182L987.596 743.25L1015.49 727.182Z" fill="#181818"/>
<path d="M1077.47 727.182V695.037L1049.58 678.965L1021.69 695.037V727.182L1049.58 743.25L1077.47 727.182Z" fill="#181818"/>
<path d="M1139.45 727.182V695.037L1111.56 678.965L1083.67 695.037V727.182L1111.56 743.25L1139.45 727.182Z" fill="#181818"/>
<path d="M1201.43 727.182V695.037L1173.54 678.965L1145.65 695.037V727.182L1173.54 743.25L1201.43 727.182Z" fill="#181818"/>
<path d="M1263.41 727.182V695.037L1235.52 678.965L1207.63 695.037V727.182L1235.52 743.25L1263.41 727.182Z" fill="#181818"/>
<path d="M1325.39 727.182V695.037L1297.5 678.965L1269.61 695.037V727.182L1297.5 743.25L1325.39 727.182Z" fill="#181818"/>
<path d="M1387.37 727.182V695.037L1359.48 678.965L1331.59 695.037V727.182L1359.48 743.25L1387.37 727.182Z" fill="#181818"/>
<path d="M1421.46 743.25L1440 732.573V689.647L1421.46 678.965L1393.57 695.037V727.182L1421.46 743.25Z" fill="#181818"/>
<path d="M54.7806 780.752V748.608L26.8903 732.535L-1 748.608V780.752L26.8903 796.825L54.7806 780.752Z" fill="#181818"/>
<path d="M116.763 780.752V748.608L88.8724 732.535L60.9821 748.608V780.752L88.8724 796.825L116.763 780.752Z" fill="#181818"/>
<path d="M178.744 780.752V748.608L150.854 732.535L122.963 748.608V780.752L150.854 796.825L178.744 780.752Z" fill="#181818"/>
<path d="M240.726 780.752V748.608L212.836 732.535L184.945 748.608V780.752L212.836 796.825L240.726 780.752Z" fill="#181818"/>
<path d="M302.707 780.752V748.608L274.817 732.535L246.922 748.608V780.752L274.817 796.825L302.707 780.752Z" fill="#181818"/>
<path d="M364.689 780.752V748.608L336.798 732.535L308.903 748.608V780.752L336.798 796.825L364.689 780.752Z" fill="#181818"/>
<path d="M426.671 780.752V748.608L398.776 732.535L370.885 748.608V780.752L398.776 796.825L426.671 780.752Z" fill="#181818"/>
<path d="M488.648 780.752V748.608L460.757 732.535L432.867 748.608V780.752L460.757 796.825L488.648 780.752Z" fill="#181818"/>
<path d="M550.629 780.752V748.608L522.739 732.535L494.849 748.608V780.752L522.739 796.825L550.629 780.752Z" fill="#181818"/>
<path d="M612.611 780.752V748.608L584.721 732.535L556.83 748.608V780.752L584.721 796.825L612.611 780.752Z" fill="#181818"/>
<path d="M674.592 780.752V748.608L646.702 732.535L618.812 748.608V780.752L646.702 796.825L674.592 780.752Z" fill="#181818"/>
<path d="M736.574 780.752V748.608L708.684 732.535L680.788 748.608V780.752L708.684 796.825L736.574 780.752Z" fill="#181818"/>
<path d="M798.555 780.752V748.608L770.665 732.535L742.77 748.608V780.752L770.665 796.825L798.555 780.752Z" fill="#181818"/>
<path d="M860.537 780.752V748.608L832.642 732.535L804.752 748.608V780.752L832.642 796.825L860.537 780.752Z" fill="#181818"/>
<path d="M922.515 780.752V748.608L894.624 732.535L866.734 748.608V780.752L894.624 796.825L922.515 780.752Z" fill="#181818"/>
<path d="M984.496 780.752V748.608L956.605 732.535L928.715 748.608V780.752L956.605 796.825L984.496 780.752Z" fill="#181818"/>
<path d="M1046.48 780.752V748.608L1018.59 732.535L990.697 748.608V780.752L1018.59 796.825L1046.48 780.752Z" fill="#181818"/>
<path d="M1108.46 780.752V748.608L1080.57 732.535L1052.68 748.608V780.752L1080.57 796.825L1108.46 780.752Z" fill="#181818"/>
<path d="M1170.44 780.752V748.608L1142.55 732.535L1114.66 748.608V780.752L1142.55 796.825L1170.44 780.752Z" fill="#181818"/>
<path d="M1232.42 780.752V748.608L1204.53 732.535L1176.64 748.608V780.752L1204.53 796.825L1232.42 780.752Z" fill="#181818"/>
<path d="M1294.4 780.752V748.608L1266.51 732.535L1238.62 748.608V780.752L1266.51 796.825L1294.4 780.752Z" fill="#181818"/>
<path d="M1356.38 780.752V748.608L1328.49 732.535L1300.6 748.608V780.752L1328.49 796.825L1356.38 780.752Z" fill="#181818"/>
<path d="M1418.36 780.752V748.608L1390.47 732.535L1362.58 748.608V780.752L1390.47 796.825L1418.36 780.752Z" fill="#181818"/>
<path d="M85.7715 834.327V802.182L57.8812 786.109L29.9908 802.182V834.327L57.8812 850.399L85.7715 834.327Z" fill="#181818"/>
<path d="M147.753 834.327V802.182L119.862 786.109L91.9722 802.182V834.327L119.862 850.399L147.753 834.327Z" fill="#181818"/>
<path d="M209.735 834.327V802.182L181.845 786.109L153.954 802.182V834.327L181.845 850.399L209.735 834.327Z" fill="#181818"/>
<path d="M271.716 834.327V802.182L243.826 786.109L215.936 802.182V834.327L243.826 850.399L271.716 834.327Z" fill="#181818"/>
<path d="M333.698 834.327V802.182L305.807 786.109L277.912 802.182V834.327L305.807 850.399L333.698 834.327Z" fill="#181818"/>
<path d="M395.68 834.327V802.182L367.785 786.109L339.894 802.182V834.327L367.785 850.399L395.68 834.327Z" fill="#181818"/>
<path d="M457.662 834.327V802.182L429.767 786.109L401.876 802.182V834.327L429.767 850.399L457.662 834.327Z" fill="#181818"/>
<path d="M519.638 834.327V802.182L491.748 786.109L463.858 802.182V834.327L491.748 850.399L519.638 834.327Z" fill="#181818"/>
<path d="M581.62 834.327V802.182L553.729 786.109L525.839 802.182V834.327L553.729 850.399L581.62 834.327Z" fill="#181818"/>
<path d="M643.601 834.327V802.182L615.711 786.109L587.821 802.182V834.327L615.711 850.399L643.601 834.327Z" fill="#181818"/>
<path d="M705.583 834.327V802.182L677.693 786.109L649.798 802.182V834.327L677.693 850.399L705.583 834.327Z" fill="#181818"/>
<path d="M767.565 834.327V802.182L739.675 786.109L711.78 802.182V834.327L739.675 850.399L767.565 834.327Z" fill="#181818"/>
<path d="M829.547 834.327V802.182L801.652 786.109L773.761 802.182V834.327L801.652 850.399L829.547 834.327Z" fill="#181818"/>
<path d="M891.528 834.327V802.182L863.633 786.109L835.743 802.182V834.327L863.633 850.399L891.528 834.327Z" fill="#181818"/>
<path d="M953.505 834.327V802.182L925.615 786.109L897.724 802.182V834.327L925.615 850.399L953.505 834.327Z" fill="#181818"/>
<path d="M1015.49 834.327V802.182L987.596 786.109L959.706 802.182V834.327L987.596 850.399L1015.49 834.327Z" fill="#181818"/>
<path d="M1077.47 834.327V802.182L1049.58 786.109L1021.69 802.182V834.327L1049.58 850.399L1077.47 834.327Z" fill="#181818"/>
<path d="M1139.45 834.327V802.182L1111.56 786.109L1083.67 802.182V834.327L1111.56 850.399L1139.45 834.327Z" fill="#181818"/>
<path d="M1201.43 834.327V802.182L1173.54 786.109L1145.65 802.182V834.327L1173.54 850.399L1201.43 834.327Z" fill="#181818"/>
<path d="M1263.41 834.327V802.182L1235.52 786.109L1207.63 802.182V834.327L1235.52 850.399L1263.41 834.327Z" fill="#181818"/>
<path d="M1325.39 834.327V802.182L1297.5 786.109L1269.61 802.182V834.327L1297.5 850.399L1325.39 834.327Z" fill="#181818"/>
<path d="M1387.37 834.327V802.182L1359.48 786.109L1331.59 802.182V834.327L1359.48 850.399L1387.37 834.327Z" fill="#181818"/>
<path d="M1421.46 850.399L1440 839.717V796.791L1421.46 786.109L1393.57 802.182V834.327L1421.46 850.399Z" fill="#181818"/>
</svg>
