<svg width="197" height="228" viewBox="0 0 197 228" fill="none" xmlns="http://www.w3.org/2000/svg">
<path d="M59.9351 16.3585H102.936C103.797 16.3585 104.494 15.6607 104.494 14.8003C104.494 13.94 103.796 13.2422 102.936 13.2422H59.9351C59.0743 13.2422 58.377 13.94 58.377 14.8003C58.377 15.6607 59.0743 16.3585 59.9351 16.3585Z" fill="#F9B000"/>
<path d="M81.4347 183.393C76.1644 183.393 71.877 187.68 71.877 192.95C71.877 198.221 76.1649 202.508 81.4347 202.508C86.7045 202.508 90.9924 198.221 90.9924 192.95C90.9924 187.68 86.705 183.393 81.4347 183.393ZM81.4347 199.391C77.8829 199.391 74.9933 196.502 74.9933 192.95C74.9933 189.399 77.8829 186.509 81.4347 186.509C84.9865 186.509 87.8757 189.399 87.8757 192.95C87.8757 196.502 84.9865 199.391 81.4347 199.391Z" fill="#F9B000"/>
<path d="M178.992 42.355H136.165V14.9594C136.165 6.71086 129.801 0 121.976 0H40.8939C33.0698 0 26.7049 6.71086 26.7049 14.9594V28.4786C26.7049 28.48 26.7045 28.4813 26.7045 28.4831C26.7045 28.4844 26.7049 28.4858 26.7049 28.4875V111.67C25.9662 112.437 24.8257 113.844 22.8721 116.429C20.7667 119.215 17.5279 123.71 14.0554 129.299C8.18128 138.754 0.975678 152.488 0.00534251 164.226C0.00178001 164.269 0 164.311 0 164.354V215.453C0 222.371 5.62875 228 12.5471 228H50.6824C54.2337 228 57.6355 226.488 60.0148 223.852C62.3794 221.233 63.5296 217.722 63.1707 214.221C62.9783 212.347 62.651 210.485 62.207 208.64H121.976C129.8 208.64 136.165 201.931 136.165 193.686V149.755C136.165 149.669 136.153 149.585 136.139 149.503C137.774 147.235 138.777 145.083 139.388 143.274H178.991C188.685 143.274 196.571 135.387 196.571 125.693V59.9355C196.572 50.2415 188.686 42.355 178.992 42.355ZM77.1847 42.355C67.4907 42.355 59.6042 50.2415 59.6042 59.9355V125.693C59.6042 135.387 67.4907 143.274 77.1847 143.274H110.394C108.379 151.017 103 156.361 98.679 159.553C97.2745 160.59 96.7762 162.368 97.4388 163.978C98.0275 165.407 99.3608 166.285 100.862 166.285C101.05 166.285 101.24 166.272 101.432 166.244C114.109 164.391 123.974 160.657 130.752 155.147C131.592 154.465 132.35 153.776 133.05 153.087V178.155H58.954L66.3427 165.358C69.9671 159.08 67.8086 151.023 61.5302 147.398L59.8887 146.45C53.6098 142.825 45.5541 144.984 41.9293 151.262L36.3224 160.974C32.4891 147.811 30.3151 131.46 29.856 112.303C29.8538 112.205 29.8408 112.111 29.8208 112.018V30.0412H133.049V42.355H77.1847ZM40.8939 3.1163H121.976C128.082 3.1163 133.049 8.42887 133.049 14.9589V26.9245H29.8212V14.9589C29.8212 8.42932 34.7883 3.1163 40.8939 3.1163ZM57.7023 221.763C55.9125 223.746 53.3542 224.883 50.6832 224.883H12.5476C7.34766 224.883 3.11674 220.652 3.11674 215.452V164.419C4.57558 147.198 20.6598 124.323 26.8626 116.381C27.584 135.774 30.1178 152.225 34.4057 165.328C34.5972 165.912 35.1138 166.33 35.7256 166.393C36.3362 166.457 36.9289 166.155 37.2366 165.622L44.6283 152.819C47.3937 148.029 53.5399 146.381 58.3306 149.148L59.972 150.096C64.7618 152.861 66.409 159.008 63.6436 163.798L49.2021 188.811C48.8722 189.383 48.9381 190.1 49.3669 190.602C53.8325 195.829 56.9408 201.455 58.6695 207.395C58.6695 207.395 58.6699 207.396 58.6699 207.396C59.3495 209.73 59.8224 212.111 60.0713 214.538C60.3443 217.203 59.5031 219.769 57.7023 221.763ZM121.976 205.524H61.3351C59.5169 199.846 56.5208 194.395 52.4458 189.427L57.1545 181.271H133.049V193.686C133.049 200.213 128.082 205.524 121.976 205.524ZM193.456 125.693C193.456 133.668 186.967 140.157 178.992 140.157H138.236C137.533 140.157 136.918 140.627 136.733 141.304C135.308 146.512 128.973 159.067 100.98 163.159C100.585 163.218 100.402 162.991 100.32 162.791C100.251 162.625 100.189 162.311 100.53 162.059C105.639 158.286 112.099 151.742 113.865 141.993C113.947 141.539 113.823 141.071 113.528 140.716C113.231 140.362 112.793 140.157 112.331 140.157H77.1842C69.2087 140.157 62.72 133.668 62.72 125.693V59.9355C62.72 51.9599 69.2087 45.4713 77.1842 45.4713H178.992C186.967 45.4713 193.456 51.9599 193.456 59.9355V125.693Z" fill="#F9B000"/>
<path d="M144.724 130.482C137.198 130.482 125.454 126.671 109.361 110.604C109.36 110.603 109.359 110.602 109.358 110.602C109.268 110.53 109.187 110.448 109.115 110.359C109.114 110.358 109.113 110.357 109.113 110.356C79.1836 80.3795 91.7779 65.4815 92.3292 64.8616C92.3497 64.8389 92.3706 64.8167 92.3924 64.7948L99.8051 57.3822C100.844 56.3433 102.224 55.7715 103.692 55.7715C105.161 55.7715 106.541 56.3437 107.579 57.3822L115.936 65.7385C116.975 66.7774 117.547 68.1578 117.547 69.626C117.547 71.0942 116.975 72.4747 115.936 73.5136L109.066 80.3835C110.225 88.632 113.56 95.4689 118.978 100.701C118.99 100.714 119.003 100.727 119.016 100.74C124.247 106.156 131.082 109.49 139.333 110.65L146.204 103.781C148.347 101.638 151.835 101.637 153.979 103.781L162.335 112.137C163.374 113.176 163.946 114.557 163.946 116.025C163.946 117.493 163.374 118.874 162.335 119.913L154.922 127.325C154.901 127.347 154.879 127.367 154.856 127.388C154.569 127.644 151.217 130.482 144.724 130.482ZM111.544 108.378C126.144 122.96 136.652 126.687 142.898 127.243C149.212 127.805 152.403 125.37 152.764 125.074L160.131 117.708C161.059 116.78 161.059 115.269 160.131 114.341L151.775 105.984C150.846 105.056 149.336 105.057 148.407 105.984L141.485 112.906C140.834 113.558 139.897 113.873 138.987 113.749C129.999 112.502 122.534 108.86 116.792 102.924C110.857 97.1833 107.215 89.7177 105.968 80.7348C105.843 79.817 106.158 78.8828 106.81 78.2308L113.732 71.3093C114.182 70.8596 114.43 70.2615 114.43 69.626C114.43 68.9906 114.182 68.3925 113.732 67.9428L105.375 59.5865C105.375 59.5865 105.375 59.5865 105.375 59.5865C104.925 59.1367 104.328 58.8887 103.692 58.8887C103.057 58.8887 102.459 59.1367 102.009 59.5865L94.6395 66.9555C94.3763 67.2761 91.9084 70.469 92.4743 76.8196C93.0301 83.0656 96.7569 93.5736 111.338 108.173C111.371 108.2 111.397 108.229 111.441 108.275C111.488 108.319 111.518 108.346 111.544 108.378Z" fill="#F9B000"/>
<path d="M165.342 94.6696C164.542 94.6696 163.862 94.0582 163.791 93.2468C162.404 77.375 155.733 66.2783 143.966 60.2639C135.173 55.7689 126.734 55.9283 126.648 55.9332C125.802 55.9506 125.072 55.2755 125.049 54.4151C125.027 53.5544 125.707 52.8387 126.567 52.8169C126.944 52.8089 135.89 52.6348 145.385 57.4878C154.175 61.981 165.043 71.785 166.896 92.9752C166.971 93.8324 166.337 94.5886 165.479 94.6638C165.433 94.6678 165.387 94.6696 165.342 94.6696Z" fill="#F9B000"/>
<path d="M154.718 94.6691C153.919 94.6691 153.239 94.0577 153.168 93.2464C152.174 81.8842 147.411 73.9465 139.012 69.6532C132.724 66.4394 126.712 66.5525 126.649 66.5574C125.803 66.5739 125.073 65.9002 125.05 65.0394C125.028 64.1786 125.708 63.4634 126.568 63.4411C126.845 63.4358 133.445 63.3075 140.43 66.8776C146.906 70.1876 154.911 77.4017 156.273 92.9752C156.348 93.8324 155.713 94.5885 154.856 94.6638C154.81 94.6673 154.764 94.6691 154.718 94.6691Z" fill="#F9B000"/>
<path d="M144.113 96.7213C143.314 96.7213 142.633 96.1099 142.563 95.2985C140.92 76.5112 124.766 76.6404 124.083 76.6515C123.239 76.6684 122.51 75.9893 122.49 75.1299C122.47 74.2709 123.147 73.5575 124.006 73.5352C124.199 73.5365 143.766 73.2769 145.668 95.0269C145.743 95.8841 145.108 96.6403 144.251 96.7155C144.204 96.7191 144.159 96.7213 144.113 96.7213Z" fill="#F9B000"/>
</svg>
