<svg width="196" height="196" viewBox="0 0 196 196" fill="none" xmlns="http://www.w3.org/2000/svg">
<path d="M190.323 60.5132L169.851 46.487V9.80167C169.851 4.39155 165.46 0 160.049 0H35.9339C30.5238 0 26.1322 4.39155 26.1322 9.80167V46.487L5.69399 60.4965C2.12063 62.901 0 66.9085 0 71.2166V182.992C0.0333958 190.189 5.87766 196 13.0578 196H182.909C190.106 196 195.95 190.189 195.967 182.992V71.2166C195.967 66.9252 193.863 62.9177 190.306 60.5132H190.323ZM192.761 190.657L113.128 130.962L193.429 69.3965V187.801C193.429 188.787 193.195 189.772 192.761 190.673V190.657ZM190.106 65.8064L169.083 82.137V51.4128L190.106 65.8231V65.8064ZM34.8318 5.00937H162.955C164.825 5.00937 166.328 6.51218 166.328 8.38235V84.9923L111.008 127.939L108.987 126.403C103.009 121.895 94.7773 121.895 88.7995 126.403L86.779 127.939L31.4756 84.9923V8.38235C31.4756 6.51218 32.9784 5.00937 34.8485 5.00937H34.8318ZM4.65872 190.89C4.22457 189.972 3.9908 188.953 3.9908 187.935V65.5894L85.9274 129.208L4.65872 190.89ZM28.0024 50.628V80.1165L7.83132 64.4539L28.0024 50.628ZM7.91481 192.811C7.91481 192.811 7.84802 192.811 7.83132 192.811L92.473 128.557C96.1632 125.769 101.256 125.769 104.93 128.557L189.571 192.811C189.571 192.811 189.505 192.811 189.488 192.811H7.91481Z" fill="#F9B000"/>
<path d="M99.8211 99.3724C106.166 99.3724 112.411 97.7026 117.905 94.53C119.207 93.7285 119.608 92.0087 118.807 90.7062C118.038 89.4539 116.419 89.0197 115.116 89.721C100.472 98.1702 81.7539 93.1608 73.3048 78.5167C64.8557 63.8727 69.865 45.1543 84.5091 36.7052C99.1532 28.2561 117.872 33.2654 126.321 47.9095C129.009 52.5682 130.412 57.828 130.428 63.2048V67.3792C130.428 71.2198 127.306 74.3423 123.465 74.3423C119.625 74.3423 116.502 71.2198 116.502 67.3792V49.2954C116.502 47.7592 115.25 46.5069 113.714 46.5069C112.178 46.5069 110.925 47.7592 110.925 49.2954V50.7982C104.062 44.6367 93.5093 45.2044 87.3477 52.0673C81.1862 58.9301 81.7539 69.4832 88.6168 75.6447C95.4796 81.8062 106.033 81.2385 112.194 74.3757C112.378 74.1753 112.562 73.9582 112.729 73.7578C116.218 79.7023 123.866 81.6893 129.811 78.1828C133.634 75.9286 135.989 71.8209 135.972 67.3792V63.2048C135.972 43.2341 119.775 27.0371 99.8044 27.0371C79.8337 27.0371 63.6367 43.2341 63.6367 63.2048C63.6367 83.1755 79.8337 99.3724 99.8044 99.3724H99.8211ZM99.8545 76.2959C92.641 76.2959 86.7967 70.4517 86.7967 63.2382C86.7967 56.0247 92.641 50.1804 99.8545 50.1804C107.068 50.1804 112.912 56.0247 112.912 63.2382C112.912 70.4517 107.068 76.2959 99.8545 76.2959Z" fill="#F9B000"/>
</svg>
