<svg width="171" height="197" viewBox="0 0 171 197" fill="none" xmlns="http://www.w3.org/2000/svg">
<path fill-rule="evenodd" clip-rule="evenodd" d="M85.5163 196.131C84.3544 196.131 83.2706 195.531 82.6546 194.541C82.5064 194.299 67.4416 170.018 52.5795 142.001C32.4462 104.043 22.2393 77.5543 22.2393 63.277C22.2393 54.7387 23.9157 46.4499 27.2141 38.6446C30.4033 31.1122 34.9648 24.3439 40.774 18.5347C46.5832 12.7256 53.3514 8.16402 60.8839 4.97483C68.6892 1.67647 76.978 0 85.5163 0C94.0546 0 102.343 1.67647 110.149 4.97483C117.681 8.16402 124.449 12.7256 130.259 18.5347C136.068 24.3439 140.629 31.1122 143.818 38.6446C147.117 46.4499 148.793 54.7387 148.793 63.277C148.793 77.5543 138.579 104.043 118.445 142.009C103.583 170.025 88.5261 194.307 88.3702 194.549C87.762 195.531 86.6859 196.131 85.5163 196.131ZM85.5163 6.72927C54.3339 6.72927 28.9685 32.0947 28.9685 63.277C28.9685 76.2521 39.1833 102.374 58.5134 138.82C69.43 159.397 80.4557 177.948 85.5163 186.307C90.5769 177.948 101.603 159.397 112.519 138.82C131.849 102.374 142.064 76.2521 142.064 63.277C142.064 32.0947 116.699 6.72927 85.5163 6.72927Z" fill="#F9B000"/>
<path fill-rule="evenodd" clip-rule="evenodd" d="M85.5156 196.132C63.3238 196.132 42.4264 194.089 26.6598 190.377C18.8155 188.529 12.6008 186.354 8.18741 183.898C2.75253 180.88 0 177.356 0 173.433C0 170.08 2.01177 167.016 5.98071 164.318C9.15431 162.166 13.6691 160.185 19.4003 158.431C30.426 155.062 45.9665 152.583 63.1445 151.46C65.0003 151.335 66.6066 152.747 66.7235 154.602C66.8483 156.458 65.4369 158.064 63.5811 158.181C46.9022 159.273 31.9075 161.651 21.3653 164.879C16.2735 166.431 12.3747 168.123 9.75472 169.893C7.85212 171.18 6.72148 172.505 6.72148 173.433C6.72148 174.377 7.96129 176.077 11.4468 178.011C15.2598 180.131 21.0456 182.135 28.1881 183.82C43.4557 187.414 63.8073 189.395 85.5 189.395C107.193 189.395 127.544 187.414 142.812 183.82C149.954 182.143 155.74 180.131 159.553 178.011C163.039 176.069 164.279 174.377 164.279 173.433C164.279 172.505 163.148 171.18 161.245 169.885C158.672 168.139 154.656 166.4 149.635 164.872C139.085 161.651 124.098 159.273 107.419 158.174C105.563 158.049 104.16 156.45 104.276 154.595C104.401 152.739 106 151.335 107.856 151.452C125.034 152.583 140.574 155.055 151.6 158.423C157.331 160.178 161.854 162.158 165.019 164.31C168.988 167.008 171 170.073 171 173.426C171 177.348 168.247 180.872 162.813 183.89C158.407 186.346 152.192 188.522 144.34 190.37C128.613 194.089 107.707 196.132 85.5156 196.132Z" fill="#F9B000"/>
<path fill-rule="evenodd" clip-rule="evenodd" d="M85.5157 98.3107C79.956 98.3107 74.5679 97.219 69.484 95.0747C64.5793 93.0005 60.1737 90.0297 56.3919 86.2479C52.6101 82.4661 49.6392 78.0605 47.5651 73.1558C45.413 68.0796 44.3291 62.6837 44.3291 57.1241C44.3291 51.5644 45.4208 46.1763 47.5651 41.0924C49.6392 36.1877 52.6101 31.7821 56.3919 28.0003C60.1737 24.2185 64.5793 21.2476 69.484 19.1735C74.5602 17.0214 79.956 15.9375 85.5157 15.9375C91.0753 15.9375 96.4634 17.0292 101.547 19.1735C106.452 21.2476 110.858 24.2185 114.639 28.0003C118.421 31.7821 121.392 36.1877 123.466 41.0924C125.618 46.1685 126.702 51.5644 126.702 57.1241C126.702 62.6837 125.611 68.0718 123.466 73.1558C121.392 78.0605 118.421 82.4661 114.639 86.2479C110.858 90.0297 106.452 93.0005 101.547 95.0747C96.4712 97.219 91.0753 98.3107 85.5157 98.3107ZM85.5157 22.6824C66.5209 22.6824 51.074 38.1371 51.074 57.1241C51.074 76.1111 66.5287 91.5658 85.5157 91.5658C104.503 91.5658 119.957 76.1111 119.957 57.1241C119.957 38.1371 104.51 22.6824 85.5157 22.6824Z" fill="#F9B000"/>
<path fill-rule="evenodd" clip-rule="evenodd" d="M75.4952 49.7404C70.1851 49.7404 65.8574 45.4205 65.8574 40.1026C65.8574 34.7925 70.1773 30.4648 75.4952 30.4648C80.8053 30.4648 85.1329 34.7847 85.1329 40.1026C85.1329 45.4127 80.8131 49.7404 75.4952 49.7404ZM75.4952 37.2019C73.8967 37.2019 72.5945 38.5041 72.5945 40.1026C72.5945 41.7011 73.8967 43.0033 75.4952 43.0033C77.0937 43.0033 78.3959 41.7011 78.3959 40.1026C78.3959 38.5041 77.1015 37.2019 75.4952 37.2019Z" fill="#F9B000"/>
<path fill-rule="evenodd" clip-rule="evenodd" d="M75.4952 83.7931C70.1851 83.7931 65.8574 79.4733 65.8574 74.1553C65.8574 68.8452 70.1773 64.5176 75.4952 64.5176C80.8053 64.5176 85.1329 68.8374 85.1329 74.1553C85.1329 79.4733 80.8131 83.7931 75.4952 83.7931ZM75.4952 71.2624C73.8967 71.2624 72.5945 72.5646 72.5945 74.1631C72.5945 75.7616 73.8967 77.0638 75.4952 77.0638C77.0937 77.0638 78.3959 75.7616 78.3959 74.1631C78.3959 72.5646 77.1015 71.2624 75.4952 71.2624Z" fill="#F9B000"/>
<path fill-rule="evenodd" clip-rule="evenodd" d="M105.742 66.7638C100.432 66.7638 96.1045 62.444 96.1045 57.126C96.1045 51.8159 100.424 47.4883 105.742 47.4883C111.052 47.4883 115.38 51.8081 115.38 57.126C115.38 62.444 111.052 66.7638 105.742 66.7638ZM105.742 54.2332C104.144 54.2332 102.842 55.5353 102.842 57.1338C102.842 58.7323 104.144 60.0345 105.742 60.0345C107.341 60.0345 108.643 58.7323 108.643 57.1338C108.643 55.5353 107.341 54.2332 105.742 54.2332Z" fill="#F9B000"/>
<path fill-rule="evenodd" clip-rule="evenodd" d="M100.37 57.2633C99.7854 57.2633 99.185 57.1073 98.6469 56.7876L79.5586 45.4032C77.9601 44.4519 77.4376 42.3856 78.3889 40.7871C79.3402 39.1886 81.4066 38.6662 83.0051 39.6175L102.093 51.0019C103.692 51.9532 104.214 54.0195 103.263 55.618C102.639 56.6785 101.516 57.2633 100.37 57.2633Z" fill="#F9B000"/>
<path fill-rule="evenodd" clip-rule="evenodd" d="M81.2896 75.1285C80.1434 75.1285 79.0284 74.5437 78.3968 73.4832C77.4455 71.8847 77.9679 69.8184 79.5664 68.8671L98.6548 57.4827C100.253 56.5314 102.32 57.0538 103.271 58.6523C104.222 60.2508 103.7 62.3172 102.101 63.2685L83.0129 74.6529C82.4749 74.9726 81.8823 75.1285 81.2896 75.1285Z" fill="#F9B000"/>
</svg>
