<svg width="467" height="151" viewBox="0 0 467 151" fill="none" xmlns="http://www.w3.org/2000/svg">
<g clip-path="url(#clip0_2615_1266)">
<path d="M79.8885 123.975H74.623V150.722H79.8885V123.975Z" fill="white"/>
<path d="M95.1582 123.711H97.4984L111.934 139.771V123.974H117.185V151H114.83L100.438 134.984V150.737H95.1582V123.711Z" fill="white"/>
<path d="M138.276 129.289V134.677H146.935V140.035H138.276V150.737H132.952V123.975H150.138V129.289H138.276Z" fill="white"/>
<path d="M185.724 150.736H179.23L171.975 140.532H168.772V150.736H163.506V123.988H174.315C175.427 123.988 176.494 124.208 177.489 124.647C178.484 125.086 179.361 125.672 180.107 126.419C180.853 127.165 181.453 128.044 181.906 129.039C182.345 130.035 182.579 131.103 182.579 132.245C182.579 133.929 182.155 135.437 181.277 136.784C180.414 138.116 179.273 139.112 177.869 139.741L185.738 150.751L185.724 150.736ZM173.321 135.247C174.666 135.247 175.661 134.954 176.304 134.354C176.933 133.753 177.255 133.051 177.255 132.231C177.255 131.411 176.933 130.723 176.304 130.152C175.661 129.581 174.681 129.288 173.321 129.288H168.772V135.247H173.321Z" fill="white"/>
<path d="M209.55 123.711L221.573 150.722H215.737L213.557 145.832H203.363C203.041 146.594 202.675 147.414 202.281 148.292C201.886 149.17 201.535 149.976 201.228 150.722H195.421L207.297 123.711H209.55ZM211.188 140.533L208.438 134.34L205.688 140.533H211.188Z" fill="white"/>
<path d="M269.678 131.323C269.678 132.187 269.488 133.124 269.093 134.134C268.698 135.144 267.967 136.023 266.87 136.784C267.528 137.091 268.098 137.472 268.581 137.926C269.064 138.394 269.458 138.877 269.766 139.405C270.058 139.932 270.292 140.473 270.453 141.03C270.614 141.601 270.687 142.142 270.687 142.669C270.687 143.665 270.541 144.631 270.248 145.597C269.956 146.549 269.458 147.413 268.756 148.174C268.054 148.935 267.133 149.565 265.977 150.033C264.822 150.502 263.374 150.736 261.648 150.736H250.825V123.988H261.516C262.657 123.988 263.725 124.193 264.72 124.603C265.7 125.013 266.562 125.555 267.308 126.228C268.04 126.902 268.625 127.692 269.034 128.571C269.458 129.464 269.663 130.386 269.663 131.323M256.119 134.412H260.931C261.867 134.412 262.628 134.193 263.213 133.739C263.784 133.285 264.076 132.699 264.076 131.953C264.076 131.206 263.784 130.591 263.213 130.064C262.628 129.537 261.882 129.288 260.931 129.288H256.119V134.412ZM260.961 145.422C262.423 145.422 263.462 145.143 264.091 144.602C264.72 144.06 265.041 143.416 265.041 142.669C265.041 142.289 264.983 141.908 264.851 141.557C264.72 141.205 264.5 140.898 264.193 140.62C263.901 140.356 263.476 140.137 262.935 139.975C262.409 139.814 261.75 139.727 260.946 139.727H256.105V145.422H260.946H260.961Z" fill="white"/>
<path d="M294.528 151C293.007 151 291.602 150.736 290.33 150.209C289.058 149.682 287.975 148.965 287.068 148.057C286.162 147.135 285.459 146.051 284.948 144.777C284.436 143.504 284.187 142.098 284.187 140.576V123.988H289.452V139.888C289.452 140.781 289.599 141.586 289.877 142.303C290.155 143.035 290.535 143.65 291.003 144.148C291.471 144.646 292.012 145.026 292.626 145.29C293.226 145.553 293.87 145.685 294.528 145.685C295.186 145.685 295.829 145.553 296.429 145.29C297.043 145.026 297.585 144.646 298.053 144.148C298.521 143.65 298.886 143.035 299.179 142.303C299.457 141.586 299.603 140.766 299.603 139.888V123.988H304.912V140.576C304.912 142.098 304.649 143.504 304.152 144.777C303.64 146.051 302.938 147.149 302.016 148.057C301.095 148.965 300.013 149.697 298.725 150.209C297.453 150.736 296.063 151 294.528 151Z" fill="white"/>
<path d="M325.374 123.975H320.109V150.722H325.374V123.975Z" fill="white"/>
<path d="M356.645 150.722H340.571V123.975H345.881V145.423H356.645V150.722Z" fill="white"/>
<path d="M370.16 150.722V123.975H379.433C381.422 123.975 383.207 124.297 384.786 124.956C386.381 125.614 387.741 126.522 388.852 127.708C389.979 128.894 390.842 130.299 391.441 131.954C392.056 133.593 392.363 135.409 392.363 137.4C392.363 139.391 392.056 141.031 391.441 142.656C390.842 144.281 389.979 145.686 388.852 146.887C387.726 148.087 386.381 149.024 384.786 149.712C383.207 150.4 381.422 150.737 379.433 150.737H370.16V150.722ZM375.426 145.423H379.433C380.53 145.423 381.539 145.218 382.475 144.808C383.411 144.398 384.216 143.827 384.903 143.109C385.591 142.377 386.132 141.528 386.512 140.547C386.893 139.567 387.083 138.512 387.083 137.385C387.083 136.258 386.893 135.218 386.512 134.237C386.132 133.257 385.591 132.407 384.903 131.675C384.216 130.943 383.411 130.372 382.475 129.948C381.554 129.523 380.53 129.318 379.433 129.318H375.426V145.408V145.423Z" fill="white"/>
<path d="M117.288 0L173.876 52.1341V0H191.676V91.2237L135.073 40.129V91.2237H117.288V0Z" fill="#F15B2A"/>
<path d="M376.142 0L342.356 47.6102V91.2237H324.439V47.6102C321.85 43.9941 293.373 3.60151 290.784 0H312.825L333.448 29.5441L353.969 0H376.142Z" fill="#F15B2A"/>
<path d="M52.6397 0L0 91.2237H19.4675L52.6397 33.5409L86.0021 91.2237H105.279L52.6397 0Z" fill="#F15B2A"/>
<path d="M414.36 0L361.721 91.2237H381.188L414.36 33.5409L447.723 91.2237H467L414.36 0Z" fill="#F15B2A"/>
<path fill-rule="evenodd" clip-rule="evenodd" d="M248.953 74.1824H233.069L256.587 33.5409L280.092 74.1824H264.208V91.2237H309.227L256.587 0L203.948 91.2237H248.953V74.1824Z" fill="#F15B2A"/>
</g>
<defs>
<clipPath id="clip0_2615_1266">
<rect width="467" height="151" fill="white"/>
</clipPath>
</defs>
</svg>
