<svg width="417" height="417" viewBox="0 0 417 417" fill="none" xmlns="http://www.w3.org/2000/svg">
<g clip-path="url(#clip0_2596_1241)">
<path d="M237.692 277.047C262.519 282.164 273.036 291.161 303.258 299.665C350.541 310.628 377.501 308.425 392.848 301.869C396.931 293.892 400.541 285.588 403.566 277.047H237.711H237.692Z" fill="white"/>
<path d="M190.719 293.091C71.9643 262.951 22.7489 297.68 22.7489 297.68L16.5879 301.377C22.676 313.451 29.9307 324.815 38.1515 335.396C114.034 287.154 221.688 327.765 237.31 331.444C249.595 334.321 313.302 352.988 346.203 362.658C358.544 351.549 369.535 338.983 378.922 325.27C325.824 330.078 247.116 310.228 190.737 293.073L190.719 293.091Z" fill="white"/>
<path d="M51.3301 350.784C62.0481 362.166 74.0238 372.327 87.0568 381.087C141.358 351.895 227.594 377.937 243.872 384.219C252.347 387.497 270.466 393.635 288.712 399.681H288.73C303.094 393.471 316.619 385.695 329.105 376.553C283.463 369.523 223.201 352.914 159.877 337.034C108.274 323.795 73.3494 335.614 51.3301 350.802V350.784Z" fill="white"/>
<path d="M109.35 394.054V394.236C138.022 408.787 170.486 417.018 204.846 417.018C227.558 417.018 249.449 413.431 269.938 406.766C193.745 378.338 109.35 394.054 109.35 394.054Z" fill="white"/>
<path d="M66.3132 112.691C79.6742 146.017 79.7836 173.662 78.854 186.191C84.4317 188.85 89.8272 191.837 95.0221 195.151C95.0586 195.188 95.1133 195.206 95.1497 195.261C101.037 199.03 106.706 203.164 112.083 207.79C112.612 208.245 113.122 208.737 113.651 209.21C127.887 188.413 164.161 123.345 159.932 5.7002C147.154 8.74147 134.85 12.9665 123.111 18.2295C117.351 68.5288 81.2054 101.218 66.2949 112.709L66.3132 112.691Z" fill="white"/>
<path d="M47.247 114.257C46.8824 113.637 46.6272 112.982 46.4085 112.326C43.4009 105.734 39.81 98.9228 35.5082 91.9844C19.8869 115.149 8.7861 141.628 3.5 170.147C24.2434 170.274 43.4556 173.188 61.0091 179.016C61.3007 165.813 59.5144 142.102 47.247 114.257Z" fill="white"/>
<path d="M103.043 28.5732C81.6614 41.1208 62.7408 57.3469 47.1377 76.3959C51.4942 82.9701 55.3038 89.4533 58.5848 95.7908C71.3808 85.5561 95.0407 62.6828 103.061 28.5732H103.043Z" fill="white"/>
<path d="M274.877 10.7628C262.81 6.71992 250.269 3.75149 237.327 1.9668C243.16 33.4175 246.004 61.827 246.496 87.3955C258.526 72.7355 273.582 47.2216 274.877 10.781V10.7628Z" fill="white"/>
<path d="M366.928 174.936C381.456 171.531 397.004 169.91 413.5 170.056C409.144 146.563 400.832 124.473 389.294 104.459C362.918 128.152 364.34 159.93 366.91 174.936H366.928Z" fill="white"/>
<path d="M77.9064 206.151C55.96 194.113 30.2404 188.122 0.966406 188.267C0.346657 194.86 0.0185547 201.543 0.0185547 208.3C0.0185547 224.052 1.76843 239.404 5.10414 254.137C48.924 245.869 70.0867 219.062 77.9247 206.151H77.9064Z" fill="white"/>
<path d="M397.478 236.017C379.36 239.386 364.996 250.549 356.01 259.455C370.319 262.04 385.229 266.284 399.884 272.967H406.756C410.694 260.911 413.574 248.364 415.232 235.434C409.272 234.742 403.348 234.924 397.478 236.035V236.017Z" fill="white"/>
<path d="M416.052 188.286C374.711 187.43 340.297 198.575 313.447 221.558C300.979 232.248 290.899 244.832 282.751 258.199C295.511 256.469 313.574 255.103 334.008 256.669C341.882 246.817 363.027 223.998 393.978 218.189C401.561 216.75 409.18 216.477 416.799 217.296C416.927 214.328 417 211.323 417 208.318C417 201.58 416.671 194.878 416.052 188.304V188.286Z" fill="white"/>
<path d="M148.704 183.514L129.2 198.52C126.575 200.542 126.101 204.293 128.106 206.916C129.984 209.356 133.356 209.939 135.926 208.391C136.126 208.263 136.309 208.136 136.491 208.008L141.103 204.457L143.053 202.946L149.487 197.992V272.949H160.953V189.178L167.606 184.061L207.689 153.229L256.084 190.453V272.949H267.55V199.267L270.211 201.307L271.578 202.363L276.208 205.932L278.906 208.008C279.999 208.846 281.275 209.247 282.551 209.247C284.356 209.247 286.124 208.445 287.309 206.897C287.71 206.387 288.02 205.841 288.202 205.258C288.202 205.258 288.202 205.24 288.202 205.222C288.147 210.758 288.311 215.821 288.566 220.246C292.631 215.894 296.933 211.687 301.581 207.735C315.781 195.552 331.767 186.319 349.448 180.036C346.185 161.697 343.36 118.901 379.323 88.8159C371.175 77.2154 361.897 66.489 351.617 56.8007C300.36 105.151 289.241 163.646 288.257 201.452C288.257 201.452 288.257 201.416 288.257 201.398C287.91 200.287 287.218 199.267 286.215 198.484L271.031 186.792C274.495 146.29 289.368 91.2927 337.837 44.8541C324.129 34.0185 309.018 24.8582 292.832 17.7012C288.712 72.2256 257.16 104.223 246.15 113.838C245.33 131.867 243.307 148.294 240.39 163.227L223.748 150.424C229.964 112.181 230.474 62.7557 218.444 0.182058C215.144 0.0181573 211.827 -0.0546875 208.491 -0.0546875C198.156 -0.0546875 187.985 0.691971 178.051 2.14887C181.696 87.7597 164.908 147.055 148.704 183.46V183.514ZM208.674 139.643C208.783 139.698 208.874 139.771 208.965 139.844C208.819 139.807 208.674 139.789 208.509 139.771C208.546 139.734 208.619 139.698 208.655 139.643H208.674Z" fill="white"/>
<path d="M132.189 260.292C123.804 246.124 113.359 232.739 100.199 221.503C97.8836 219.518 95.514 217.66 93.0714 215.839C83.1372 231.537 58.1832 261.731 9.78809 271.547C9.93391 272.02 10.0797 272.494 10.2438 272.949H126.647C129.327 267.577 131.113 263.152 132.17 260.274L132.189 260.292Z" fill="white"/>
<path d="M239.642 221.321C239.77 220.52 239.587 219.718 239.113 219.063C238.64 218.425 237.91 217.988 237.108 217.879C236.999 217.879 235.942 217.752 234.301 217.752C230.218 217.752 221.633 218.608 215.836 225.127C212.865 216.331 205.592 206.133 190.882 204.84C189.515 204.712 188.221 205.55 187.784 206.88C187.62 207.408 183.646 220.21 190.208 231.538C193.817 237.766 199.851 242.246 208.126 244.886C202.129 254.265 202.931 266.43 204.426 274.388H210.477C209.967 271.857 209.475 268.761 209.329 265.465C210.532 266.011 212.446 266.685 214.834 266.685C216.73 266.685 219.081 266.248 221.578 264.828C224.094 263.389 226.755 260.949 229.289 256.906C230.127 255.558 229.744 253.792 228.432 252.899C228.122 252.681 225.187 250.787 221.104 250.787C217.969 250.787 213.74 251.934 209.839 256.724C210.55 252.899 211.972 249.184 214.542 246.106C217.896 245.396 236.434 240.607 239.642 221.357V221.321Z" fill="white"/>
</g>
<defs>
<clipPath id="clip0_2596_1241">
<rect width="417" height="417" fill="white"/>
</clipPath>
</defs>
</svg>
