<svg width="182" height="182" viewBox="0 0 182 182" fill="none" xmlns="http://www.w3.org/2000/svg">
<g clip-path="url(#clip0_2619_1327)">
<path d="M103.742 120.917C114.576 123.143 119.168 127.08 132.357 130.786C152.996 135.574 164.755 134.608 171.46 131.752C173.246 128.266 174.812 124.644 176.136 120.917H103.752H103.742Z" fill="url(#paint0_linear_2619_1327)"/>
<path d="M83.2396 127.919C31.4107 114.764 9.93095 129.925 9.93095 129.925L7.24072 131.542C9.89942 136.812 13.0625 141.768 16.646 146.387C49.7694 125.337 96.7537 143.059 103.574 144.665C108.933 145.925 136.739 154.062 151.094 158.293C156.475 153.442 161.277 147.962 165.375 141.978C142.204 144.077 107.851 135.416 83.2396 127.93V127.919Z" fill="url(#paint1_linear_2619_1327)"/>
<path d="M22.4043 153.097C27.0807 158.063 32.3035 162.493 37.9992 166.315C61.6963 153.569 99.3384 164.94 106.442 167.68C110.141 169.118 118.054 171.795 126.009 174.431H126.02C132.294 171.722 138.189 168.32 143.643 164.331C123.719 161.265 97.4258 154.01 69.788 147.081C47.2679 141.296 32.0197 146.461 22.4148 153.086L22.4043 153.097Z" fill="url(#paint2_linear_2619_1327)"/>
<path d="M47.7305 171.984V172.057C60.2463 178.409 74.412 182 89.4079 182C99.3176 182 108.881 180.435 117.823 177.527C84.5634 165.117 47.7305 171.984 47.7305 171.984Z" fill="url(#paint3_linear_2619_1327)"/>
<path d="M28.9409 49.1775C34.7732 63.7186 34.8258 75.7925 34.4159 81.252C36.854 82.4068 39.2079 83.7192 41.4778 85.1576C41.4988 85.1786 41.5198 85.1786 41.5408 85.1996C44.105 86.8374 46.585 88.6537 48.939 90.659C49.1701 90.8585 49.3908 91.0685 49.622 91.2785C55.8327 82.2074 71.6693 53.7971 69.8197 2.45703C64.2501 3.7904 58.8697 5.62773 53.7519 7.927C51.2404 29.8804 35.4563 44.1485 28.9514 49.167L28.9409 49.1775Z" fill="url(#paint4_linear_2619_1327)"/>
<path d="M20.6182 49.8598C20.4606 49.5868 20.345 49.3033 20.2504 49.0198C18.9368 46.1431 17.371 43.1719 15.49 40.1377C8.66984 50.2482 3.82533 61.7971 1.52393 74.2489C10.5824 74.3014 18.9683 75.5823 26.6187 78.123C26.7448 72.3591 25.9671 62.0071 20.6182 49.8598Z" fill="url(#paint5_linear_2619_1327)"/>
<path d="M44.9666 12.4727C35.6349 17.9531 27.3751 25.0294 20.5654 33.3446C22.4675 36.2109 24.1279 39.0456 25.5571 41.8173C31.1477 37.3448 41.4672 27.3602 44.9666 12.4832V12.4727Z" fill="url(#paint6_linear_2619_1327)"/>
<path d="M119.967 4.70396C114.702 2.94013 109.227 1.63825 103.574 0.861328C106.127 14.594 107.357 26.9828 107.578 38.1432C112.821 31.7494 119.4 20.6099 119.967 4.70396Z" fill="url(#paint7_linear_2619_1327)"/>
<path d="M160.142 76.349C166.489 74.8686 173.267 74.1547 180.466 74.2177C178.563 63.9706 174.938 54.3221 169.904 45.5869C158.387 55.9284 159.017 69.7976 160.142 76.349Z" fill="url(#paint8_linear_2619_1327)"/>
<path d="M33.9954 89.9767C24.422 84.7167 13.1882 82.1129 0.409605 82.1759C0.136379 85.0526 -0.0107422 87.9714 -0.0107422 90.9216C-0.0107422 97.7984 0.756392 104.497 2.20659 110.933C21.3324 107.321 30.5695 95.6251 33.9849 89.9872L33.9954 89.9767Z" fill="url(#paint9_linear_2619_1327)"/>
<path d="M173.477 103.016C165.564 104.486 159.301 109.357 155.381 113.242C161.624 114.365 168.128 116.224 174.528 119.132H177.523C179.247 113.872 180.497 108.392 181.222 102.754C178.616 102.449 176.031 102.533 173.467 103.016H173.477Z" fill="url(#paint10_linear_2619_1327)"/>
<path d="M181.579 82.1757C163.536 81.8082 148.509 86.6587 136.802 96.6958C131.358 101.357 126.966 106.859 123.403 112.686C128.973 111.93 136.854 111.342 145.776 112.014C149.213 107.72 158.439 97.7562 171.953 95.2154C175.264 94.5855 178.595 94.47 181.916 94.8269C181.979 93.5356 182 92.2232 182 90.9108C182 87.9711 181.853 85.0524 181.579 82.1757Z" fill="url(#paint11_linear_2619_1327)"/>
<path d="M64.9016 80.0963L56.3896 86.6477C55.2441 87.5296 55.034 89.1674 55.9167 90.3118C56.7364 91.3827 58.2076 91.6347 59.332 90.9523C59.4161 90.8998 59.5002 90.8368 59.5842 90.7843L61.6019 89.2304L62.4531 88.569L65.2589 86.4062V119.121H70.2611V82.5636L73.172 80.3273L90.6584 66.8676L111.781 83.12V119.121H116.783V86.9626L117.949 87.8551L118.548 88.317L120.566 89.8709L121.743 90.7738C122.216 91.1412 122.783 91.3092 123.33 91.3092C124.118 91.3092 124.885 90.9628 125.4 90.2908C125.579 90.0703 125.705 89.8289 125.789 89.5769C125.789 89.5769 125.789 89.5769 125.789 89.5664C125.768 91.9917 125.831 94.186 125.947 96.1178C127.723 94.2174 129.593 92.3906 131.621 90.6583C137.821 85.3458 144.799 81.3142 152.513 78.5739C151.083 70.5737 149.864 51.8855 165.554 38.7618C162.002 33.7013 157.946 29.0187 153.458 24.7876C131.096 45.8906 126.23 71.4136 125.81 87.918C125.81 87.918 125.81 87.9076 125.81 87.8971C125.663 87.4036 125.358 86.9626 124.917 86.6267L118.296 81.5242C119.81 63.8439 126.304 39.8432 147.447 19.5801C141.457 14.8556 134.868 10.8555 127.807 7.72677C126.01 31.528 112.243 45.4916 107.43 49.6807C107.073 57.5445 106.19 64.7153 104.919 71.2352L97.6572 65.6497C100.368 48.9563 100.589 27.3809 95.3453 0.0835055C93.9056 0.0100126 92.4554 -0.0214844 91.0052 -0.0214844C86.497 -0.0214844 82.0518 0.303984 77.7222 0.944423C79.309 38.3103 71.9845 64.1903 64.9121 80.0753L64.9016 80.0963ZM91.0683 60.9461C91.0683 60.9461 91.1523 61.0091 91.1944 61.0301C91.1313 61.0196 91.0683 61.0091 90.9947 60.9986C91.0157 60.9776 91.0367 60.9671 91.0578 60.9461H91.0683Z" fill="url(#paint12_linear_2619_1327)"/>
<path d="M57.6925 113.599C54.0355 107.415 49.4747 101.577 43.737 96.6743C42.7281 95.8029 41.6878 94.9945 40.6264 94.207C36.2863 101.063 25.3993 114.239 4.27686 118.523C4.33991 118.733 4.40296 118.932 4.47652 119.132H55.286C56.4525 116.79 57.2301 114.848 57.703 113.599H57.6925Z" fill="url(#paint13_linear_2619_1327)"/>
<path d="M104.593 96.5907C104.656 96.2443 104.572 95.8873 104.362 95.6038C104.152 95.3204 103.836 95.1314 103.49 95.0894C103.448 95.0894 102.985 95.0264 102.26 95.0264C100.484 95.0264 96.7325 95.3939 94.1999 98.2391C92.9073 94.407 89.7232 89.9449 83.3023 89.3779C82.7033 89.3149 82.1464 89.6929 81.9572 90.2704C81.8837 90.5013 80.1497 96.0868 83.0186 101.032C84.5949 103.751 87.2221 105.704 90.8371 106.859C88.2204 110.953 88.5672 116.255 89.2187 119.731H91.8564C91.6357 118.628 91.4151 117.274 91.352 115.835C91.8774 116.077 92.7181 116.371 93.7585 116.371C94.5887 116.371 95.608 116.182 96.7009 115.552C97.7938 114.922 98.9603 113.862 100.064 112.098C100.432 111.51 100.263 110.733 99.6959 110.344C99.5593 110.25 98.2772 109.421 96.4908 109.421C95.1246 109.421 93.2751 109.924 91.5727 112.014C91.8774 110.344 92.508 108.728 93.6219 107.373C95.0931 107.058 103.174 104.969 104.572 96.5697L104.593 96.5907Z" fill="url(#paint14_linear_2619_1327)"/>
</g>
<defs>
<linearGradient id="paint0_linear_2619_1327" x1="68.5691" y1="-41.4289" x2="147.86" y2="139.292" gradientUnits="userSpaceOnUse">
<stop stop-color="#C8DD2D"/>
<stop offset="1" stop-color="#4F944B"/>
</linearGradient>
<linearGradient id="paint1_linear_2619_1327" x1="17.7704" y1="-19.1505" x2="97.0722" y2="161.581" gradientUnits="userSpaceOnUse">
<stop stop-color="#C8DD2D"/>
<stop offset="1" stop-color="#4F944B"/>
</linearGradient>
<linearGradient id="paint2_linear_2619_1327" x1="6.925" y1="-14.3832" x2="86.2163" y2="166.337" gradientUnits="userSpaceOnUse">
<stop stop-color="#C8DD2D"/>
<stop offset="1" stop-color="#4F944B"/>
</linearGradient>
<linearGradient id="paint3_linear_2619_1327" x1="0.798663" y1="-11.6964" x2="80.1006" y2="169.024" gradientUnits="userSpaceOnUse">
<stop stop-color="#C8DD2D"/>
<stop offset="1" stop-color="#4F944B"/>
</linearGradient>
<linearGradient id="paint4_linear_2619_1327" x1="24.0859" y1="-21.9111" x2="103.377" y2="158.809" gradientUnits="userSpaceOnUse">
<stop stop-color="#C8DD2D"/>
<stop offset="1" stop-color="#4F944B"/>
</linearGradient>
<linearGradient id="paint5_linear_2619_1327" x1="-17.77" y1="-3.54861" x2="61.5318" y2="177.172" gradientUnits="userSpaceOnUse">
<stop stop-color="#C8DD2D"/>
<stop offset="1" stop-color="#4F944B"/>
</linearGradient>
<linearGradient id="paint6_linear_2619_1327" x1="14.8487" y1="-17.8589" x2="94.14" y2="162.862" gradientUnits="userSpaceOnUse">
<stop stop-color="#C8DD2D"/>
<stop offset="1" stop-color="#4F944B"/>
</linearGradient>
<linearGradient id="paint7_linear_2619_1327" x1="83.3025" y1="-47.896" x2="162.604" y2="132.825" gradientUnits="userSpaceOnUse">
<stop stop-color="#C8DD2D"/>
<stop offset="1" stop-color="#4F944B"/>
</linearGradient>
<linearGradient id="paint8_linear_2619_1327" x1="111.938" y1="-60.4634" x2="191.23" y2="120.268" gradientUnits="userSpaceOnUse">
<stop stop-color="#C8DD2D"/>
<stop offset="1" stop-color="#4F944B"/>
</linearGradient>
<linearGradient id="paint9_linear_2619_1327" x1="-26.0197" y1="0.0633024" x2="53.2821" y2="180.794" gradientUnits="userSpaceOnUse">
<stop stop-color="#C8DD2D"/>
<stop offset="1" stop-color="#4F944B"/>
</linearGradient>
<linearGradient id="paint10_linear_2619_1327" x1="97.1212" y1="-53.9544" x2="176.412" y2="126.766" gradientUnits="userSpaceOnUse">
<stop stop-color="#C8DD2D"/>
<stop offset="1" stop-color="#4F944B"/>
</linearGradient>
<linearGradient id="paint11_linear_2619_1327" x1="87.7473" y1="-49.8492" x2="167.049" y2="130.871" gradientUnits="userSpaceOnUse">
<stop stop-color="#C8DD2D"/>
<stop offset="1" stop-color="#4F944B"/>
</linearGradient>
<linearGradient id="paint12_linear_2619_1327" x1="63.4724" y1="-39.1932" x2="142.774" y2="141.527" gradientUnits="userSpaceOnUse">
<stop stop-color="#C8DD2D"/>
<stop offset="1" stop-color="#4F944B"/>
</linearGradient>
<linearGradient id="paint13_linear_2619_1327" x1="-21.007" y1="-2.1317" x2="58.2842" y2="178.599" gradientUnits="userSpaceOnUse">
<stop stop-color="#C8DD2D"/>
<stop offset="1" stop-color="#4F944B"/>
</linearGradient>
<linearGradient id="paint14_linear_2619_1327" x1="37.2848" y1="-27.7173" x2="116.576" y2="153.003" gradientUnits="userSpaceOnUse">
<stop stop-color="#C8DD2D"/>
<stop offset="1" stop-color="#4F944B"/>
</linearGradient>
<clipPath id="clip0_2619_1327">
<rect width="182" height="182" fill="white"/>
</clipPath>
</defs>
</svg>

<svg width="276" height="174" viewBox="0 0 276 174" fill="none" xmlns="http://www.w3.org/2000/svg">
<g clip-path="url(#clip0_2618_1303)">
<path d="M42.7741 67.9539C41.674 65.9482 40.1117 64.4042 38.071 63.3377C36.0303 62.2712 33.623 61.7459 30.849 61.7459C26.0661 61.7459 22.2399 63.3217 19.3543 66.4417C16.4686 69.5775 15.0338 73.764 15.0338 79.001C15.0338 84.5882 16.5484 88.9339 19.5775 92.0697C22.6066 95.2056 26.7676 96.7655 32.0606 96.7655C35.6955 96.7655 38.7565 95.8423 41.2595 94.0117C43.7625 92.1652 45.5959 89.5228 46.7438 86.0686H27.9952V75.1966H60.1516V88.9179C59.0516 92.595 57.2022 96.0174 54.5717 99.1851C51.9411 102.353 48.6251 104.916 44.5916 106.858C40.5581 108.815 35.9984 109.786 30.9287 109.786C24.9342 109.786 19.5934 108.481 14.8903 105.855C10.1872 103.244 6.53634 99.5989 3.92173 94.9349C1.29119 90.271 -0.0161133 84.9543 -0.0161133 78.9692C-0.0161133 72.984 1.29119 67.6514 3.92173 62.9556C6.53634 58.2598 10.1872 54.6146 14.8584 52.004C19.5296 49.3935 24.8545 48.0723 30.849 48.0723C38.1029 48.0723 44.2249 49.8232 49.2149 53.3411C54.205 56.8431 57.5051 61.714 59.1154 67.922H42.7741V67.9539Z" fill="white"/>
<path d="M101.985 85.3843C106.417 84.0631 109.781 81.8187 112.045 78.651C114.325 75.4833 115.457 71.9018 115.457 67.8745C115.457 64.2929 114.612 61.0616 112.954 58.1645C111.28 55.2674 108.761 52.9752 105.381 51.3038C102.017 49.6324 97.9358 48.8047 93.153 48.8047H68.3462V109.389H83.1251V86.5304H83.2526C74.2291 77.1229 80.4148 66.2668 88.4181 61.8256C86.4412 64.3725 87.3021 64.1497 87.3021 64.1497C98.2866 56.4453 105.525 59.3265 105.525 59.3265C102.703 60.4567 103.978 64.6272 103.93 66.8717C103.851 70.103 102.91 75.4833 100.136 77.5845C101.539 77.3935 102.049 76.9796 102.224 76.6772C99.7533 86.7374 91.6225 88.0426 87.4934 88.0267L99.275 109.389H115.951L101.953 85.4002L101.985 85.3843ZM92.7545 71.8222C84.7512 74.8784 83.5715 85.0978 83.4439 86.5145H85.3411C86.1382 82.2962 87.7325 74.5282 92.7545 71.8222Z" fill="white"/>
<path d="M139.499 60.6159V72.8727H159.283V84.2701H139.499V97.5616H161.882V109.389H124.72V48.8047H161.882V60.6318H139.499V60.6159Z" fill="white"/>
<path d="M186.243 60.6159V72.8727H206.028V84.2701H186.243V97.5616H208.626V109.389H171.464V48.8047H208.626V60.6318H186.243V60.6159Z" fill="white"/>
<path d="M272.508 109.373H257.729L233.018 72.0132V109.373H218.239V48.8047H233.018L257.729 86.3394V48.8047H272.508V109.389V109.373Z" fill="white"/>
<path d="M10.1714 172.202C7.22204 170.992 4.87846 169.209 3.10882 166.853C1.35512 164.497 0.414504 161.648 0.318848 158.321H13.4875C13.6788 160.199 14.3325 161.632 15.4485 162.619C16.5645 163.606 17.9993 164.099 19.7849 164.099C21.5705 164.099 23.0691 163.686 24.1213 162.842C25.1895 161.998 25.7156 160.836 25.7156 159.34C25.7156 158.082 25.3011 157.048 24.4561 156.236C23.6111 155.424 22.5749 154.74 21.3473 154.214C20.1197 153.689 18.366 153.084 16.1021 152.416C12.8179 151.397 10.1396 150.394 8.067 149.375C5.99445 148.356 4.20887 146.876 2.71025 144.886C1.21164 142.912 0.462332 140.334 0.462332 137.15C0.462332 132.423 2.1682 128.73 5.59588 126.055C9.02356 123.381 13.4875 122.044 18.9877 122.044C24.488 122.044 29.0954 123.381 32.5231 126.055C35.9508 128.73 37.7842 132.454 38.0233 137.214H24.6315C24.5358 135.574 23.93 134.285 22.8299 133.346C21.714 132.407 20.2951 131.929 18.5573 131.929C17.0587 131.929 15.847 132.327 14.9383 133.123C14.0136 133.919 13.5672 135.065 13.5672 136.561C13.5672 138.201 14.3325 139.474 15.8789 140.397C17.4254 141.321 19.8327 142.308 23.1169 143.358C26.4011 144.472 29.0635 145.523 31.1201 146.542C33.1768 147.545 34.9464 149.025 36.445 150.951C37.9436 152.877 38.6929 155.36 38.6929 158.401C38.6929 161.441 37.9596 163.924 36.4928 166.28C35.0261 168.636 32.8898 170.514 30.0839 171.915C27.2939 173.316 23.9778 174.016 20.1675 174.016C16.3572 174.016 13.1208 173.411 10.1874 172.218L10.1714 172.202Z" fill="white"/>
<path d="M82.9815 147.163C81.6264 149.598 79.5538 151.556 76.7639 153.052C73.9579 154.549 70.4984 155.297 66.3373 155.297H58.6689V173.507H46.2974V122.776H66.3533C70.4027 122.776 73.8304 123.477 76.6363 124.878C79.4263 126.278 81.5307 128.204 82.9337 130.656C84.3366 133.107 85.0381 135.925 85.0381 139.108C85.0381 142.053 84.3685 144.727 83.0134 147.163H82.9815ZM70.6738 143.804C71.8376 142.69 72.4115 141.13 72.4115 139.108C72.4115 137.087 71.8376 135.527 70.6738 134.412C69.5099 133.298 67.7562 132.757 65.3967 132.757H58.6689V145.475H65.3967C67.7562 145.475 69.5259 144.918 70.6738 143.82V143.804Z" fill="white"/>
<path d="M123.078 164.545H104.122L101.077 173.507H88.1152L106.497 122.776H120.83L139.212 173.507H126.107L123.062 164.545H123.078ZM119.889 154.994L113.592 136.418L107.374 154.994H119.889Z" fill="white"/>
<path d="M145.939 134.651C148.108 130.719 151.137 127.663 155.027 125.466C158.917 123.269 163.317 122.171 168.243 122.171C174.269 122.171 179.435 123.763 183.724 126.946C188.012 130.13 190.882 134.46 192.333 139.951H178.718C177.713 137.834 176.262 136.227 174.413 135.112C172.564 133.998 170.443 133.457 168.084 133.457C164.273 133.457 161.181 134.778 158.821 137.436C156.462 140.095 155.282 143.628 155.282 148.054C155.282 152.479 156.462 156.029 158.821 158.671C161.181 161.329 164.273 162.65 168.084 162.65C170.443 162.65 172.564 162.093 174.413 160.995C176.262 159.897 177.713 158.273 178.718 156.156H192.333C190.882 161.648 188.012 165.977 183.724 169.129C179.435 172.281 174.269 173.857 168.243 173.857C163.317 173.857 158.917 172.758 155.027 170.562C151.137 168.365 148.123 165.325 145.939 161.425C143.771 157.525 142.687 153.068 142.687 148.054C142.687 143.039 143.771 138.582 145.939 134.651Z" fill="white"/>
<path d="M212.309 132.677V142.945H228.889V152.479H212.309V163.606H231.058V173.507H199.938V122.776H231.058V132.677H212.309Z" fill="white"/>
<path d="M247.479 172.202C244.529 170.992 242.186 169.209 240.416 166.853C238.662 164.497 237.722 161.648 237.626 158.321H250.795C250.986 160.199 251.64 161.632 252.756 162.619C253.872 163.606 255.306 164.099 257.092 164.099C258.878 164.099 260.376 163.686 261.428 162.842C262.497 161.998 263.023 160.836 263.023 159.34C263.023 158.082 262.608 157.048 261.763 156.236C260.918 155.424 259.882 154.74 258.654 154.214C257.427 153.689 255.673 153.084 253.409 152.416C250.125 151.397 247.447 150.394 245.374 149.375C243.302 148.356 241.516 146.876 240.017 144.886C238.519 142.912 237.769 140.334 237.769 137.15C237.769 132.423 239.475 128.73 242.903 126.055C246.331 123.381 250.795 122.044 256.295 122.044C261.795 122.044 266.403 123.381 269.83 126.055C273.258 128.73 275.091 132.454 275.33 137.214H261.939C261.843 135.574 261.237 134.285 260.137 133.346C259.021 132.407 257.602 131.929 255.864 131.929C254.366 131.929 253.154 132.327 252.245 133.123C251.321 133.919 250.874 135.065 250.874 136.561C250.874 138.201 251.64 139.474 253.186 140.397C254.732 141.321 257.14 142.308 260.424 143.358C263.708 144.472 266.371 145.523 268.427 146.542C270.484 147.545 272.254 149.025 273.752 150.951C275.251 152.877 276 155.36 276 158.401C276 161.441 275.267 163.924 273.8 166.28C272.333 168.636 270.197 170.514 267.391 171.915C264.601 173.316 261.285 174.016 257.475 174.016C253.664 174.016 250.428 173.411 247.495 172.218L247.479 172.202Z" fill="white"/>
<path d="M27.9954 21.1869C29.3027 22.8583 29.9404 24.7525 29.9404 26.9015C29.9404 29.9896 28.8563 32.4409 26.7041 34.2397C24.5359 36.0543 21.5227 36.9458 17.6646 36.9458H0.414551V0H17.0747C20.8371 0 23.7865 0.859574 25.9069 2.57872C28.0273 4.29787 29.0955 6.63782 29.0955 9.58265C29.0955 11.7634 28.5215 13.5622 27.3896 15.0107C26.2417 16.4433 24.7272 17.4462 22.83 18.0033C24.9663 18.4649 26.7041 19.5155 27.9954 21.1869ZM9.42218 14.947H15.321C16.8036 14.947 17.9356 14.6287 18.7168 13.976C19.5139 13.3234 19.8965 12.3683 19.8965 11.1108C19.8965 9.85326 19.498 8.88226 18.7168 8.2137C17.9196 7.54515 16.7877 7.21087 15.321 7.21087H9.42218V14.947ZM19.5777 28.6684C20.4067 27.9839 20.8212 26.997 20.8212 25.6917C20.8212 24.3864 20.3908 23.3677 19.5298 22.6354C18.6689 21.9032 17.4892 21.5371 15.9746 21.5371H9.43812V29.703H16.0862C17.6008 29.703 18.7646 29.3529 19.5936 28.6684H19.5777Z" fill="white"/>
<path d="M67.2143 0V36.9458H58.2066V21.7281H44.1771V36.9458H35.1694V0H44.1771V14.4695H58.2066V0H67.2143Z" fill="white"/>
<path d="M96.7403 30.4194H82.9339L80.7179 36.9458H71.2798L84.6557 0H95.0982L108.49 36.9458H98.9404L96.7243 30.4194H96.7403ZM94.4126 23.4791L89.8211 9.94877L85.2934 23.4791H94.4126Z" fill="white"/>
<path d="M145.669 36.9458H136.645L121.563 14.1511V36.9458H112.556V0H121.563L136.645 22.906V0H145.669V36.9458Z" fill="white"/>
<path d="M176.294 2.32403C179.212 3.86808 181.476 6.03293 183.07 8.81859C184.664 11.6042 185.461 14.8356 185.461 18.4808C185.461 22.1261 184.664 25.3097 183.07 28.1112C181.476 30.9128 179.196 33.0936 176.262 34.6376C173.329 36.1817 169.933 36.9617 166.059 36.9617H152.189V0H166.059C169.965 0 173.361 0.764066 176.294 2.32403ZM173.441 26.3762C175.338 24.5138 176.294 21.8873 176.294 18.4808C176.294 15.0744 175.354 12.432 173.441 10.5377C171.543 8.64349 168.897 7.68841 165.485 7.68841H161.213V29.1618H165.485C168.897 29.1618 171.543 28.2386 173.441 26.3762Z" fill="white"/>
<path d="M213.569 30.4194H199.763L197.546 36.9458H188.108L201.5 0H211.943L225.335 36.9458H215.785L213.569 30.4194ZM211.257 23.4791L206.666 9.94877L202.138 23.4791H211.257Z" fill="white"/>
<path d="M248.26 36.9458L240.56 23.0016H238.391V36.9458H229.384V0H244.513C247.431 0 249.918 0.509377 251.975 1.52813C254.031 2.54689 255.562 3.94767 256.582 5.71457C257.602 7.48147 258.113 9.45531 258.113 11.6361C258.113 14.0875 257.411 16.2841 256.024 18.2102C254.637 20.1363 252.596 21.5053 249.886 22.3171L258.431 36.9458H248.26ZM238.407 16.6343H244.003C245.661 16.6343 246.889 16.2364 247.718 15.4246C248.547 14.6128 248.961 13.4826 248.961 12.0022C248.961 10.5218 248.547 9.48715 247.718 8.69125C246.889 7.87943 245.661 7.48147 244.003 7.48147H238.407V16.6343Z" fill="white"/>
<path d="M272.78 0V36.9458H263.772V0H272.78Z" fill="white"/>
<path d="M83.428 86.5146C83.428 86.6261 83.428 86.6738 83.428 86.6738C83.3802 86.6261 83.3164 86.5624 83.2686 86.5146H83.428Z" fill="white"/>
</g>
<defs>
<clipPath id="clip0_2618_1303">
<rect width="276" height="174" fill="white"/>
</clipPath>
</defs>
</svg>

