<svg width="143" height="152" viewBox="0 0 143 152" fill="none" xmlns="http://www.w3.org/2000/svg">
<path fill-rule="evenodd" clip-rule="evenodd" d="M142.103 54.3381C141.814 51.237 141.19 48.365 140.399 45.7986C139.517 42.9572 138.406 40.4519 137.281 38.4201L137.159 38.2062L137.098 38.0993L137.037 37.9924L136.976 37.8854L136.794 37.5646C135.592 35.5481 133.995 33.3178 131.972 31.118C130.162 29.1473 127.987 27.1767 125.477 25.4046C119.803 21.4022 113.46 17.354 107.026 13.6265C100.637 9.91437 94.1418 6.52302 88.1334 3.75799C85.3193 2.4595 82.5357 1.57347 79.9194 0.977688C77.0293 0.320804 74.3217 0.0458291 71.9944 0H71.5228H71.4011H71.0361C68.6935 0.0305528 65.9707 0.320804 63.0654 0.977688C60.4491 1.57347 57.6807 2.4595 54.897 3.77327C48.6148 6.70633 41.9523 10.2046 35.518 13.9321C29.1293 17.6289 22.9536 21.5703 17.5537 25.4352C15.0286 27.2378 12.8686 29.2084 11.0433 31.1944C9.03542 33.3789 7.43825 35.594 6.23657 37.5952L5.99319 38.0076L5.84108 38.2826L5.76502 38.4201C4.62419 40.4671 3.52899 42.9572 2.64674 45.7986C1.85576 48.3803 1.2321 51.2523 0.943091 54.3534C0.304223 60.9528 0 68.3007 0 75.7098C0 83.1646 0.319434 90.7112 0.92788 97.6314C1.20168 100.702 1.81013 103.574 2.60111 106.14C3.48335 108.997 4.60898 111.502 5.74981 113.565L5.81066 113.672L5.8715 113.778L5.93235 113.885L5.99319 113.992L6.22136 114.405C7.42304 116.406 9.02021 118.621 11.0281 120.806C12.8534 122.792 15.0134 124.762 17.5385 126.565C22.9384 130.414 29.1141 134.356 35.5028 138.068C41.9371 141.811 48.5996 145.294 54.8818 148.227C57.6655 149.525 60.4339 150.427 63.0654 151.022C65.9707 151.679 68.6935 151.954 71.0361 152H71.2794H71.5076H71.9791C74.3064 151.954 77.014 151.679 79.9042 151.022C82.5205 150.427 85.3193 149.525 88.1334 148.242C94.157 145.477 100.652 142.07 107.026 138.373C113.46 134.646 119.803 130.613 125.462 126.595C127.987 124.823 130.147 122.853 131.957 120.882C133.98 118.682 135.592 116.452 136.779 114.435L136.839 114.328L137.007 114.023L137.235 113.61C138.376 111.548 139.501 109.043 140.384 106.186C141.175 103.62 141.798 100.748 142.072 97.6772C142.696 90.7417 143 83.2105 143 75.7403C143 68.3313 142.696 60.9833 142.072 54.3686L142.103 54.3381ZM71.5228 31.3777C79.4782 31.3777 85.9278 37.8549 85.9278 45.8444C85.9278 53.834 79.1436 59.7612 72.6637 63.4428C71.9335 63.8553 71.1121 63.8553 70.382 63.4428C63.902 59.7612 57.1179 53.7729 57.1179 45.8444C57.1179 37.916 63.5674 31.3777 71.5228 31.3777ZM61.1792 63.1678C64.191 64.0691 67.2333 65.5662 69.2411 66.6509C70.7166 67.4452 72.3442 67.4452 73.8045 66.6509C75.7971 65.5662 78.8394 64.0844 81.8664 63.1678C96.895 59.3029 105.885 70.5158 95.1609 83.0424C91.6624 87.1212 80.9385 94.79 72.5724 98.8687C71.8879 99.2048 71.1577 99.2048 70.458 98.8687C62.0919 94.79 51.368 87.1365 47.8695 83.0424C37.1456 70.5158 46.1354 59.3029 61.164 63.1678H61.1792ZM71.5228 106.66C-14.7852 35.1051 21.7824 147.906 71.5228 106.66C121.263 147.906 157.831 35.1051 71.5228 106.66Z" fill="#FFA66B"/>
</svg>
