<svg width="501" height="116" viewBox="0 0 501 116" fill="none" xmlns="http://www.w3.org/2000/svg">
<path fill-rule="evenodd" clip-rule="evenodd" d="M47.677 16.297C50.6882 16.297 53.38 16.8913 55.7525 18.057C58.125 19.2228 59.9955 21.0285 61.3415 23.4513C62.7102 25.8742 63.3946 28.9828 63.3946 32.7999V54.3999H54.5891V33.9428C54.5891 30.6056 53.8135 28.1142 52.2394 26.4685C50.6654 24.8228 48.4754 23.9999 45.6467 23.9999C43.5708 23.9999 41.7458 24.4342 40.149 25.2799C38.5521 26.1256 37.3203 27.3828 36.4534 29.0513C35.5866 30.7199 35.1531 32.8228 35.1531 35.3828V54.4456H26.3477V2.03418H35.1531V21.1199C36.2253 19.9542 37.5028 18.9942 38.9856 18.2399C41.4949 16.937 44.392 16.297 47.677 16.297Z" fill="white"/>
<path fill-rule="evenodd" clip-rule="evenodd" d="M149.419 98.7197C148.735 97.4626 147.777 96.4797 146.568 95.7712C145.359 95.0854 143.967 94.7197 142.393 94.7197C140.819 94.7197 139.451 95.0854 138.196 95.7712C136.964 96.4797 135.983 97.4626 135.276 98.7197C134.569 99.9769 134.227 101.417 134.227 103.017C134.227 104.617 134.592 106.08 135.322 107.337C136.052 108.594 137.078 109.577 138.401 110.285C139.724 110.994 141.253 111.36 142.986 111.36C144.332 111.36 145.564 111.131 146.659 110.674C147.754 110.217 148.667 109.577 149.419 108.708L147.8 106.811C147.207 107.474 146.522 107.954 145.724 108.297C144.925 108.64 144.059 108.777 143.1 108.777C141.937 108.777 140.911 108.548 139.998 108.068C139.108 107.588 138.401 106.925 137.899 106.08C137.534 105.44 137.306 104.754 137.192 104H150.4C150.4 103.863 150.446 103.703 150.446 103.543C150.446 103.383 150.446 103.223 150.446 103.108C150.446 101.417 150.104 99.954 149.419 98.6969V98.7197ZM137.443 101.828C137.534 101.074 137.74 100.411 138.082 99.7712C138.538 98.9483 139.154 98.2854 139.952 97.8283C140.751 97.3712 141.663 97.1426 142.69 97.1426C143.716 97.1426 144.652 97.3712 145.45 97.8283C146.249 98.2854 146.864 98.9254 147.298 99.7483C147.64 100.365 147.845 101.051 147.914 101.805H137.443V101.828Z" fill="white"/>
<path fill-rule="evenodd" clip-rule="evenodd" d="M125.238 110.217C123.892 110.217 122.592 110.034 121.383 109.669C120.174 109.303 119.216 108.846 118.509 108.32L119.741 105.989C120.425 106.469 121.292 106.857 122.318 107.177C123.345 107.497 124.394 107.68 125.444 107.68C126.812 107.68 127.793 107.497 128.409 107.086C129.002 106.697 129.322 106.149 129.322 105.463C129.322 104.96 129.139 104.549 128.774 104.251C128.409 103.954 127.93 103.749 127.314 103.611C126.698 103.474 126.037 103.337 125.307 103.223C124.577 103.109 123.824 102.971 123.094 102.789C122.364 102.606 121.68 102.377 121.064 102.057C120.448 101.737 119.969 101.303 119.581 100.731C119.216 100.16 119.033 99.4057 119.033 98.4686C119.033 97.5314 119.307 96.6172 119.855 95.8857C120.402 95.1543 121.201 94.5829 122.204 94.1714C123.208 93.7829 124.417 93.5771 125.809 93.5771C126.881 93.5771 127.953 93.7143 129.048 93.9657C130.143 94.2172 131.033 94.5829 131.74 95.0629L130.485 97.3943C129.755 96.9143 128.98 96.5714 128.181 96.3886C127.383 96.2057 126.584 96.1143 125.786 96.1143C124.486 96.1143 123.527 96.32 122.889 96.7543C122.25 97.1657 121.931 97.7143 121.931 98.3772C121.931 98.9257 122.113 99.36 122.501 99.6571C122.889 99.9543 123.368 100.183 123.984 100.343C124.6 100.503 125.261 100.64 125.991 100.754C126.721 100.869 127.474 101.006 128.204 101.189C128.934 101.371 129.618 101.6 130.211 101.92C130.805 102.217 131.306 102.651 131.694 103.223C132.082 103.794 132.265 104.526 132.265 105.44C132.265 106.423 131.968 107.269 131.398 108C130.827 108.709 130.006 109.28 128.98 109.669C127.93 110.08 126.676 110.263 125.238 110.263V110.217Z" fill="white"/>
<path fill-rule="evenodd" clip-rule="evenodd" d="M115.383 97.5543C114.653 96.32 113.65 95.3372 112.372 94.6286C111.095 93.92 109.635 93.5771 108.038 93.5771C106.441 93.5771 104.935 93.9429 103.681 94.6286C102.403 95.3372 101.4 96.32 100.67 97.5771C99.9396 98.8343 99.5518 100.274 99.5518 101.874C99.5518 103.474 99.9168 104.914 100.67 106.171C101.4 107.429 102.403 108.411 103.681 109.143C104.958 109.851 106.395 110.217 108.038 110.217C109.68 110.217 111.095 109.851 112.372 109.143C113.65 108.434 114.653 107.429 115.383 106.194C116.113 104.937 116.478 103.497 116.478 101.874C116.478 100.251 116.113 98.7886 115.383 97.5543ZM112.783 104.914C112.304 105.783 111.665 106.469 110.821 106.926C110 107.406 109.064 107.634 108.015 107.634C106.966 107.634 106.03 107.406 105.209 106.926C104.388 106.446 103.726 105.783 103.247 104.914C102.745 104.046 102.517 103.04 102.517 101.874C102.517 100.709 102.768 99.7029 103.247 98.8343C103.749 97.9886 104.388 97.3257 105.209 96.8457C106.03 96.3657 106.966 96.1372 108.015 96.1372C109.064 96.1372 110 96.3657 110.821 96.8457C111.642 97.3257 112.304 97.9886 112.783 98.8343C113.262 99.68 113.49 100.686 113.49 101.874C113.49 103.063 113.262 104.023 112.783 104.914Z" fill="white"/>
<path fill-rule="evenodd" clip-rule="evenodd" d="M67.7295 110.034V93.7143H70.5582V96.4572C71.0144 95.6114 71.676 94.9486 72.5657 94.4686C73.6378 93.8743 74.9381 93.5771 76.4893 93.5771V96.4343C76.3753 96.4343 76.2384 96.4114 76.1472 96.4114H75.8278C74.2538 96.4114 72.9991 96.8914 72.0866 97.8286C71.1741 98.7657 70.6951 100.137 70.6951 101.92V110.034H67.7523H67.7295Z" fill="white"/>
<path fill-rule="evenodd" clip-rule="evenodd" d="M53.7914 110.217C52.3999 110.217 51.168 109.966 50.1187 109.44C49.0693 108.937 48.2481 108.137 47.6549 107.086C47.0618 106.034 46.7881 104.709 46.7881 103.109V93.7143H49.7308V102.766C49.7308 104.366 50.1187 105.577 50.8715 106.377C51.6471 107.177 52.7192 107.566 54.1108 107.566C55.1373 107.566 56.027 107.36 56.7798 106.926C57.5326 106.514 58.1257 105.897 58.5363 105.074C58.947 104.274 59.1523 103.291 59.1523 102.126V93.6914H62.095V110.011H59.2891V107.566C58.7873 108.274 58.1485 108.869 57.3501 109.303C56.2779 109.897 55.0917 110.194 53.7458 110.194L53.7914 110.217Z" fill="white"/>
<path fill-rule="evenodd" clip-rule="evenodd" d="M41.7922 97.5314C41.085 96.2971 40.1041 95.3143 38.8723 94.6286C37.6404 93.9429 36.226 93.5771 34.6292 93.5771C33.2377 93.5771 31.983 93.8743 30.8652 94.4914C30.0668 94.9257 29.3824 95.5429 28.8121 96.2972V93.7143H25.9834V116H28.9262V107.566C29.4737 108.274 30.1352 108.846 30.9108 109.28C32.0286 109.897 33.2605 110.217 34.6064 110.217C36.2032 110.217 37.6176 109.874 38.8494 109.166C40.0813 108.457 41.0394 107.497 41.7694 106.24C42.4766 104.983 42.8416 103.52 42.8416 101.874C42.8416 100.229 42.4766 98.7657 41.7694 97.5086L41.7922 97.5314ZM39.146 104.914C38.6669 105.783 38.0054 106.469 37.1842 106.926C36.3629 107.406 35.4276 107.634 34.3783 107.634C33.3289 107.634 32.4392 107.406 31.5952 106.926C30.7739 106.446 30.1124 105.783 29.6333 104.914C29.1543 104.046 28.9034 103.04 28.9034 101.874C28.9034 100.709 29.1543 99.7029 29.6333 98.8343C30.1124 97.9886 30.7739 97.3257 31.5952 96.8457C32.4164 96.3657 33.3517 96.1372 34.3783 96.1372C35.4048 96.1372 36.3629 96.3657 37.1842 96.8457C38.0054 97.3257 38.6669 97.9886 39.146 98.8343C39.6251 99.68 39.876 100.686 39.876 101.874C39.876 103.063 39.6251 104.023 39.146 104.914Z" fill="white"/>
<path fill-rule="evenodd" clip-rule="evenodd" d="M95.9026 97.5314C95.1954 96.2971 94.2145 95.3143 92.9826 94.6286C91.7507 93.9429 90.3364 93.5771 88.7395 93.5771C87.348 93.5771 86.0933 93.8743 84.9755 94.4914C84.1771 94.9257 83.4928 95.5429 82.9224 96.2972V93.7143H80.0938V116H83.0365V107.566C83.584 108.274 84.2456 108.846 85.0212 109.28C86.139 109.897 87.3708 110.217 88.7167 110.217C90.3136 110.217 91.7279 109.874 92.9598 109.166C94.1916 108.457 95.1498 107.497 95.8797 106.24C96.5869 104.983 96.9519 103.52 96.9519 101.874C96.9519 100.229 96.5869 98.7657 95.8797 97.5086L95.9026 97.5314ZM93.2792 104.914C92.8001 105.783 92.1386 106.469 91.3173 106.926C90.4961 107.406 89.5608 107.634 88.5114 107.634C87.4621 107.634 86.5724 107.406 85.7283 106.926C84.9071 106.446 84.2456 105.783 83.7665 104.914C83.2874 104.046 83.0365 103.04 83.0365 101.874C83.0365 100.709 83.2874 99.7029 83.7665 98.8343C84.2456 97.9886 84.9071 97.3257 85.7283 96.8457C86.5496 96.3657 87.4849 96.1372 88.5114 96.1372C89.538 96.1372 90.4961 96.3657 91.3173 96.8457C92.1386 97.3257 92.8001 97.9886 93.2792 98.8343C93.7582 99.68 94.0091 100.686 94.0091 101.874C94.0091 103.063 93.7582 104.023 93.2792 104.914Z" fill="white"/>
<path fill-rule="evenodd" clip-rule="evenodd" d="M281.32 97.5543C280.59 96.32 279.586 95.3372 278.308 94.6286C277.031 93.92 275.571 93.5771 273.974 93.5771C272.377 93.5771 270.872 93.9429 269.617 94.6286C268.339 95.3372 267.336 96.32 266.606 97.5771C265.876 98.8343 265.511 100.274 265.511 101.874C265.511 103.474 265.876 104.914 266.606 106.171C267.336 107.429 268.339 108.411 269.617 109.143C270.894 109.851 272.332 110.217 273.974 110.217C275.617 110.217 277.031 109.851 278.308 109.143C279.586 108.434 280.59 107.429 281.32 106.194C282.05 104.937 282.415 103.497 282.415 101.874C282.415 100.251 282.05 98.7886 281.32 97.5543ZM278.742 104.914C278.263 105.783 277.624 106.469 276.78 106.926C275.959 107.406 275.023 107.634 273.974 107.634C272.925 107.634 271.989 107.406 271.168 106.926C270.347 106.446 269.685 105.783 269.206 104.914C268.704 104.046 268.476 103.04 268.476 101.874C268.476 100.709 268.727 99.7029 269.206 98.8343C269.685 97.9886 270.347 97.3257 271.168 96.8457C271.989 96.3657 272.925 96.1372 273.974 96.1372C275.023 96.1372 275.959 96.3657 276.78 96.8457C277.601 97.3257 278.263 97.9886 278.742 98.8343C279.221 99.68 279.449 100.686 279.449 101.874C279.449 103.063 279.221 104.023 278.742 104.914Z" fill="white"/>
<path fill-rule="evenodd" clip-rule="evenodd" d="M258.438 110.034V93.7139H261.381V110.034H258.438Z" fill="white"/>
<path fill-rule="evenodd" clip-rule="evenodd" d="M259.899 90.5832C259.329 90.5832 258.85 90.4003 258.462 90.0346C258.074 89.6689 257.892 89.2117 257.892 88.686C257.892 88.1603 258.074 87.6803 258.462 87.2917C258.85 86.926 259.329 86.7432 259.899 86.7432C260.469 86.7432 260.948 86.926 261.313 87.2917C261.701 87.6574 261.884 88.0917 261.884 88.6403C261.884 89.1889 261.701 89.6689 261.336 90.0346C260.971 90.4232 260.492 90.606 259.899 90.606V90.5832Z" fill="white"/>
<path fill-rule="evenodd" clip-rule="evenodd" d="M247.717 110.217C246.371 110.217 245.071 110.034 243.862 109.669C242.653 109.303 241.694 108.846 240.987 108.32L242.219 105.989C242.904 106.469 243.77 106.857 244.797 107.177C245.823 107.497 246.873 107.68 247.922 107.68C249.291 107.68 250.295 107.497 250.888 107.086C251.481 106.697 251.8 106.149 251.8 105.463C251.8 104.96 251.618 104.549 251.253 104.251C250.888 103.954 250.409 103.749 249.793 103.611C249.2 103.474 248.515 103.337 247.785 103.223C247.055 103.109 246.303 102.971 245.573 102.789C244.843 102.606 244.158 102.377 243.542 102.057C242.926 101.737 242.447 101.303 242.059 100.731C241.694 100.16 241.512 99.4057 241.512 98.4686C241.512 97.5314 241.786 96.6172 242.333 95.8857C242.881 95.1543 243.679 94.5829 244.683 94.1714C245.687 93.7829 246.896 93.5771 248.287 93.5771C249.359 93.5771 250.432 93.7143 251.527 93.9657C252.621 94.2172 253.511 94.5829 254.218 95.0629L252.964 97.3943C252.234 96.9143 251.458 96.5714 250.66 96.3886C249.861 96.2057 249.063 96.1143 248.264 96.1143C246.964 96.1143 246.006 96.32 245.367 96.7543C244.728 97.1657 244.409 97.7143 244.409 98.3772C244.409 98.9257 244.592 99.36 244.979 99.6571C245.367 99.9543 245.846 100.183 246.462 100.343C247.055 100.503 247.74 100.64 248.47 100.754C249.2 100.869 249.952 101.006 250.682 101.189C251.412 101.371 252.097 101.6 252.69 101.92C253.306 102.217 253.785 102.651 254.173 103.223C254.561 103.771 254.743 104.526 254.743 105.44C254.743 106.423 254.469 107.269 253.876 108C253.306 108.709 252.485 109.28 251.458 109.669C250.409 110.08 249.177 110.263 247.717 110.263V110.217Z" fill="white"/>
<path fill-rule="evenodd" clip-rule="evenodd" d="M232.318 110.217C230.973 110.217 229.672 110.034 228.463 109.669C227.254 109.303 226.296 108.846 225.589 108.32L226.821 105.989C227.528 106.469 228.372 106.857 229.398 107.177C230.425 107.497 231.474 107.68 232.524 107.68C233.892 107.68 234.873 107.497 235.489 107.086C236.105 106.697 236.402 106.149 236.402 105.463C236.402 104.96 236.219 104.549 235.854 104.251C235.489 103.954 235.01 103.749 234.394 103.611C233.801 103.474 233.117 103.337 232.387 103.223C231.657 103.109 230.904 102.971 230.174 102.789C229.444 102.606 228.76 102.377 228.144 102.057C227.528 101.737 227.026 101.303 226.661 100.731C226.296 100.16 226.114 99.4057 226.114 98.4686C226.114 97.5314 226.387 96.6172 226.935 95.8857C227.482 95.1543 228.281 94.5829 229.284 94.1714C230.288 93.7829 231.497 93.5771 232.889 93.5771C233.961 93.5771 235.033 93.7143 236.128 93.9657C237.223 94.2172 238.113 94.5829 238.82 95.0629L237.565 97.3943C236.835 96.9143 236.06 96.5714 235.261 96.3886C234.463 96.2057 233.664 96.1143 232.866 96.1143C231.566 96.1143 230.608 96.32 229.969 96.7543C229.33 97.1657 229.011 97.7143 229.011 98.3772C229.011 98.9257 229.193 99.36 229.581 99.6571C229.969 99.9543 230.448 100.183 231.064 100.343C231.657 100.503 232.341 100.64 233.071 100.754C233.801 100.869 234.554 101.006 235.284 101.189C236.014 101.371 236.698 101.6 237.291 101.92C237.885 102.217 238.386 102.651 238.774 103.223C239.162 103.771 239.345 104.526 239.345 105.44C239.345 106.423 239.071 107.269 238.478 108C237.907 108.709 237.086 109.28 236.06 109.669C235.01 110.08 233.778 110.263 232.318 110.263V110.217Z" fill="white"/>
<path fill-rule="evenodd" clip-rule="evenodd" d="M220.365 95.2C219.156 94.1029 217.445 93.5771 215.21 93.5771C213.909 93.5771 212.677 93.76 211.514 94.1257C210.328 94.4914 209.324 94.9943 208.48 95.68L209.712 97.8972C210.351 97.3714 211.126 96.9372 212.039 96.6172C212.951 96.2972 213.909 96.1372 214.867 96.1372C216.327 96.1372 217.422 96.48 218.13 97.1657C218.86 97.8514 219.225 98.8343 219.225 100.069V100.663H214.548C212.928 100.663 211.651 100.869 210.693 101.303C209.735 101.737 209.05 102.309 208.64 103.017C208.229 103.726 208.001 104.526 208.001 105.417C208.001 106.309 208.252 107.154 208.731 107.886C209.233 108.617 209.917 109.189 210.83 109.6C211.742 110.011 212.792 110.217 214.001 110.217C215.506 110.217 216.738 109.943 217.719 109.371C218.403 108.983 218.951 108.48 219.339 107.886V110.034H222.122V100.183C222.122 97.9429 221.529 96.2743 220.32 95.2H220.365ZM219.247 105.051C218.882 105.989 218.289 106.72 217.445 107.2C216.624 107.703 215.643 107.931 214.548 107.931C213.453 107.931 212.541 107.68 211.902 107.2C211.263 106.72 210.944 106.08 210.944 105.28C210.944 104.571 211.195 103.977 211.719 103.497C212.221 102.994 213.225 102.766 214.708 102.766H219.247V105.051Z" fill="white"/>
<path fill-rule="evenodd" clip-rule="evenodd" d="M204.282 97.5314C203.575 96.2971 202.594 95.3143 201.362 94.6286C200.131 93.9429 198.716 93.5771 197.119 93.5771C195.728 93.5771 194.473 93.8743 193.355 94.4914C192.557 94.9257 191.873 95.5429 191.302 96.2972V93.7143H188.474V116H191.416V107.566C191.964 108.274 192.625 108.846 193.401 109.28C194.519 109.897 195.751 110.217 197.097 110.217C198.693 110.217 200.108 109.874 201.34 109.166C202.572 108.457 203.53 107.497 204.26 106.24C204.967 104.983 205.332 103.52 205.332 101.874C205.332 100.229 204.967 98.7657 204.26 97.5086L204.282 97.5314ZM201.659 104.914C201.18 105.783 200.518 106.469 199.697 106.926C198.876 107.406 197.941 107.634 196.891 107.634C195.842 107.634 194.929 107.406 194.108 106.926C193.287 106.446 192.625 105.783 192.146 104.914C191.667 104.046 191.416 103.04 191.416 101.874C191.416 100.709 191.667 99.7029 192.146 98.8343C192.625 97.9886 193.287 97.3257 194.108 96.8457C194.929 96.3657 195.865 96.1372 196.891 96.1372C197.918 96.1372 198.876 96.3657 199.697 96.8457C200.518 97.3257 201.18 97.9886 201.659 98.8343C202.138 99.68 202.389 100.686 202.389 101.874C202.389 103.063 202.138 104.023 201.659 104.914Z" fill="white"/>
<path fill-rule="evenodd" clip-rule="evenodd" d="M295.188 93.5771C296.512 93.5771 297.698 93.8286 298.702 94.3543C299.728 94.8571 300.504 95.6572 301.074 96.6857C301.644 97.7143 301.941 99.0629 301.941 100.663V110.057H298.998V101.006C298.998 99.4286 298.61 98.24 297.858 97.44C297.082 96.64 296.01 96.2286 294.618 96.2286C293.569 96.2286 292.656 96.4343 291.881 96.8457C291.105 97.2571 290.512 97.8514 290.079 98.6514C289.668 99.4514 289.44 100.457 289.44 101.646V110.057H286.497V93.7371H289.326V96.2057C289.828 95.4972 290.489 94.9257 291.333 94.4914C292.428 93.8972 293.729 93.6 295.211 93.6L295.188 93.5771Z" fill="white"/>
<path fill-rule="evenodd" clip-rule="evenodd" d="M464.477 95.3143C463.268 94.2171 461.558 93.6914 459.322 93.6914C458.022 93.6914 456.79 93.8743 455.626 94.24C454.44 94.6057 453.436 95.1085 452.592 95.7943L453.824 98.0114C454.463 97.4857 455.239 97.0514 456.151 96.7314C457.064 96.4114 458.022 96.2514 458.98 96.2514C460.44 96.2514 461.535 96.5943 462.242 97.28C462.972 97.9657 463.337 98.9485 463.337 100.183V100.777H458.66C457.041 100.777 455.763 100.983 454.805 101.417C453.847 101.851 453.163 102.423 452.752 103.131C452.341 103.84 452.113 104.64 452.113 105.531C452.113 106.423 452.364 107.269 452.843 108C453.322 108.731 454.029 109.303 454.942 109.714C455.854 110.126 456.904 110.331 458.113 110.331C459.618 110.331 460.85 110.057 461.831 109.486C462.516 109.097 463.063 108.594 463.451 108V110.149H466.234V100.297C466.234 98.0571 465.641 96.3885 464.432 95.3143H464.477ZM463.337 105.051C462.972 105.989 462.379 106.72 461.535 107.2C460.713 107.703 459.733 107.931 458.638 107.931C457.543 107.931 456.63 107.68 455.991 107.2C455.353 106.72 455.033 106.08 455.033 105.28C455.033 104.571 455.284 103.977 455.809 103.497C456.311 102.994 457.314 102.766 458.797 102.766H463.337V105.051Z" fill="white"/>
<path fill-rule="evenodd" clip-rule="evenodd" d="M444.813 110.034V93.7139H447.779V110.034H444.813Z" fill="white"/>
<path fill-rule="evenodd" clip-rule="evenodd" d="M446.296 90.5832C445.726 90.5832 445.247 90.4003 444.882 90.0346C444.494 89.6689 444.312 89.2117 444.312 88.686C444.312 88.1603 444.494 87.6803 444.882 87.2917C445.27 86.926 445.726 86.7432 446.296 86.7432C446.866 86.7432 447.346 86.926 447.733 87.2917C448.121 87.6574 448.304 88.0917 448.304 88.6403C448.304 89.1889 448.121 89.6689 447.756 90.0346C447.391 90.4232 446.912 90.606 446.319 90.606L446.296 90.5832Z" fill="white"/>
<path fill-rule="evenodd" clip-rule="evenodd" d="M429.78 96.1604V93.7376H432.541V90.1719H435.483V93.7376H440.16V96.1604H435.483V104.983C435.483 105.875 435.711 106.538 436.145 107.018C436.578 107.498 437.217 107.726 438.038 107.726C438.951 107.726 439.726 107.475 440.342 106.949L441.255 109.075C440.799 109.463 440.274 109.738 439.635 109.943C439.019 110.126 438.358 110.218 437.696 110.218C436.054 110.218 434.776 109.783 433.886 108.892C432.997 108.023 432.541 106.743 432.541 105.098V96.1376H429.78V96.1604Z" fill="white"/>
<path fill-rule="evenodd" clip-rule="evenodd" d="M377.883 96.1604V93.7376H380.643V90.1719H383.586V93.7376H388.262V96.1604H383.586V104.983C383.586 105.875 383.814 106.538 384.247 107.018C384.681 107.498 385.32 107.726 386.141 107.726C387.053 107.726 387.829 107.475 388.445 106.949L389.357 109.075C388.901 109.463 388.376 109.738 387.738 109.943C387.122 110.126 386.46 110.218 385.799 110.218C384.156 110.218 382.901 109.783 381.989 108.892C381.099 108.023 380.643 106.743 380.643 105.098V96.1376H377.883V96.1604Z" fill="white"/>
<path fill-rule="evenodd" clip-rule="evenodd" d="M375.054 97.5543C374.324 96.32 373.321 95.3372 372.043 94.6286C370.766 93.92 369.306 93.5771 367.686 93.5771C366.066 93.5771 364.584 93.9429 363.329 94.6286C362.051 95.3372 361.048 96.32 360.318 97.5771C359.588 98.8343 359.223 100.274 359.223 101.874C359.223 103.474 359.588 104.914 360.318 106.171C361.048 107.429 362.051 108.411 363.329 109.143C364.606 109.851 366.043 110.217 367.686 110.217C369.328 110.217 370.743 109.851 372.043 109.143C373.321 108.434 374.324 107.429 375.054 106.194C375.784 104.937 376.149 103.497 376.149 101.874C376.149 100.251 375.784 98.7886 375.054 97.5543ZM372.454 104.914C371.975 105.783 371.336 106.469 370.515 106.926C369.693 107.406 368.758 107.634 367.709 107.634C366.659 107.634 365.724 107.406 364.926 106.926C364.104 106.446 363.443 105.783 362.964 104.914C362.462 104.046 362.234 103.04 362.234 101.874C362.234 100.709 362.485 99.7029 362.964 98.8343C363.466 97.9886 364.104 97.3257 364.926 96.8457C365.747 96.3657 366.682 96.1372 367.709 96.1372C368.735 96.1372 369.693 96.3657 370.515 96.8457C371.336 97.3257 371.997 97.9886 372.454 98.8343C372.933 99.68 373.161 100.686 373.161 101.874C373.161 103.063 372.933 104.023 372.454 104.914Z" fill="white"/>
<path fill-rule="evenodd" clip-rule="evenodd" d="M355.573 97.5314C354.866 96.2971 353.885 95.3143 352.653 94.6286C351.421 93.9429 350.007 93.5771 348.41 93.5771C347.019 93.5771 345.764 93.8743 344.646 94.4914C343.848 94.9257 343.163 95.5429 342.616 96.2972V93.7143H339.787V116H342.73V107.566C343.277 108.274 343.939 108.846 344.715 109.28C345.832 109.897 347.064 110.217 348.41 110.217C350.007 110.217 351.421 109.874 352.653 109.166C353.885 108.457 354.843 107.497 355.573 106.24C356.28 104.983 356.645 103.52 356.645 101.874C356.645 100.229 356.28 98.7657 355.573 97.5086V97.5314ZM352.95 104.914C352.471 105.783 351.809 106.469 350.988 106.926C350.167 107.406 349.231 107.634 348.182 107.634C347.133 107.634 346.243 107.406 345.399 106.926C344.578 106.446 343.916 105.783 343.437 104.914C342.958 104.046 342.707 103.04 342.707 101.874C342.707 100.709 342.958 99.7029 343.437 98.8343C343.916 97.9886 344.578 97.3257 345.399 96.8457C346.22 96.3657 347.155 96.1372 348.182 96.1372C349.209 96.1372 350.167 96.3657 350.988 96.8457C351.809 97.3257 352.471 97.9886 352.95 98.8343C353.429 99.68 353.68 100.686 353.68 101.874C353.68 103.063 353.429 104.023 352.95 104.914Z" fill="white"/>
<path fill-rule="evenodd" clip-rule="evenodd" d="M406.01 97.7832C405.326 96.5261 404.368 95.5432 403.159 94.8346C401.95 94.1489 400.558 93.7832 398.984 93.7832C397.41 93.7832 396.041 94.1489 394.787 94.8346C393.555 95.5432 392.574 96.5261 391.867 97.7832C391.16 99.0403 390.817 100.48 390.817 102.08C390.817 103.68 391.182 105.143 391.912 106.4C392.642 107.657 393.669 108.64 394.992 109.349C396.315 110.057 397.844 110.423 399.577 110.423C400.923 110.423 402.155 110.195 403.25 109.737C404.345 109.28 405.257 108.64 406.01 107.772L404.391 105.875C403.797 106.537 403.113 107.017 402.315 107.36C401.516 107.68 400.649 107.84 399.691 107.84C398.528 107.84 397.501 107.612 396.589 107.132C395.699 106.652 394.992 105.989 394.49 105.143C394.125 104.503 393.897 103.817 393.783 103.063H406.991C406.991 102.926 407.037 102.766 407.037 102.606C407.037 102.446 407.037 102.286 407.037 102.172C407.037 100.48 406.695 99.0175 406.01 97.7603V97.7832ZM393.829 100.732C393.92 99.9775 394.125 99.3146 394.467 98.6746C394.924 97.8518 395.539 97.1889 396.338 96.7318C397.136 96.2746 398.049 96.0461 399.075 96.0461C400.102 96.0461 401.037 96.2746 401.836 96.7318C402.634 97.1889 403.25 97.8289 403.683 98.6518C404.026 99.2689 404.231 99.9546 404.299 100.709H393.829V100.732Z" fill="white"/>
<path fill-rule="evenodd" clip-rule="evenodd" d="M419.88 93.5771C421.203 93.5771 422.389 93.8286 423.393 94.3543C424.397 94.8571 425.195 95.6572 425.765 96.6857C426.336 97.7143 426.632 99.0629 426.632 100.663V110.057H423.69V101.006C423.69 99.4286 423.302 98.24 422.549 97.44C421.773 96.64 420.701 96.2286 419.31 96.2286C418.26 96.2286 417.348 96.4343 416.572 96.8457C415.797 97.2571 415.203 97.8514 414.77 98.6514C414.359 99.4514 414.131 100.457 414.131 101.646V110.057H411.188V93.7371H414.017V96.2057C414.519 95.4972 415.181 94.9257 416.002 94.4914C417.097 93.8972 418.397 93.6 419.88 93.6V93.5771Z" fill="white"/>
<path fill-rule="evenodd" clip-rule="evenodd" d="M471.755 110.034V87.2002H474.72V110.034H471.755Z" fill="white"/>
<path fill-rule="evenodd" clip-rule="evenodd" d="M388.81 16.7539H397.593V48.6625C397.593 55.4739 395.928 60.4796 392.597 63.7025C389.267 66.9253 384.453 68.5253 378.111 68.5253C374.781 68.5253 371.564 68.0682 368.439 67.1539C365.314 66.2396 362.713 64.9139 360.592 63.1768L364.538 56.5482C366.135 57.9196 368.074 58.9939 370.378 59.7939C372.682 60.5939 375.077 60.9825 377.61 60.9825C381.488 60.9825 384.339 60.0453 386.119 58.171C387.898 56.2968 388.788 53.4625 388.788 49.6453V47.931C387.761 49.0739 386.529 50.0339 385.092 50.7882C382.674 52.0453 380.028 52.6853 377.108 52.6853C373.914 52.6853 371.108 52.091 368.667 50.9253C366.226 49.7596 364.333 47.931 362.964 45.4625C361.596 42.9939 360.934 39.8625 360.934 36.0682V16.7539H369.717V34.9253C369.717 38.3082 370.469 40.8225 371.998 42.4682C373.526 44.1139 375.693 44.9368 378.499 44.9368C380.552 44.9368 382.355 44.5253 383.883 43.6796C385.411 42.8339 386.598 41.5768 387.464 39.9082C388.331 38.2396 388.765 36.1596 388.765 33.6682V16.7539H388.81Z" fill="white"/>
<path fill-rule="evenodd" clip-rule="evenodd" d="M495.366 10.56C493.723 10.56 492.377 10.0343 491.328 9.00571C490.279 7.97714 489.754 6.72 489.754 5.28C489.754 3.84 490.279 2.51429 491.328 1.50857C492.377 0.502857 493.723 0 495.366 0C497.008 0 498.354 0.48 499.403 1.44C500.453 2.4 500.977 3.61143 500.977 5.07429C500.977 6.62857 500.453 7.93143 499.426 8.98286C498.4 10.0343 497.031 10.56 495.343 10.56H495.366Z" fill="white"/>
<path fill-rule="evenodd" clip-rule="evenodd" d="M490.939 54.3768V16.7539H499.722V54.3768H490.939Z" fill="white"/>
<path fill-rule="evenodd" clip-rule="evenodd" d="M477.481 16.7542V21.7599C476.226 20.2742 474.766 19.0856 473.055 18.2399C470.523 16.9828 467.671 16.3428 464.478 16.3428C460.919 16.3428 457.703 17.0971 454.805 18.6056C451.931 20.1142 449.65 22.2171 447.985 24.9371C446.319 27.6571 445.498 30.8342 445.498 34.4456C445.498 38.0571 446.319 41.3028 447.985 44.0228C449.65 46.7428 451.908 48.8685 454.805 50.3999C457.68 51.9313 460.919 52.6856 464.478 52.6856C467.671 52.6856 470.523 52.0456 473.055 50.7428C474.561 49.9656 475.907 48.9371 477.07 47.6571V49.6456C477.07 53.4399 476.112 56.2971 474.196 58.1942C472.279 60.0913 469.245 61.0513 465.139 61.0513C462.562 61.0513 460.029 60.6399 457.52 59.8171C455.011 58.9942 452.935 57.8971 451.292 56.5485L447.346 63.1771C449.445 64.9142 452.159 66.2399 455.467 67.1542C458.775 68.0685 462.151 68.5256 465.618 68.5256C472.188 68.5256 477.184 66.9256 480.652 63.7028C484.119 60.4799 485.853 55.4742 485.853 48.6628V16.7542H477.481ZM475.77 40.0456C474.812 41.6685 473.466 42.9256 471.732 43.8399C469.998 44.7542 468.036 45.2113 465.824 45.2113C463.611 45.2113 461.649 44.7542 459.893 43.8399C458.136 42.9256 456.79 41.6456 455.809 40.0456C454.851 38.4228 454.372 36.5485 454.372 34.4456C454.372 32.3428 454.851 30.4685 455.809 28.8456C456.767 27.2228 458.136 25.9885 459.893 25.1199C461.649 24.2513 463.634 23.8171 465.824 23.8171C468.014 23.8171 469.998 24.2513 471.732 25.1199C473.466 25.9885 474.812 27.2228 475.77 28.8456C476.728 30.4685 477.207 32.3428 477.207 34.4456C477.207 36.5485 476.728 38.4228 475.77 40.0456Z" fill="white"/>
<path fill-rule="evenodd" clip-rule="evenodd" d="M439.818 25.5546C438.107 22.6975 435.735 20.4346 432.724 18.7889C429.712 17.1432 426.245 16.3203 422.367 16.3203C418.489 16.3203 415.113 17.1432 412.101 18.7889C409.113 20.4346 406.741 22.6975 405.007 25.5775C403.273 28.4575 402.406 31.7946 402.406 35.5432C402.406 39.2917 403.273 42.5603 405.007 45.4632C406.741 48.366 409.113 50.6517 412.101 52.3203C415.113 53.9889 418.512 54.8117 422.367 54.8117C426.222 54.8117 429.712 53.9889 432.724 52.3203C435.758 50.6517 438.107 48.366 439.818 45.4632C441.529 42.5603 442.373 39.246 442.373 35.5432C442.373 31.8403 441.529 28.4117 439.818 25.5317V25.5546ZM432.085 41.8289C431.127 43.6117 429.804 44.9832 428.116 45.9203C426.427 46.8575 424.511 47.3375 422.344 47.3375C420.177 47.3375 418.352 46.8575 416.687 45.9203C415.021 44.9832 413.698 43.6117 412.717 41.8289C411.736 40.046 411.235 37.9432 411.235 35.566C411.235 33.1889 411.736 31.0175 412.717 29.2575C413.698 27.4975 415.021 26.1489 416.687 25.2117C418.352 24.2746 420.268 23.7946 422.412 23.7946C424.557 23.7946 426.427 24.2746 428.116 25.2117C429.804 26.1489 431.127 27.4975 432.085 29.2575C433.043 31.0175 433.522 33.1203 433.522 35.566C433.522 38.0117 433.043 40.046 432.085 41.8289Z" fill="white"/>
<path fill-rule="evenodd" clip-rule="evenodd" d="M319.986 2.10254V21.3711C318.937 20.1597 317.705 19.1768 316.336 18.3997C313.85 17.0054 311.044 16.3197 307.896 16.3197C304.291 16.3197 301.052 17.1197 298.155 18.7197C295.281 20.3197 293.022 22.5368 291.38 25.4168C289.737 28.274 288.916 31.6568 288.916 35.5654C288.916 39.474 289.737 42.834 291.38 45.714C293.022 48.5711 295.281 50.8111 298.155 52.434C301.029 54.0568 304.269 54.8568 307.896 54.8568C311.135 54.8568 313.987 54.1483 316.473 52.754C317.956 51.9082 319.233 50.834 320.328 49.4854V54.3768H328.7V2.10254H319.986ZM318.617 41.8283C317.614 43.6111 316.268 44.9825 314.602 45.9197C312.937 46.8568 311.044 47.3368 308.945 47.3368C306.846 47.3368 304.953 46.8568 303.288 45.9197C301.622 44.9825 300.299 43.6111 299.273 41.8283C298.269 40.0454 297.767 37.9425 297.767 35.5654C297.767 33.1883 298.269 31.0168 299.273 29.2568C300.276 27.4968 301.622 26.1483 303.288 25.2111C304.953 24.274 306.846 23.794 308.945 23.794C311.044 23.794 312.937 24.274 314.602 25.2111C316.268 26.1483 317.614 27.4968 318.617 29.2568C319.621 31.0168 320.123 33.1197 320.123 35.5654C320.123 38.0111 319.621 40.0454 318.617 41.8283Z" fill="white"/>
<path fill-rule="evenodd" clip-rule="evenodd" d="M268.727 16.3203C271.715 16.3203 274.407 16.9146 276.78 18.0803C279.152 19.246 281 21.0517 282.369 23.4746C283.737 25.8975 284.399 29.006 284.399 32.8003V54.3546H275.616V33.9203C275.616 30.5832 274.841 28.0917 273.267 26.446C271.693 24.8003 269.503 23.9775 266.697 23.9775C264.644 23.9775 262.796 24.4117 261.222 25.2575C259.625 26.1032 258.393 27.3603 257.526 29.0289C256.659 30.6975 256.226 32.8003 256.226 35.3375V54.3546H247.443V16.7546H255.815V21.6232C256.956 20.2517 258.37 19.1317 260.058 18.2632C262.568 16.9832 265.465 16.3203 268.75 16.3203H268.727Z" fill="white"/>
<path fill-rule="evenodd" clip-rule="evenodd" d="M238.158 20.2289C235.193 17.6232 230.973 16.3203 225.543 16.3203C222.555 16.3203 219.658 16.7089 216.852 17.486C214.069 18.2632 211.651 19.4289 209.643 20.9832L213.088 27.3832C214.502 26.2175 216.213 25.3032 218.243 24.6403C220.274 23.9775 222.35 23.6575 224.471 23.6575C227.619 23.6575 229.946 24.366 231.497 25.806C233.048 27.246 233.824 29.2346 233.824 31.8175V32.3889H224.129C220.342 32.3889 217.285 32.8917 214.981 33.8746C212.7 34.8575 211.035 36.206 210.031 37.8975C209.027 39.5889 208.525 41.486 208.525 43.6117C208.525 45.7375 209.096 47.7032 210.236 49.4175C211.377 51.1317 213.019 52.4575 215.118 53.4403C217.217 54.4003 219.681 54.8803 222.509 54.8803C225.84 54.8803 228.6 54.2632 230.767 53.0517C232.273 52.206 233.459 51.1317 234.326 49.8289V54.3775H242.63V32.3432C242.63 26.9032 241.147 22.8803 238.158 20.2746V20.2289ZM233.847 42.5832C233.094 44.5032 231.862 45.966 230.151 46.9489C228.44 47.9317 226.501 48.4346 224.357 48.4346C222.213 48.4346 220.342 47.9546 219.087 47.0175C217.81 46.0803 217.194 44.8003 217.194 43.2232C217.194 41.8289 217.719 40.6403 218.745 39.6575C219.772 38.6975 221.802 38.2175 224.79 38.2175H233.87V42.5832H233.847Z" fill="white"/>
<path fill-rule="evenodd" clip-rule="evenodd" d="M182.726 54.3542V16.7542H191.098V22.2628C192.17 20.5942 193.63 19.2913 195.409 18.3085C197.827 16.9828 200.838 16.3428 204.443 16.3428V24.7313C204.055 24.6399 203.713 24.5713 203.393 24.5485C203.074 24.5485 202.732 24.5028 202.412 24.5028C199.082 24.5028 196.436 25.4856 194.474 27.4285C192.512 29.3713 191.531 32.2742 191.531 36.1142V54.3542H182.748H182.726Z" fill="white"/>
<path fill-rule="evenodd" clip-rule="evenodd" d="M175.493 25.4168C173.828 22.5597 171.592 20.3197 168.741 18.7197C165.912 17.1197 162.65 16.3197 158.932 16.3197C155.898 16.3197 153.115 17.0054 150.605 18.3997C149.214 19.154 147.982 20.1597 146.91 21.3711V2.10254H138.127V54.354H146.499V49.3711C147.617 50.7425 148.94 51.8625 150.445 52.7311C152.932 54.1483 155.761 54.834 158.954 54.834C162.65 54.834 165.935 54.034 168.764 52.4111C171.592 50.7882 173.851 48.5482 175.516 45.6911C177.181 42.834 178.003 39.4511 178.003 35.5425C178.003 31.634 177.181 28.274 175.516 25.394L175.493 25.4168ZM167.577 41.8283C166.596 43.6111 165.273 44.9825 163.608 45.9197C161.943 46.8568 160.049 47.3368 157.951 47.3368C155.852 47.3368 153.936 46.8568 152.248 45.9197C150.56 44.9825 149.214 43.6111 148.233 41.8283C147.252 40.0454 146.75 37.9425 146.75 35.5654C146.75 33.1883 147.252 31.0168 148.233 29.2568C149.214 27.4968 150.56 26.1483 152.248 25.2111C153.936 24.274 155.829 23.794 157.951 23.794C160.072 23.794 161.943 24.274 163.608 25.2111C165.273 26.1483 166.596 27.4968 167.577 29.2568C168.558 31.0168 169.06 33.1197 169.06 35.5654C169.06 38.0111 168.558 40.0454 167.577 41.8283Z" fill="white"/>
<path fill-rule="evenodd" clip-rule="evenodd" d="M103.499 25.737C101.857 22.8341 99.621 20.5713 96.7467 18.9713C93.8952 17.3713 90.633 16.5713 86.9831 16.5713C83.3331 16.5713 79.8885 17.3941 76.9686 19.0399C74.0486 20.6856 71.7446 22.9484 70.0793 25.8284C68.414 28.7084 67.5928 32.0456 67.5928 35.7941C67.5928 39.5427 68.4596 42.8113 70.1477 45.7141C71.8586 48.617 74.2767 50.9027 77.3792 52.5713C80.5044 54.2399 84.1316 55.0627 88.3062 55.0627C91.5911 55.0627 94.5111 54.537 97.066 53.4856C99.621 52.4341 101.743 50.9256 103.431 48.937L98.7313 43.5199C97.4082 44.937 95.9254 45.9656 94.2373 46.6056C92.5492 47.2684 90.6558 47.5884 88.5343 47.5884C86.0934 47.5884 83.9491 47.1084 82.0557 46.1713C80.1851 45.2341 78.7251 43.8856 77.6986 42.1484C77.037 41.0513 76.6036 39.8627 76.3526 38.5599H105.803C105.849 38.1256 105.894 37.6913 105.917 37.2113C105.94 36.7313 105.963 36.3199 105.963 35.9541C105.963 31.9999 105.142 28.5713 103.499 25.6684V25.737ZM94.3514 32.777H76.307C76.5123 31.3599 76.9229 30.0799 77.5389 28.937C78.4514 27.2684 79.7288 25.9656 81.3257 25.0284C82.9453 24.0913 84.8387 23.6113 86.9831 23.6113C89.1274 23.6113 90.9524 24.0913 92.5721 25.0284C94.1917 25.9656 95.4692 27.2684 96.4045 28.8913C97.066 30.057 97.4767 31.337 97.6592 32.7541H94.3514V32.777Z" fill="white"/>
<path fill-rule="evenodd" clip-rule="evenodd" d="M12.9345 54.9029C8.80548 54.9029 5.6346 53.8286 3.3762 51.7029C1.11779 49.5544 0 46.4001 0 42.2401V8.50293H8.78267V17.0972H18.8428V24.1372H8.78267V42.0344C8.78267 43.8172 9.23891 45.2115 10.1514 46.1944C11.0639 47.1772 12.3414 47.6801 13.9838 47.6801C15.9457 47.6801 17.5882 47.1544 18.9113 46.1258L21.375 52.3886C20.3484 53.2344 19.0709 53.8744 17.5882 54.2858C16.0826 54.7201 14.5313 54.9258 12.9573 54.9258L12.9345 54.9029Z" fill="white"/>
<path fill-rule="evenodd" clip-rule="evenodd" d="M320.875 104.251C323.111 104.251 324.936 102.423 324.936 100.183C324.936 97.9428 323.111 96.1143 320.875 96.1143C318.639 96.1143 316.814 97.9428 316.814 100.183C316.814 102.423 318.639 104.251 320.875 104.251Z" fill="white"/>
<path fill-rule="evenodd" clip-rule="evenodd" d="M169.585 104.251C171.821 104.251 173.646 102.423 173.646 100.183C173.646 97.9428 171.821 96.1143 169.585 96.1143C167.349 96.1143 165.524 97.9428 165.524 100.183C165.524 102.423 167.349 104.251 169.585 104.251Z" fill="white"/>
</svg>
