<svg width="476" height="503" viewBox="0 0 476 503" fill="none" xmlns="http://www.w3.org/2000/svg">
<path fill-rule="evenodd" clip-rule="evenodd" d="M209.879 3.23603C219.599 1.06182 228.61 0.101126 236.405 0H236.81H237.975H238.025H239.595C247.34 0.101126 256.351 1.06182 265.969 3.23603C274.726 5.20798 283.99 8.19119 293.305 12.4385C313.3 21.5904 334.916 32.8659 356.177 45.1021C377.591 57.4395 398.7 70.7881 417.582 84.0861C425.935 89.9514 433.174 96.4741 439.198 102.997C445.93 110.278 451.246 117.66 455.245 124.334L455.852 125.345L456.055 125.699L456.257 126.053L456.46 126.407L456.865 127.115C460.661 133.891 464.306 142.132 467.242 151.537C469.925 160.082 471.95 169.588 472.912 179.802C474.988 201.696 476 226.016 476 250.539C476 275.265 474.937 300.192 472.912 323.148C472.001 333.311 469.976 342.817 467.293 351.311C464.357 360.766 460.611 369.059 456.814 375.885L456.055 377.25L455.498 378.261L455.296 378.615C451.296 385.34 445.981 392.722 439.248 400.003C433.224 406.526 426.036 413.049 417.633 418.914C398.751 432.161 377.641 445.56 356.279 457.898C335.017 470.134 313.452 481.41 293.406 490.561C284.041 494.859 274.777 497.792 266.019 499.764C256.401 501.938 247.39 502.899 239.645 503H238.076H237.317H236.912H236.456C228.66 502.899 219.599 501.938 209.93 499.764C201.223 497.792 192.01 494.809 182.746 490.511C161.839 480.853 139.717 469.275 118.253 456.887C96.992 444.65 76.4394 431.605 58.4686 418.813C50.0653 412.846 42.877 406.324 36.8023 399.75C30.1202 392.52 24.8049 385.188 20.8057 378.514L20.0464 377.149L19.8439 376.795L19.6414 376.441L19.4389 376.087L19.2364 375.733C15.4398 368.958 11.6937 360.615 8.75763 351.16C6.12528 342.665 4.10039 333.21 3.18919 322.996C1.06307 300.192 0 275.265 0 250.59C0 226.067 1.01244 201.746 3.08795 179.852C4.04977 169.639 6.12528 160.082 8.75763 151.537C11.6937 142.132 15.3385 133.84 19.1352 127.115L19.3883 126.66L19.8945 125.75L20.7045 124.385C24.653 117.761 29.9683 110.429 36.7011 103.199C42.7757 96.6257 50.0147 90.1031 58.3673 84.1367C76.3382 71.3948 96.8908 58.2991 118.152 46.0628C139.565 33.7255 161.687 22.1466 182.645 12.4385C191.959 8.14063 201.172 5.15742 209.829 3.18546L209.879 3.23603ZM159.308 274.86C170.951 288.36 206.64 313.743 234.482 327.243C236.76 328.356 239.19 328.356 241.518 327.243C269.36 313.743 305.049 288.411 316.692 274.86C352.381 233.398 322.463 196.285 272.448 209.078C262.425 212.061 252.25 217.016 245.619 220.606C240.708 223.235 235.292 223.235 230.432 220.606C223.801 217.067 213.676 212.111 203.602 209.078C153.588 196.285 123.67 233.398 159.359 274.86H159.308ZM238.025 353.03C403.56 489.55 525.255 116.194 238.025 353.03C-49.2047 116.194 72.4909 489.55 238.025 353.03ZM238.025 103.856C211.55 103.856 190.086 125.295 190.086 151.739C190.086 178.184 212.664 197.802 234.229 209.988C236.659 211.353 239.392 211.353 241.822 209.988C263.387 197.802 285.965 177.981 285.965 151.739C285.965 125.497 264.501 103.856 238.025 103.856Z" fill="white"/>
</svg>
