<svg width="405" height="401" viewBox="0 0 405 401" fill="none" xmlns="http://www.w3.org/2000/svg">
<path d="M195.903 0V43.6694H137.06L195.903 0Z" fill="white"/>
<path d="M195.903 54.7588H164.141V102.952H195.903V54.7588Z" fill="white"/>
<path d="M153.489 102.953L55.5317 102.198L119.999 53.9736H153.489V102.953Z" fill="white"/>
<path d="M195.903 114.073H103.412V161.324H195.903V114.073Z" fill="white"/>
<path d="M38.001 112.818H91.5039V161.326H1.21191V141.156L38.001 112.818Z" fill="white"/>
<path d="M30.7775 172.762H0.585938V222.526H30.7775V172.762Z" fill="white"/>
<path d="M195.872 172.762H165.681V222.526H195.872V172.762Z" fill="white"/>
<path d="M152.706 172.762H39.8877V222.526H152.706V172.762Z" fill="white"/>
<path d="M30.5568 292.932H0.365234V342.696H30.5568V292.932Z" fill="white"/>
<path d="M195.872 292.932H165.681V342.696H195.872V292.932Z" fill="white"/>
<path d="M152.454 292.932H39.6362V342.696H152.454V292.932Z" fill="white"/>
<path d="M92.1346 350.675H0.585938V400.439H92.1346V350.675Z" fill="white"/>
<path d="M195.905 350.675H101.78V400.439H195.905V350.675Z" fill="white"/>
<path d="M92.1346 231.761H0.585938V281.525H92.1346V231.761Z" fill="white"/>
<path d="M195.904 232.862H101.528V282.627H195.904V232.862Z" fill="white"/>
<path d="M209.191 0V43.6694H268.035L209.191 0Z" fill="white"/>
<path d="M209.193 102.985H240.955V54.7919L209.193 54.7919V102.985Z" fill="white"/>
<path d="M251.604 102.953L349.562 102.198L285.095 53.9736H251.604V102.953Z" fill="white"/>
<path d="M209.193 161.358H301.685V114.107L209.193 114.107V161.358Z" fill="white"/>
<path d="M367.092 112.818H313.558V161.326H403.881V141.156L367.092 112.818Z" fill="white"/>
<path d="M374.318 222.525H404.51V172.761H374.318V222.525Z" fill="white"/>
<path d="M209.223 222.525H239.415V172.761H209.223V222.525Z" fill="white"/>
<path d="M252.39 222.525H365.208V172.761H252.39V222.525Z" fill="white"/>
<path d="M374.509 342.726H404.7V292.961H374.509V342.726Z" fill="white"/>
<path d="M209.223 342.726H239.415V292.961H209.223V342.726Z" fill="white"/>
<path d="M252.642 342.726H365.46V292.961H252.642V342.726Z" fill="white"/>
<path d="M312.931 400.47H404.479V350.705H312.931V400.47Z" fill="white"/>
<path d="M209.192 400.47H303.316V350.705H209.192V400.47Z" fill="white"/>
<path d="M312.931 281.527H404.479V231.763H312.931V281.527Z" fill="white"/>
<path d="M209.192 282.595H303.568V232.83H209.192V282.595Z" fill="white"/>
</svg>
