<svg width="528" height="132" viewBox="0 0 528 132" fill="none" xmlns="http://www.w3.org/2000/svg">
<g clip-path="url(#clip0_2627_1292)">
<path d="M177 121.19C177.51 121.8 177.77 122.52 177.77 123.33C177.77 123.99 177.6 124.59 177.27 125.12C176.94 125.65 176.45 126.07 175.82 126.38C175.18 126.69 174.42 126.84 173.53 126.84H168.99V113.74H173.4C174.72 113.74 175.73 114.05 176.43 114.66C177.13 115.27 177.47 116.07 177.47 117.04C177.47 117.85 177.25 118.51 176.81 119.02C176.37 119.53 175.81 119.88 175.12 120.08C175.86 120.22 176.48 120.59 176.99 121.2L177 121.19ZM170.31 119.53H173.37C174.26 119.53 174.94 119.32 175.42 118.9C175.9 118.48 176.14 117.9 176.14 117.17C176.14 116.44 175.9 115.88 175.42 115.46C174.94 115.05 174.24 114.84 173.31 114.84H170.31V119.53ZM175.66 125.06C176.19 124.61 176.46 123.99 176.46 123.2C176.46 122.41 176.18 121.78 175.63 121.32C175.07 120.85 174.33 120.62 173.39 120.62H170.31V125.74H173.44C174.39 125.74 175.13 125.52 175.66 125.07V125.06Z" fill="#AAAAAA"/>
<path d="M194.311 116.6V126.84H193.001V125.04C192.701 125.68 192.241 126.16 191.611 126.5C190.991 126.84 190.291 127.01 189.511 127.01C188.291 127.01 187.291 126.63 186.511 125.88C185.731 125.12 185.351 124.03 185.351 122.59V116.61H186.641V122.44C186.641 123.55 186.921 124.4 187.471 124.99C188.031 125.58 188.791 125.87 189.751 125.87C190.711 125.87 191.521 125.56 192.111 124.93C192.701 124.31 192.991 123.39 192.991 122.17V116.6H194.301H194.311Z" fill="#AAAAAA"/>
<path d="M202.54 114.39C202.35 114.2 202.26 113.97 202.26 113.7C202.26 113.43 202.35 113.2 202.54 113.02C202.73 112.84 202.95 112.75 203.22 112.75C203.49 112.75 203.71 112.84 203.89 113.02C204.08 113.2 204.17 113.43 204.17 113.7C204.17 113.97 204.08 114.21 203.89 114.39C203.7 114.57 203.48 114.67 203.22 114.67C202.96 114.67 202.73 114.58 202.54 114.39ZM203.87 116.6V126.84H202.56V116.6H203.87Z" fill="#AAAAAA"/>
<path d="M213.411 112.96V126.83H212.101V112.96H213.411Z" fill="#AAAAAA"/>
<path d="M221.67 118.94C222.09 118.15 222.68 117.53 223.42 117.1C224.16 116.67 225 116.45 225.94 116.45C226.88 116.45 227.65 116.67 228.38 117.11C229.11 117.55 229.64 118.12 229.97 118.82V112.97H231.28V126.84H229.97V124.55C229.66 125.26 229.14 125.85 228.43 126.3C227.72 126.76 226.88 126.98 225.92 126.98C224.96 126.98 224.14 126.76 223.4 126.32C222.66 125.88 222.07 125.26 221.66 124.46C221.24 123.66 221.03 122.74 221.03 121.69C221.03 120.64 221.24 119.72 221.67 118.93V118.94ZM229.47 119.54C229.13 118.92 228.67 118.43 228.09 118.1C227.51 117.76 226.87 117.59 226.17 117.59C225.47 117.59 224.79 117.75 224.22 118.08C223.64 118.41 223.19 118.88 222.86 119.5C222.53 120.12 222.36 120.85 222.36 121.7C222.36 122.55 222.53 123.27 222.86 123.9C223.19 124.53 223.64 125.01 224.22 125.34C224.79 125.67 225.44 125.84 226.17 125.84C226.9 125.84 227.51 125.67 228.09 125.33C228.67 124.99 229.13 124.51 229.47 123.89C229.81 123.27 229.98 122.54 229.98 121.72C229.98 120.9 229.81 120.17 229.47 119.55V119.54Z" fill="#AAAAAA"/>
<path d="M239.52 114.39C239.33 114.2 239.24 113.97 239.24 113.7C239.24 113.43 239.33 113.2 239.52 113.02C239.71 112.84 239.93 112.75 240.2 112.75C240.47 112.75 240.69 112.84 240.87 113.02C241.06 113.2 241.15 113.43 241.15 113.7C241.15 113.97 241.06 114.21 240.87 114.39C240.68 114.57 240.46 114.67 240.2 114.67C239.94 114.67 239.71 114.58 239.52 114.39ZM240.85 116.6V126.84H239.54V116.6H240.85Z" fill="#AAAAAA"/>
<path d="M256.88 117.55C257.66 118.31 258.04 119.4 258.04 120.84V126.84H256.75V120.99C256.75 119.88 256.47 119.03 255.92 118.44C255.36 117.85 254.6 117.56 253.64 117.56C252.68 117.56 251.87 117.87 251.28 118.5C250.69 119.12 250.4 120.04 250.4 121.26V126.85H249.09V116.61H250.4V118.35C250.73 117.73 251.19 117.25 251.81 116.92C252.43 116.59 253.12 116.42 253.89 116.42C255.11 116.42 256.11 116.8 256.89 117.55H256.88Z" fill="#AAAAAA"/>
<path d="M273.001 117.13C273.711 117.58 274.221 118.15 274.541 118.84V116.61H275.851V127.11C275.851 128.05 275.651 128.88 275.241 129.6C274.831 130.32 274.271 130.88 273.541 131.28C272.811 131.67 271.991 131.87 271.071 131.87C269.761 131.87 268.671 131.56 267.801 130.93C266.931 130.31 266.391 129.46 266.181 128.38H267.471C267.691 129.09 268.121 129.66 268.751 130.09C269.381 130.52 270.151 130.73 271.071 130.73C271.731 130.73 272.331 130.59 272.851 130.31C273.381 130.03 273.791 129.61 274.091 129.06C274.391 128.51 274.541 127.86 274.541 127.11V124.58C274.211 125.28 273.701 125.86 272.991 126.31C272.281 126.76 271.451 126.99 270.491 126.99C269.531 126.99 268.711 126.77 267.971 126.33C267.231 125.89 266.641 125.27 266.231 124.47C265.811 123.67 265.601 122.75 265.601 121.7C265.601 120.65 265.811 119.73 266.231 118.94C266.651 118.15 267.231 117.53 267.971 117.1C268.711 116.67 269.551 116.45 270.491 116.45C271.431 116.45 272.291 116.68 273.001 117.12V117.13ZM274.031 119.54C273.691 118.92 273.231 118.43 272.651 118.1C272.071 117.76 271.431 117.59 270.731 117.59C270.031 117.59 269.351 117.75 268.781 118.08C268.201 118.41 267.751 118.88 267.421 119.5C267.091 120.12 266.921 120.85 266.921 121.7C266.921 122.55 267.091 123.27 267.421 123.9C267.751 124.53 268.201 125.01 268.781 125.34C269.351 125.67 270.001 125.84 270.731 125.84C271.461 125.84 272.071 125.67 272.651 125.33C273.231 124.99 273.691 124.51 274.031 123.89C274.371 123.27 274.541 122.54 274.541 121.72C274.541 120.9 274.371 120.17 274.031 119.55V119.54Z" fill="#AAAAAA"/>
<path d="M296.18 126.52C295.52 126.22 295.01 125.8 294.63 125.26C294.25 124.72 294.05 124.12 294.03 123.46H295.42C295.48 124.1 295.76 124.66 296.26 125.14C296.76 125.62 297.49 125.86 298.45 125.86C299.34 125.86 300.04 125.63 300.56 125.18C301.08 124.73 301.34 124.15 301.34 123.45C301.34 122.89 301.2 122.43 300.91 122.09C300.62 121.75 300.27 121.49 299.84 121.32C299.41 121.15 298.83 120.97 298.08 120.77C297.2 120.53 296.51 120.3 296 120.08C295.49 119.86 295.05 119.51 294.69 119.03C294.33 118.56 294.15 117.91 294.15 117.1C294.15 116.43 294.32 115.82 294.68 115.29C295.03 114.76 295.52 114.34 296.16 114.04C296.8 113.74 297.53 113.59 298.35 113.59C299.56 113.59 300.54 113.89 301.28 114.48C302.02 115.07 302.45 115.84 302.56 116.78H301.14C301.05 116.24 300.76 115.76 300.26 115.35C299.76 114.93 299.09 114.72 298.24 114.72C297.45 114.72 296.8 114.93 296.27 115.35C295.75 115.77 295.48 116.34 295.48 117.07C295.48 117.62 295.62 118.06 295.91 118.4C296.2 118.74 296.56 118.99 296.99 119.17C297.42 119.34 298.01 119.53 298.74 119.73C299.59 119.97 300.28 120.2 300.8 120.43C301.32 120.66 301.77 121.01 302.13 121.49C302.49 121.96 302.67 122.6 302.67 123.4C302.67 124.01 302.51 124.59 302.18 125.14C301.85 125.69 301.37 126.13 300.74 126.47C300.1 126.81 299.34 126.98 298.45 126.98C297.56 126.98 296.83 126.83 296.17 126.53L296.18 126.52Z" fill="#AAAAAA"/>
<path d="M312.341 126.34C311.571 125.91 310.961 125.3 310.521 124.5C310.081 123.71 309.851 122.78 309.851 121.72C309.851 120.66 310.081 119.73 310.521 118.94C310.971 118.15 311.581 117.53 312.361 117.1C313.131 116.67 314.001 116.45 314.971 116.45C315.941 116.45 316.801 116.67 317.591 117.1C318.371 117.53 318.981 118.14 319.431 118.94C319.881 119.74 320.101 120.66 320.101 121.72C320.101 122.78 319.881 123.7 319.431 124.49C318.981 125.29 318.361 125.91 317.571 126.34C316.781 126.77 315.911 126.99 314.951 126.99C313.991 126.99 313.121 126.77 312.351 126.34H312.341ZM316.811 125.38C317.391 125.07 317.851 124.61 318.211 123.99C318.571 123.37 318.741 122.61 318.741 121.71C318.741 120.81 318.571 120.05 318.221 119.43C317.871 118.81 317.411 118.35 316.831 118.04C316.261 117.73 315.631 117.58 314.961 117.58C314.291 117.58 313.661 117.73 313.081 118.04C312.501 118.35 312.051 118.81 311.701 119.43C311.361 120.05 311.181 120.81 311.181 121.71C311.181 122.61 311.351 123.37 311.701 123.99C312.041 124.61 312.501 125.07 313.071 125.38C313.641 125.69 314.261 125.84 314.941 125.84C315.621 125.84 316.241 125.69 316.811 125.38Z" fill="#AAAAAA"/>
<path d="M329.05 112.96V126.83H327.74V112.96H329.05Z" fill="#AAAAAA"/>
<path d="M346.15 116.6V126.84H344.84V125.04C344.54 125.68 344.08 126.16 343.45 126.5C342.83 126.84 342.13 127.01 341.35 127.01C340.13 127.01 339.13 126.63 338.35 125.88C337.57 125.12 337.19 124.03 337.19 122.59V116.61H338.48V122.44C338.48 123.55 338.76 124.4 339.31 124.99C339.87 125.58 340.63 125.87 341.59 125.87C342.55 125.87 343.36 125.56 343.95 124.93C344.54 124.31 344.83 123.39 344.83 122.17V116.6H346.14H346.15Z" fill="#AAAAAA"/>
<path d="M356.1 117.71V124.06C356.1 124.68 356.22 125.12 356.46 125.35C356.7 125.58 357.12 125.71 357.72 125.71H358.92V126.83H357.51C356.59 126.83 355.9 126.61 355.45 126.18C355 125.75 354.78 125.04 354.78 124.05V117.7H353.36V116.59H354.78V114.02H356.11V116.59H358.92V117.7H356.11L356.1 117.71Z" fill="#AAAAAA"/>
<path d="M366.301 114.39C366.111 114.2 366.021 113.97 366.021 113.7C366.021 113.43 366.111 113.2 366.301 113.02C366.491 112.84 366.711 112.75 366.981 112.75C367.251 112.75 367.471 112.84 367.651 113.02C367.841 113.2 367.931 113.43 367.931 113.7C367.931 113.97 367.841 114.21 367.651 114.39C367.461 114.57 367.241 114.67 366.981 114.67C366.721 114.67 366.491 114.58 366.301 114.39ZM367.631 116.6V126.84H366.321V116.6H367.631Z" fill="#AAAAAA"/>
<path d="M377.74 126.34C376.97 125.91 376.36 125.3 375.92 124.5C375.48 123.71 375.25 122.78 375.25 121.72C375.25 120.66 375.48 119.73 375.92 118.94C376.37 118.15 376.98 117.53 377.76 117.1C378.53 116.67 379.4 116.45 380.37 116.45C381.34 116.45 382.2 116.67 382.99 117.1C383.77 117.53 384.38 118.14 384.83 118.94C385.28 119.74 385.5 120.66 385.5 121.72C385.5 122.78 385.28 123.7 384.83 124.49C384.38 125.29 383.76 125.91 382.97 126.34C382.18 126.77 381.31 126.99 380.35 126.99C379.39 126.99 378.52 126.77 377.75 126.34H377.74ZM382.21 125.38C382.79 125.07 383.25 124.61 383.61 123.99C383.97 123.37 384.14 122.61 384.14 121.71C384.14 120.81 383.97 120.05 383.62 119.43C383.27 118.81 382.81 118.35 382.23 118.04C381.66 117.73 381.03 117.58 380.36 117.58C379.69 117.58 379.06 117.73 378.48 118.04C377.9 118.35 377.45 118.81 377.1 119.43C376.76 120.05 376.58 120.81 376.58 121.71C376.58 122.61 376.75 123.37 377.1 123.99C377.44 124.61 377.9 125.07 378.47 125.38C379.04 125.69 379.66 125.84 380.34 125.84C381.02 125.84 381.64 125.69 382.21 125.38Z" fill="#AAAAAA"/>
<path d="M400.94 117.55C401.72 118.31 402.1 119.4 402.1 120.84V126.84H400.81V120.99C400.81 119.88 400.53 119.03 399.98 118.44C399.42 117.85 398.66 117.56 397.7 117.56C396.74 117.56 395.93 117.87 395.34 118.5C394.75 119.12 394.46 120.04 394.46 121.26V126.85H393.15V116.61H394.46V118.35C394.79 117.73 395.25 117.25 395.87 116.92C396.49 116.59 397.18 116.42 397.95 116.42C399.17 116.42 400.17 116.8 400.95 117.55H400.94Z" fill="#AAAAAA"/>
<path d="M410.91 126.17C410.17 125.63 409.75 124.89 409.66 123.95H411.01C411.07 124.53 411.34 124.99 411.83 125.35C412.31 125.71 412.96 125.88 413.77 125.88C414.48 125.88 415.04 125.71 415.45 125.37C415.86 125.03 416.06 124.61 416.06 124.11C416.06 123.76 415.95 123.47 415.72 123.25C415.49 123.03 415.21 122.85 414.87 122.71C414.53 122.58 414.06 122.44 413.47 122.29C412.71 122.09 412.09 121.89 411.61 121.69C411.13 121.49 410.73 121.19 410.4 120.8C410.07 120.41 409.9 119.88 409.9 119.22C409.9 118.72 410.05 118.26 410.35 117.83C410.65 117.4 411.07 117.07 411.62 116.82C412.17 116.57 412.79 116.44 413.5 116.44C414.6 116.44 415.49 116.72 416.16 117.27C416.84 117.83 417.2 118.59 417.25 119.57H415.94C415.9 118.97 415.67 118.49 415.24 118.12C414.81 117.75 414.22 117.57 413.47 117.57C412.81 117.57 412.27 117.73 411.86 118.04C411.45 118.35 411.24 118.74 411.24 119.2C411.24 119.6 411.36 119.93 411.61 120.18C411.85 120.44 412.16 120.64 412.52 120.78C412.88 120.92 413.37 121.08 413.98 121.26C414.72 121.46 415.3 121.65 415.74 121.84C416.18 122.03 416.55 122.3 416.86 122.66C417.17 123.02 417.33 123.5 417.35 124.1C417.35 124.65 417.2 125.14 416.9 125.57C416.6 126 416.18 126.34 415.64 126.59C415.1 126.84 414.48 126.97 413.78 126.97C412.6 126.97 411.65 126.7 410.9 126.15L410.91 126.17Z" fill="#AAAAAA"/>
<path d="M442.73 120.22C441.99 120.91 440.89 121.25 439.41 121.25H436.77V126.84H435.46V113.74H439.42C440.88 113.74 441.99 114.08 442.73 114.77C443.47 115.46 443.85 116.37 443.85 117.51C443.85 118.65 443.48 119.54 442.74 120.23L442.73 120.22ZM442.48 117.5C442.48 116.63 442.24 115.96 441.75 115.51C441.26 115.06 440.48 114.84 439.41 114.84H436.77V120.13H439.41C441.46 120.13 442.48 119.25 442.48 117.51V117.5Z" fill="#AAAAAA"/>
<path d="M454.91 125.56L458.36 116.6H459.75L455.64 126.84H454.16L450.05 116.6H451.46L454.91 125.56Z" fill="#AAAAAA"/>
<path d="M468.48 117.71V124.06C468.48 124.68 468.6 125.12 468.84 125.35C469.08 125.58 469.5 125.71 470.1 125.71H471.3V126.83H469.89C468.97 126.83 468.28 126.61 467.83 126.18C467.38 125.75 467.16 125.04 467.16 124.05V117.7H465.74V116.59H467.16V114.02H468.49V116.59H471.3V117.7H468.49L468.48 117.71Z" fill="#AAAAAA"/>
<path d="M490.4 125.77H495.11V126.84H489.09V113.74H490.4V125.78V125.77Z" fill="#AAAAAA"/>
<path d="M503.93 117.71V124.06C503.93 124.68 504.05 125.12 504.29 125.35C504.53 125.58 504.95 125.71 505.55 125.71H506.75V126.83H505.34C504.42 126.83 503.73 126.61 503.28 126.18C502.83 125.75 502.61 125.04 502.61 124.05V117.7H501.19V116.59H502.61V114.02H503.94V116.59H506.75V117.7H503.94L503.93 117.71Z" fill="#AAAAAA"/>
<path d="M514.19 118.94C514.61 118.15 515.2 117.53 515.94 117.1C516.68 116.67 517.52 116.45 518.46 116.45C519.4 116.45 520.17 116.67 520.9 117.11C521.63 117.55 522.16 118.12 522.49 118.82V112.97H523.8V126.84H522.49V124.55C522.18 125.26 521.66 125.85 520.95 126.3C520.24 126.76 519.4 126.98 518.44 126.98C517.48 126.98 516.66 126.76 515.92 126.32C515.18 125.88 514.59 125.26 514.18 124.46C513.76 123.66 513.55 122.74 513.55 121.69C513.55 120.64 513.76 119.72 514.19 118.93V118.94ZM521.99 119.54C521.65 118.92 521.19 118.43 520.61 118.1C520.03 117.76 519.39 117.59 518.69 117.59C517.99 117.59 517.31 117.75 516.74 118.08C516.16 118.41 515.71 118.88 515.38 119.5C515.05 120.12 514.88 120.85 514.88 121.7C514.88 122.55 515.05 123.27 515.38 123.9C515.71 124.53 516.16 125.01 516.74 125.34C517.31 125.67 517.96 125.84 518.69 125.84C519.42 125.84 520.03 125.67 520.61 125.33C521.19 124.99 521.65 124.51 521.99 123.89C522.33 123.27 522.5 122.54 522.5 121.72C522.5 120.9 522.33 120.17 521.99 119.55V119.54Z" fill="#AAAAAA"/>
<path d="M193.33 65.1408H214.89V96.1208H203.68V88.7008C201.92 91.6008 199.88 93.8508 197.58 95.4508C195.27 97.0408 192.4 97.8408 188.98 97.8408C180.36 97.8408 173.46 95.2508 168.28 90.0608C163.09 84.8708 160.5 77.9608 160.5 69.3208C160.5 60.6808 163.09 53.7708 168.28 48.5808C173.47 43.3908 180.37 40.8008 188.98 40.8008C192.88 40.8008 196.49 41.3708 199.8 42.5108C203.11 43.6508 205.98 45.2808 208.4 47.4008C210.83 49.5208 212.8 52.0508 214.33 55.0008L204.19 60.4308C202.81 57.7608 200.81 55.7108 198.19 54.2508C195.57 52.8008 192.5 52.0708 188.98 52.0708C183.74 52.0708 179.56 53.6408 176.42 56.7808C173.28 59.9208 171.71 64.1108 171.71 69.3508C171.71 74.5908 173.28 78.7608 176.42 81.8808C179.56 85.0008 183.75 86.5608 188.98 86.5608C192.26 86.5608 195.17 85.9208 197.69 84.6308C200.21 83.3408 202.21 81.5108 203.69 79.1308V73.8508H193.34V65.1408H193.33Z" fill="white"/>
<path d="M258.23 60.2208C258.23 64.2708 257.25 67.8908 255.3 71.1108C253.35 74.3208 250.71 76.6708 247.38 78.1408L256.52 96.1308H245.67L237.03 79.6408L232.96 72.0008V96.1308H221.75V40.8008H240.03C245.31 40.8008 249.69 42.7008 253.17 46.5108C256.55 50.2208 258.24 54.7908 258.24 60.2208H258.23ZM238.59 72.0008C240.49 72.0008 242.36 71.0008 244.19 69.0008C246.02 67.0008 246.94 64.2608 246.94 60.7908C246.94 57.3208 246.29 54.6908 244.98 52.6208C243.67 50.5508 241.54 49.5108 238.59 49.5108H232.95V72.0008H238.59Z" fill="white"/>
<path d="M289.78 96.1308L280.86 56.3708L275.08 82.2108H286.22L279.65 89.8508H273.37L271.94 96.1308H260.38L274.01 40.8008H287.79L301.35 96.1308H289.78Z" fill="white"/>
<path d="M323.33 40.8008H335.9L321.48 69.8608V96.1308H310.2V69.8608L295.78 40.8008H308.35L315.85 59.0108L323.35 40.8008H323.33Z" fill="white"/>
<path d="M366.1 65.1408H387.66V96.1208H376.45V88.7008C374.69 91.6008 372.65 93.8508 370.35 95.4508C368.04 97.0408 365.17 97.8408 361.75 97.8408C353.13 97.8408 346.23 95.2508 341.05 90.0608C335.86 84.8708 333.27 77.9608 333.27 69.3208C333.27 60.6808 335.86 53.7708 341.05 48.5808C346.24 43.3908 353.14 40.8008 361.75 40.8008C365.65 40.8008 369.26 41.3708 372.57 42.5108C375.88 43.6508 378.75 45.2808 381.17 47.4008C383.6 49.5208 385.57 52.0508 387.1 55.0008L376.96 60.4308C375.58 57.7608 373.58 55.7108 370.96 54.2508C368.34 52.8008 365.27 52.0708 361.75 52.0708C356.51 52.0708 352.33 53.6408 349.19 56.7808C346.05 59.9208 344.48 64.1108 344.48 69.3508C344.48 74.5908 346.05 78.7608 349.19 81.8808C352.33 85.0008 356.52 86.5608 361.75 86.5608C365.03 86.5608 367.94 85.9208 370.46 84.6308C372.98 83.3408 374.98 81.5108 376.46 79.1308V73.8508H366.11V65.1408H366.1Z" fill="white"/>
<path d="M420.85 40.8701C426.56 40.8701 431.57 42.0401 435.88 44.3701C440.19 46.7001 443.51 50.0201 445.84 54.3301C448.17 58.6401 449.34 63.6501 449.34 69.3601C449.34 77.9701 446.76 84.8801 441.59 90.0601C436.42 95.2501 429.52 97.8401 420.89 97.8401C412.26 97.8401 405.34 95.2501 400.15 90.0601C394.96 84.8701 392.37 77.9601 392.37 69.3201C392.37 60.6801 394.96 53.7801 400.15 48.6201C405.34 43.4601 412.24 40.8701 420.85 40.8701ZM408.29 81.9201C411.43 85.0601 415.62 86.6301 420.85 86.6301C426.08 86.6301 430.27 85.0601 433.41 81.9201C436.55 78.7801 438.12 74.5901 438.12 69.3601C438.12 64.1301 436.55 59.9401 433.41 56.7901C430.27 53.6401 426.08 52.0801 420.85 52.0801C415.62 52.0801 411.43 53.6501 408.29 56.7901C405.15 59.9301 403.58 64.1201 403.58 69.3601C403.58 74.6001 405.15 78.7801 408.29 81.9201Z" fill="white"/>
<path d="M466.33 87.4905H478.39V96.1305H455.12V40.7305H466.33V87.4905Z" fill="white"/>
<path d="M500.17 40.8008C505.17 40.8008 509.79 42.0408 514.05 44.5108C518.31 46.9808 521.68 50.3508 524.15 54.6108C526.62 58.8708 527.86 63.5008 527.86 68.4908C527.86 73.4808 526.62 78.1208 524.15 82.3808C521.68 86.6408 518.31 90.0008 514.05 92.4508C509.79 94.9008 505.16 96.1308 500.17 96.1308H482.32V40.8008H500.17ZM500.1 87.4908C505.14 87.4908 509.12 85.6808 512.02 82.0608C514.92 78.4408 516.37 73.9108 516.37 68.4608C516.37 63.0108 514.92 58.4908 512.02 54.9008C509.12 51.3108 505.14 49.5108 500.1 49.5108H493.53V87.4908H500.1Z" fill="white"/>
<path d="M62.2398 0V13.9H43.5098L62.2398 0Z" fill="#727272"/>
<path d="M62.2399 17.4297H52.1299V32.7697H62.2399V17.4297Z" fill="#727272"/>
<path d="M48.7396 32.7697L17.5596 32.5297L38.0796 17.1797H48.7396V32.7697Z" fill="#727272"/>
<path d="M62.2398 36.3096H32.7998V51.3496H62.2398V36.3096Z" fill="#727272"/>
<path d="M11.9795 35.9102H29.0095V51.3502H0.269531V44.9302L11.9795 35.9102Z" fill="#727272"/>
<path d="M9.68031 54.9902H0.0703125V70.8302H9.68031V54.9902Z" fill="#727272"/>
<path d="M62.2301 54.9902H52.6201V70.8302H62.2301V54.9902Z" fill="#727272"/>
<path d="M48.4901 54.9902H12.5801V70.8302H48.4901V54.9902Z" fill="#727272"/>
<path d="M9.61 93.2402H0V109.08H9.61V93.2402Z" fill="#727272"/>
<path d="M62.2301 93.2402H52.6201V109.08H62.2301V93.2402Z" fill="#727272"/>
<path d="M48.41 93.2402H12.5V109.08H48.41V93.2402Z" fill="#727272"/>
<path d="M29.2103 111.62H0.0703125V127.46H29.2103V111.62Z" fill="#727272"/>
<path d="M62.2403 111.62H32.2803V127.46H62.2403V111.62Z" fill="#727272"/>
<path d="M29.2103 73.7695H0.0703125V89.6095H29.2103V73.7695Z" fill="#727272"/>
<path d="M62.2402 74.1201H32.2002V89.9601H62.2402V74.1201Z" fill="#FFD700"/>
<path d="M66.4697 0V13.9H85.1997L66.4697 0Z" fill="#FFD700"/>
<path d="M66.4701 32.7803H76.5801V17.4403H66.4701V32.7803Z" fill="#FFD700"/>
<path d="M79.9697 32.7697L111.15 32.5297L90.6297 17.1797H79.9697V32.7697Z" fill="#FFD700"/>
<path d="M66.4702 51.3604L95.9102 51.3604V36.3204H66.4702V51.3604Z" fill="#FFD700"/>
<path d="M116.729 35.9102H99.6895V51.3502H128.439V44.9302L116.729 35.9102Z" fill="#FFD700"/>
<path d="M119.03 70.8301H128.64V54.9901H119.03V70.8301Z" fill="#FFD700"/>
<path d="M66.4798 70.8301H76.0898V54.9901H66.4798V70.8301Z" fill="#FFD700"/>
<path d="M80.2199 70.8301H116.13V54.9901H80.2199V70.8301Z" fill="#FFD700"/>
<path d="M119.09 109.09H128.7V93.2498H119.09V109.09Z" fill="#FFD700"/>
<path d="M66.4798 109.09H76.0898V93.2498H66.4798V109.09Z" fill="#FFD700"/>
<path d="M80.3 109.09H116.21V93.2498H80.3V109.09Z" fill="#FFD700"/>
<path d="M99.4899 127.47H128.63V111.63H99.4899V127.47Z" fill="#FFD700"/>
<path d="M66.4697 127.47H96.4297V111.63H66.4697V127.47Z" fill="#FFD700"/>
<path d="M99.4899 89.6104H128.63V73.7703H99.4899V89.6104Z" fill="#FFD700"/>
<path d="M66.4698 89.9502H96.5098V74.1102H66.4698V89.9502Z" fill="#727272"/>
</g>
<defs>
<clipPath id="clip0_2627_1292">
<rect width="527.87" height="131.86" fill="white"/>
</clipPath>
</defs>
</svg>
