<svg width="529" height="186" viewBox="0 0 529 186" fill="none" xmlns="http://www.w3.org/2000/svg">
<g clip-path="url(#clip0_2631_4760)">
<path d="M71.8223 41.0518C73.4031 51.7499 67.0428 61.688 62.3001 67.4212C57.9251 72.7049 54.6734 78.859 53.3907 85.5157C48.6766 109.997 65.5926 120.994 74.7512 125.068C74.0649 124.218 73.3745 123.315 72.6924 122.375C71.3075 120.471 70.0044 118.338 68.8279 116.041C66.475 111.456 64.8451 106.013 64.7388 100.435C64.6694 97.6523 65.0085 94.8654 65.6416 92.2051C66.283 89.5408 67.2756 87.0195 68.4603 84.7025C69.6613 82.361 71.1686 80.375 72.3451 78.4422C73.5502 76.493 74.4938 74.5397 75.2986 72.709C76.8713 69.0272 77.6679 65.7621 78.06 63.4656C78.444 61.1609 78.444 59.8246 78.444 59.8246C78.444 59.8246 78.538 61.1568 78.3133 63.4942C78.0805 65.8234 77.5045 69.162 76.1646 73.0196C75.4702 74.9361 74.645 76.9956 73.542 79.0797C72.4432 81.1923 71.0992 83.2233 70.127 85.4544C69.1466 87.706 68.3663 90.117 67.9292 92.6179C67.5003 95.1146 67.3532 97.6891 67.5779 100.219C68.0069 105.29 69.7961 110.112 72.2185 114.165C73.4317 116.196 74.7512 118.072 76.1442 119.747C76.7406 120.467 77.3411 121.153 77.9375 121.811C76.3525 115.657 76.1156 103.839 86.4466 84.9314C102.836 54.9373 71.8263 41.0518 71.8263 41.0518H71.8223Z" fill="#255737"/>
<path d="M71.8961 0C32.1898 0 0 32.2007 0 71.9286C0 91.8783 8.11691 109.932 21.2298 122.955C34.2323 135.872 52.1328 143.853 71.8961 143.853C91.6593 143.853 109.564 135.868 122.562 122.955C135.683 109.928 143.8 91.8783 143.8 71.9286C143.796 32.2007 111.611 0 71.8961 0ZM77.1412 122.955C75.4174 123.131 73.6649 123.225 71.8961 123.225C70.1273 123.225 68.3748 123.135 66.6509 122.955C40.7969 120.328 20.6211 98.4819 20.6211 71.9286C20.6211 43.6017 43.5748 20.6322 71.892 20.6322C100.209 20.6322 123.171 43.6017 123.171 71.9286C123.171 98.486 102.999 120.332 77.1372 122.955H77.1412Z" fill="#255737"/>
<path d="M122.562 147.809C109.568 160.726 91.6672 168.706 71.8958 168.706C52.1244 168.706 34.2321 160.722 21.2295 147.809H122.558H122.562Z" fill="#255737"/>
<path d="M104.242 172.662C95.9449 180.904 84.5191 186 71.9006 186C59.282 186 47.8603 180.904 39.5596 172.662H104.242Z" fill="#255737"/>
<path d="M197.228 161.286H195.141L183.588 143.731V161.286H181.501V140.417H183.588L195.141 157.944V140.417H197.228V161.286Z" fill="white"/>
<path d="M202.019 148.7C202.685 147.437 203.613 146.46 204.797 145.774C205.982 145.087 207.318 144.744 208.813 144.744C210.308 144.744 211.701 145.104 212.828 145.819C213.952 146.534 214.765 147.449 215.259 148.565V144.981H217.346V161.282H215.259V157.669C214.74 158.785 213.919 159.704 212.796 160.432C211.672 161.159 210.332 161.523 208.78 161.523C207.228 161.523 205.978 161.175 204.797 160.477C203.613 159.782 202.689 158.793 202.019 157.522C201.354 156.247 201.019 154.776 201.019 153.105C201.019 151.434 201.354 149.967 202.019 148.7ZM214.45 149.668C213.911 148.671 213.18 147.907 212.256 147.368C211.329 146.828 210.312 146.563 209.197 146.563C208.082 146.563 207.007 146.82 206.092 147.339C205.177 147.858 204.454 148.61 203.927 149.595C203.4 150.579 203.135 151.748 203.135 153.101C203.135 154.453 203.4 155.606 203.927 156.611C204.454 157.616 205.177 158.384 206.092 158.912C207.007 159.439 208.041 159.704 209.197 159.704C210.353 159.704 211.329 159.435 212.256 158.899C213.18 158.36 213.911 157.596 214.45 156.599C214.989 155.602 215.255 154.449 215.255 153.133C215.255 151.818 214.985 150.665 214.45 149.668Z" fill="white"/>
<path d="M224.834 146.742V156.864C224.834 157.861 225.022 158.548 225.402 158.924C225.778 159.304 226.448 159.492 227.404 159.492H229.316V161.282H227.077C225.602 161.282 224.512 160.938 223.793 160.252C223.078 159.565 222.718 158.438 222.718 156.864V146.742H220.451V144.981H222.718V140.891H224.838V144.981H229.316V146.742H224.838H224.834Z" fill="white"/>
<path d="M246.864 144.981V161.282H244.777V158.417C244.299 159.431 243.564 160.207 242.567 160.747C241.57 161.286 240.459 161.552 239.225 161.552C237.277 161.552 235.684 160.951 234.45 159.746C233.216 158.54 232.6 156.795 232.6 154.507V144.981H234.658V154.266C234.658 156.039 235.1 157.392 235.986 158.328C236.873 159.263 238.082 159.729 239.614 159.729C241.145 159.729 242.44 159.231 243.376 158.238C244.311 157.241 244.777 155.782 244.777 153.849V144.981H246.864Z" fill="white"/>
<path d="M255.831 145.52C256.775 144.965 257.935 144.683 259.307 144.683V146.861H258.739C257.228 146.861 256.015 147.269 255.1 148.087C254.185 148.904 253.727 150.265 253.727 152.177V161.282H251.64V144.981H253.727V147.878C254.185 146.865 254.887 146.076 255.831 145.52Z" fill="white"/>
<path d="M277.127 153.939H263.605C263.667 155.173 263.965 156.227 264.5 157.101C265.039 157.976 265.742 158.638 266.62 159.087C267.494 159.537 268.45 159.758 269.484 159.758C270.836 159.758 271.976 159.431 272.903 158.773C273.826 158.115 274.439 157.232 274.737 156.117H276.947C276.547 157.71 275.697 159.01 274.394 160.015C273.091 161.02 271.453 161.523 269.484 161.523C267.952 161.523 266.579 161.18 265.366 160.493C264.153 159.807 263.201 158.83 262.515 157.567C261.829 156.305 261.485 154.825 261.485 153.133C261.485 151.442 261.824 149.958 262.498 148.683C263.177 147.408 264.12 146.436 265.333 145.758C266.547 145.079 267.931 144.744 269.484 144.744C271.036 144.744 272.392 145.083 273.557 145.758C274.721 146.436 275.615 147.347 276.244 148.491C276.869 149.636 277.184 150.906 277.184 152.3C277.184 153.015 277.164 153.563 277.123 153.943L277.127 153.939ZM274.337 149.133C273.83 148.279 273.14 147.629 272.262 147.192C271.387 146.755 270.432 146.534 269.398 146.534C267.846 146.534 266.522 147.033 265.427 148.026C264.333 149.023 263.728 150.424 263.605 152.234H275.068C275.088 151.021 274.843 149.987 274.337 149.129V149.133Z" fill="white"/>
<path d="M291.273 140.413V161.282H289.186V140.413H291.273Z" fill="white"/>
<path d="M308.434 146.489C309.668 147.694 310.284 149.439 310.284 151.728V161.282H308.226V151.965C308.226 150.195 307.784 148.839 306.898 147.903C306.011 146.967 304.802 146.501 303.27 146.501C301.739 146.501 300.444 147 299.508 147.993C298.573 148.99 298.107 150.453 298.107 152.382V161.278H296.02V144.977H298.107V147.756C298.626 146.759 299.369 145.999 300.346 145.471C301.322 144.944 302.425 144.679 303.658 144.679C305.607 144.679 307.2 145.279 308.434 146.485V146.489Z" fill="white"/>
<path d="M320.701 159.255L326.192 144.985H328.402L321.866 161.286H319.509L312.973 144.985H315.211L320.701 159.255Z" fill="white"/>
<path d="M345.922 153.939H332.4C332.462 155.173 332.76 156.227 333.295 157.101C333.834 157.976 334.537 158.638 335.415 159.087C336.289 159.537 337.245 159.758 338.279 159.758C339.631 159.758 340.771 159.431 341.698 158.773C342.621 158.115 343.234 157.232 343.532 156.117H345.742C345.342 157.71 344.492 159.01 343.189 160.015C341.886 161.02 340.248 161.523 338.279 161.523C336.747 161.523 335.374 161.18 334.161 160.493C332.948 159.807 331.996 158.83 331.31 157.567C330.623 156.305 330.28 154.825 330.28 153.133C330.28 151.442 330.619 149.958 331.293 148.683C331.971 147.408 332.915 146.436 334.128 145.758C335.342 145.079 336.726 144.744 338.279 144.744C339.831 144.744 341.187 145.083 342.351 145.758C343.516 146.436 344.41 147.347 345.039 148.491C345.664 149.636 345.979 150.906 345.979 152.3C345.979 153.015 345.959 153.563 345.918 153.943L345.922 153.939ZM343.132 149.133C342.625 148.279 341.935 147.629 341.057 147.192C340.182 146.755 339.226 146.534 338.193 146.534C336.641 146.534 335.317 147.033 334.222 148.026C333.128 149.023 332.523 150.424 332.4 152.234H343.863C343.883 151.021 343.638 149.987 343.132 149.129V149.133Z" fill="white"/>
<path d="M350.832 160.224C349.647 159.357 348.986 158.176 348.847 156.685H350.995C351.093 157.6 351.526 158.344 352.294 158.908C353.058 159.476 354.092 159.758 355.383 159.758C356.518 159.758 357.409 159.488 358.054 158.953C358.7 158.413 359.022 157.747 359.022 156.95C359.022 156.395 358.843 155.937 358.483 155.577C358.124 155.218 357.674 154.936 357.127 154.727C356.58 154.519 355.84 154.294 354.905 154.057C353.692 153.738 352.707 153.42 351.951 153.101C351.196 152.782 350.554 152.308 350.027 151.683C349.5 151.058 349.235 150.216 349.235 149.162C349.235 148.365 349.472 147.629 349.95 146.951C350.428 146.273 351.102 145.737 351.98 145.337C352.854 144.94 353.851 144.74 354.966 144.74C356.719 144.74 358.128 145.182 359.206 146.068C360.281 146.955 360.857 148.173 360.938 149.726H358.851C358.79 148.769 358.418 147.997 357.732 147.413C357.045 146.824 356.106 146.534 354.913 146.534C353.859 146.534 353.001 146.783 352.348 147.282C351.69 147.781 351.363 148.398 351.363 149.133C351.363 149.771 351.559 150.294 351.943 150.702C352.331 151.111 352.813 151.43 353.389 151.658C353.965 151.887 354.741 152.141 355.718 152.419C356.89 152.737 357.826 153.048 358.524 153.346C359.219 153.644 359.819 154.082 360.313 154.658C360.812 155.234 361.069 156.002 361.089 156.959C361.089 157.833 360.853 158.618 360.375 159.304C359.897 159.991 359.231 160.534 358.373 160.93C357.519 161.327 356.531 161.527 355.419 161.527C353.549 161.527 352.021 161.094 350.836 160.228L350.832 160.224Z" fill="white"/>
<path d="M367.74 146.742V156.864C367.74 157.861 367.928 158.548 368.307 158.924C368.683 159.304 369.353 159.492 370.309 159.492H372.221V161.282H369.982C368.508 161.282 367.417 160.938 366.698 160.252C365.983 159.565 365.624 158.438 365.624 156.864V146.742H363.356V144.981H365.624V140.891H367.744V144.981H372.221V146.742H367.744H367.74Z" fill="white"/>
<path d="M399.721 146.489C400.926 147.694 401.527 149.439 401.527 151.728V161.282H399.468V151.965C399.468 150.195 399.039 148.838 398.185 147.903C397.331 146.967 396.167 146.501 394.693 146.501C393.218 146.501 391.935 147.008 391.02 148.025C390.105 149.039 389.648 150.514 389.648 152.443V161.282H387.589V151.965C387.589 150.195 387.16 148.838 386.306 147.903C385.448 146.967 384.276 146.501 382.785 146.501C381.294 146.501 380.027 147.008 379.112 148.025C378.197 149.043 377.74 150.514 377.74 152.443V161.282H375.652V144.981H377.74V147.788C378.259 146.775 378.994 146.003 379.95 145.475C380.906 144.948 381.968 144.683 383.144 144.683C384.558 144.683 385.795 145.022 386.862 145.696C387.924 146.374 388.696 147.367 389.174 148.683C389.611 147.388 390.362 146.399 391.429 145.712C392.495 145.026 393.7 144.683 395.056 144.683C396.968 144.683 398.524 145.283 399.725 146.489H399.721Z" fill="white"/>
<path d="M420.837 153.939H407.315C407.377 155.173 407.675 156.227 408.21 157.101C408.749 157.976 409.452 158.638 410.33 159.087C411.204 159.537 412.16 159.758 413.194 159.758C414.546 159.758 415.686 159.431 416.613 158.773C417.536 158.115 418.149 157.232 418.447 156.117H420.657C420.257 157.71 419.407 159.01 418.104 160.015C416.801 161.02 415.163 161.523 413.194 161.523C411.662 161.523 410.289 161.18 409.076 160.493C407.863 159.807 406.911 158.83 406.225 157.567C405.538 156.305 405.195 154.825 405.195 153.133C405.195 151.442 405.534 149.958 406.208 148.683C406.887 147.408 407.83 146.436 409.043 145.758C410.257 145.079 411.641 144.744 413.194 144.744C414.746 144.744 416.102 145.083 417.267 145.758C418.431 146.436 419.325 147.347 419.954 148.491C420.579 149.636 420.894 150.906 420.894 152.3C420.894 153.015 420.874 153.563 420.833 153.943L420.837 153.939ZM418.047 149.133C417.54 148.279 416.85 147.629 415.972 147.192C415.097 146.755 414.141 146.534 413.108 146.534C411.556 146.534 410.232 147.033 409.137 148.026C408.043 149.023 407.438 150.424 407.315 152.234H418.778C418.798 151.021 418.553 149.987 418.047 149.129V149.133Z" fill="white"/>
<path d="M437.132 146.489C438.366 147.694 438.983 149.439 438.983 151.728V161.282H436.924V151.965C436.924 150.195 436.483 148.839 435.596 147.903C434.71 146.967 433.501 146.501 431.969 146.501C430.437 146.501 429.142 147 428.206 147.993C427.271 148.99 426.805 150.453 426.805 152.382V161.278H424.718V144.977H426.805V147.756C427.324 146.759 428.068 145.999 429.044 145.471C430.02 144.944 431.123 144.679 432.357 144.679C434.305 144.679 435.898 145.279 437.132 146.485V146.489Z" fill="white"/>
<path d="M446.328 146.742V156.864C446.328 157.861 446.515 158.548 446.895 158.924C447.271 159.304 447.941 159.492 448.897 159.492H450.809V161.282H448.57C447.096 161.282 446.005 160.938 445.286 160.252C444.571 159.565 444.212 158.438 444.212 156.864V146.742H441.944V144.981H444.212V140.891H446.332V144.981H450.809V146.742H446.332H446.328Z" fill="white"/>
<path d="M473.995 150.743C472.822 151.839 471.058 152.386 468.713 152.386H464.505V161.282H462.418V140.413H468.717C471.046 140.413 472.802 140.961 473.987 142.056C475.171 143.151 475.764 144.602 475.764 146.416C475.764 148.23 475.175 149.652 474.003 150.743H473.995ZM473.607 146.416C473.607 145.023 473.219 143.968 472.443 143.249C471.666 142.534 470.425 142.174 468.713 142.174H464.505V150.592H468.713C471.977 150.592 473.607 149.199 473.607 146.412V146.416Z" fill="white"/>
<path d="M481.336 139.19V161.286H479.248V139.19H481.336Z" fill="white"/>
<path d="M489.081 160.493C487.856 159.807 486.892 158.83 486.185 157.567C485.478 156.305 485.127 154.825 485.127 153.133C485.127 151.442 485.486 149.962 486.201 148.7C486.916 147.437 487.893 146.46 489.126 145.774C490.36 145.087 491.741 144.744 493.277 144.744C494.813 144.744 496.197 145.087 497.439 145.774C498.681 146.46 499.657 147.437 500.364 148.7C501.071 149.962 501.422 151.442 501.422 153.133C501.422 154.825 501.063 156.28 500.348 157.551C499.633 158.826 498.648 159.807 497.394 160.493C496.14 161.18 494.747 161.523 493.215 161.523C491.683 161.523 490.307 161.18 489.081 160.493ZM496.201 158.969C497.116 158.483 497.86 157.743 498.424 156.758C498.991 155.773 499.273 154.564 499.273 153.129C499.273 151.695 498.996 150.486 498.436 149.501C497.88 148.516 497.141 147.78 496.226 147.29C495.311 146.804 494.314 146.558 493.24 146.558C492.165 146.558 491.169 146.804 490.254 147.29C489.339 147.78 488.607 148.516 488.06 149.501C487.513 150.486 487.239 151.695 487.239 153.129C487.239 154.564 487.513 155.773 488.06 156.758C488.607 157.743 489.335 158.478 490.237 158.969C491.144 159.459 492.133 159.7 493.207 159.7C494.281 159.7 495.278 159.455 496.193 158.969H496.201Z" fill="white"/>
<path d="M507.957 146.742V156.864C507.957 157.861 508.145 158.548 508.525 158.924C508.901 159.304 509.571 159.492 510.527 159.492H512.439V161.282H510.2C508.725 161.282 507.635 160.938 506.916 160.252C506.201 159.565 505.841 158.438 505.841 156.864V146.742H503.574V144.981H505.841V140.891H507.962V144.981H512.439V146.742H507.962H507.957Z" fill="white"/>
<path d="M516.895 160.224C515.711 159.357 515.049 158.176 514.91 156.685H517.059C517.157 157.6 517.59 158.344 518.358 158.908C519.122 159.476 520.155 159.758 521.446 159.758C522.582 159.758 523.472 159.488 524.118 158.953C524.763 158.413 525.086 157.747 525.086 156.95C525.086 156.395 524.906 155.937 524.547 155.577C524.187 155.218 523.738 154.936 523.19 154.727C522.643 154.519 521.904 154.294 520.968 154.057C519.755 153.738 518.77 153.42 518.015 153.101C517.259 152.782 516.618 152.308 516.091 151.683C515.564 151.058 515.298 150.216 515.298 149.162C515.298 148.365 515.535 147.629 516.013 146.951C516.491 146.273 517.165 145.737 518.043 145.337C518.918 144.94 519.914 144.74 521.029 144.74C522.782 144.74 524.191 145.182 525.27 146.068C526.344 146.955 526.92 148.173 527.002 149.726H524.914C524.853 148.769 524.481 147.997 523.795 147.413C523.109 146.824 522.169 146.534 520.976 146.534C519.922 146.534 519.065 146.783 518.411 147.282C517.753 147.781 517.427 148.398 517.427 149.133C517.427 149.771 517.623 150.294 518.007 150.702C518.395 151.111 518.877 151.43 519.453 151.658C520.029 151.887 520.805 152.141 521.781 152.419C522.954 152.737 523.889 153.048 524.588 153.346C525.282 153.644 525.883 154.082 526.377 154.658C526.875 155.234 527.132 156.002 527.153 156.959C527.153 157.833 526.916 158.618 526.438 159.304C525.96 159.991 525.294 160.534 524.436 160.93C523.583 161.327 522.594 161.527 521.483 161.527C519.612 161.527 518.084 161.094 516.9 160.228L516.895 160.224Z" fill="white"/>
<path d="M192.093 121.594C188.392 120.013 185.467 117.737 183.314 114.762C181.161 111.787 180.054 108.277 179.993 104.227H194.225C194.413 106.949 195.377 109.102 197.118 110.684C198.858 112.265 201.243 113.058 204.283 113.058C207.322 113.058 209.818 112.314 211.591 110.827C213.359 109.339 214.246 107.394 214.246 104.987C214.246 103.026 213.645 101.412 212.444 100.145C211.243 98.8782 209.74 97.8811 207.939 97.1537C206.137 96.4264 203.654 95.6214 200.492 94.7346C196.19 93.4678 192.693 92.2174 190.006 90.9833C187.318 89.7492 185.005 87.8817 183.077 85.3809C181.145 82.88 180.181 79.5414 180.181 75.3651C180.181 71.4422 181.161 68.026 183.122 65.1124C185.083 62.2029 187.832 59.9717 191.378 58.4189C194.92 56.8702 198.968 56.0938 203.523 56.0938C210.353 56.0938 215.904 57.7569 220.177 61.0791C224.446 64.4014 226.803 69.0394 227.249 74.9851H212.636C212.51 72.709 211.546 70.8252 209.74 69.3377C207.939 67.8503 205.549 67.1066 202.575 67.1066C199.981 67.1066 197.91 67.7726 196.362 69.1007C194.809 70.4288 194.037 72.3617 194.037 74.8911C194.037 76.6646 194.622 78.1357 195.794 79.3044C196.962 80.4772 198.417 81.4252 200.157 82.1526C201.897 82.88 204.348 83.7177 207.51 84.6698C211.811 85.9366 215.32 87.2034 218.041 88.4661C220.762 89.7329 223.102 91.633 225.063 94.1625C227.024 96.6961 228.004 100.018 228.004 104.129C228.004 107.672 227.085 110.962 225.251 114.002C223.417 117.038 220.729 119.461 217.187 121.263C213.645 123.066 209.438 123.969 204.569 123.969C199.948 123.969 195.79 123.18 192.089 121.594H192.093Z" fill="white"/>
<path d="M319.296 57.0508V123.307H306.011V80.2124L288.266 123.307H278.209L260.369 80.2124V123.307H247.085V57.0508H262.171L283.237 106.316L304.304 57.0508H319.296Z" fill="white"/>
<path d="M380.592 110.68H354.211L349.844 123.303H335.894L359.709 56.9521H375.175L398.991 123.303H384.946L380.583 110.68H380.592ZM376.989 100.047L367.405 72.3292L357.822 100.047H376.989Z" fill="white"/>
<path d="M449.673 123.307L435.06 97.4897H428.798V123.307H415.514V57.0508H440.375C445.498 57.0508 449.864 57.9539 453.472 59.756C457.079 61.5581 459.783 63.9976 461.584 67.0665C463.386 70.1354 464.289 73.568 464.289 77.3642C464.289 81.7326 463.022 85.6718 460.494 89.182C457.961 92.6922 454.199 95.1155 449.203 96.4435L465.048 123.307H449.677H449.673ZM428.794 87.5189H439.897C443.504 87.5189 446.192 86.6485 447.961 84.9077C449.73 83.1669 450.616 80.7477 450.616 77.6462C450.616 74.5446 449.73 72.2521 447.961 70.5726C446.188 68.8972 443.5 68.0554 439.897 68.0554H428.794V87.5148V87.5189Z" fill="white"/>
<path d="M529 57.0508V67.7775H511.349V123.307H498.064V67.7775H480.413V57.0508H528.996H529Z" fill="white"/>
<path d="M182.518 29.5859C183.208 28.3641 184.148 27.4079 185.337 26.7214C186.525 26.0348 187.849 25.6875 189.303 25.6875C191.011 25.6875 192.502 26.1002 193.776 26.9216C195.051 27.747 195.978 28.9157 196.562 30.4277H194.111C193.678 29.4838 193.053 28.7564 192.236 28.2497C191.419 27.7389 190.443 27.4855 189.303 27.4855C188.163 27.4855 187.228 27.7389 186.358 28.2497C185.488 28.7605 184.81 29.4838 184.315 30.4195C183.821 31.3553 183.576 32.4546 183.576 33.7132C183.576 34.9718 183.821 36.0465 184.315 36.9823C184.81 37.9181 185.492 38.6413 186.358 39.1521C187.228 39.6629 188.208 39.9163 189.303 39.9163C190.398 39.9163 191.419 39.667 192.236 39.1644C193.053 38.6618 193.678 37.9385 194.111 36.9945H196.562C195.978 38.4942 195.051 39.6507 193.776 40.468C192.502 41.2852 191.011 41.6939 189.303 41.6939C187.849 41.6939 186.529 41.3547 185.337 40.6723C184.144 39.9898 183.204 39.0418 182.518 37.8282C181.828 36.6145 181.484 35.2415 181.484 33.7172C181.484 32.193 181.828 30.8159 182.518 29.5941V29.5859Z" fill="white"/>
<path d="M201.831 40.9664C200.896 40.4434 200.161 39.6956 199.63 38.7312C199.099 37.7627 198.833 36.643 198.833 35.3722C198.833 34.1013 199.107 33.0021 199.654 32.0336C200.201 31.0651 200.945 30.3255 201.889 29.8106C202.832 29.2916 203.89 29.0342 205.054 29.0342C206.219 29.0342 207.277 29.2916 208.22 29.8106C209.164 30.3255 209.907 31.0651 210.455 32.0254C211.002 32.9857 211.276 34.1013 211.276 35.3722C211.276 36.643 210.994 37.7668 210.434 38.7312C209.871 39.6956 209.111 40.4434 208.155 40.9664C207.195 41.4895 206.133 41.7551 204.965 41.7551C203.796 41.7551 202.767 41.4936 201.831 40.9664ZM207.032 39.4381C207.677 39.0949 208.196 38.5759 208.592 37.8894C208.988 37.1988 209.189 36.3611 209.189 35.3722C209.189 34.3833 208.992 33.5455 208.604 32.8549C208.216 32.1644 207.706 31.6536 207.077 31.3144C206.447 30.9793 205.765 30.8077 205.034 30.8077C204.303 30.8077 203.6 30.9752 202.979 31.3144C202.358 31.6536 201.86 32.1644 201.484 32.8549C201.108 33.5455 200.92 34.3833 200.92 35.3722C200.92 36.3611 201.104 37.2233 201.472 37.9098C201.84 38.6004 202.33 39.1112 202.943 39.4504C203.555 39.7895 204.229 39.9571 204.965 39.9571C205.7 39.9571 206.386 39.7855 207.032 39.4381Z" fill="white"/>
<path d="M216.019 24.9189V41.5505H213.973V24.9189H216.019Z" fill="white"/>
<path d="M221.546 24.9189V41.5505H219.499V24.9189H221.546Z" fill="white"/>
<path d="M236.195 36.1567H226.354C226.428 37.3704 226.844 38.3184 227.6 39.0009C228.356 39.6833 229.275 40.0225 230.353 40.0225C231.236 40.0225 231.975 39.8181 232.567 39.4054C233.16 38.9927 233.576 38.441 233.813 37.7545H236.015C235.684 38.9396 235.026 39.8999 234.038 40.6436C233.049 41.3873 231.82 41.7551 230.353 41.7551C229.185 41.7551 228.139 41.4936 227.22 40.9664C226.297 40.4434 225.578 39.6956 225.051 38.7312C224.528 37.7627 224.267 36.643 224.267 35.3722C224.267 34.1013 224.52 32.9816 225.03 32.0254C225.541 31.0651 226.256 30.3296 227.175 29.8106C228.098 29.2916 229.156 29.0342 230.353 29.0342C231.55 29.0342 232.555 29.2875 233.454 29.7983C234.352 30.3091 235.047 31.0079 235.533 31.8987C236.019 32.7896 236.264 33.7989 236.264 34.9227C236.264 35.3109 236.244 35.7236 236.195 36.1567ZM233.634 32.4831C233.29 31.9192 232.821 31.4942 232.228 31.2C231.636 30.9098 230.982 30.7627 230.263 30.7627C229.23 30.7627 228.352 31.0937 227.624 31.7516C226.897 32.4095 226.481 33.3249 226.379 34.4936H234.152C234.152 33.7131 233.981 33.0429 233.634 32.4831Z" fill="white"/>
<path d="M238.956 32.0336C239.467 31.0815 240.174 30.3459 241.08 29.8188C241.987 29.2957 243.025 29.0342 244.193 29.0342C245.705 29.0342 246.955 29.402 247.935 30.1334C248.916 30.869 249.565 31.8865 249.88 33.19H247.678C247.469 32.4422 247.061 31.8497 246.452 31.4125C245.844 30.9793 245.092 30.7627 244.193 30.7627C243.025 30.7627 242.081 31.1632 241.362 31.9641C240.643 32.765 240.284 33.9011 240.284 35.3681C240.284 36.8351 240.643 37.9997 241.362 38.8088C242.081 39.6179 243.025 40.0225 244.193 40.0225C245.092 40.0225 245.84 39.8141 246.44 39.3932C247.041 38.9723 247.453 38.3757 247.678 37.5952H249.88C249.549 38.8538 248.891 39.8631 247.902 40.6191C246.914 41.3751 245.68 41.7551 244.193 41.7551C243.025 41.7551 241.987 41.4936 241.08 40.9664C240.174 40.4434 239.467 39.6996 238.956 38.7434C238.446 37.7831 238.192 36.6594 238.192 35.3722C238.192 34.0849 238.446 32.9857 238.956 32.0336Z" fill="white"/>
<path d="M255.088 30.9219V38.1834C255.088 38.7841 255.214 39.205 255.472 39.4542C255.725 39.6994 256.17 39.8261 256.799 39.8261H258.307V41.5547H256.464C255.325 41.5547 254.471 41.2931 253.903 40.7701C253.335 40.247 253.049 39.3848 253.049 38.1834V30.9219H251.456V29.2383H253.049V26.1367H255.092V29.2383H258.307V30.9219H255.092H255.088Z" fill="white"/>
<path d="M260.84 26.8316C260.57 26.5619 260.436 26.2309 260.436 25.8427C260.436 25.4545 260.57 25.1235 260.84 24.8538C261.11 24.5841 261.44 24.4492 261.829 24.4492C262.217 24.4492 262.523 24.5841 262.784 24.8538C263.046 25.1235 263.177 25.4545 263.177 25.8427C263.177 26.2309 263.046 26.5619 262.784 26.8316C262.523 27.1013 262.204 27.2361 261.829 27.2361C261.453 27.2361 261.11 27.1013 260.84 26.8316ZM262.817 29.2344V41.5507H260.771V29.2344H262.817Z" fill="white"/>
<path d="M268.535 40.9664C267.6 40.4434 266.865 39.6956 266.334 38.7312C265.803 37.7627 265.537 36.643 265.537 35.3722C265.537 34.1013 265.811 33.0021 266.358 32.0336C266.906 31.0651 267.649 30.3255 268.593 29.8106C269.536 29.2916 270.594 29.0342 271.759 29.0342C272.923 29.0342 273.981 29.2916 274.924 29.8106C275.868 30.3255 276.612 31.0651 277.159 32.0254C277.706 32.9857 277.98 34.1013 277.98 35.3722C277.98 36.643 277.698 37.7668 277.139 38.7312C276.575 39.6956 275.815 40.4434 274.859 40.9664C273.899 41.4895 272.837 41.7551 271.669 41.7551C270.5 41.7551 269.471 41.4936 268.535 40.9664ZM273.736 39.4381C274.381 39.0949 274.9 38.5759 275.296 37.8894C275.692 37.1988 275.893 36.3611 275.893 35.3722C275.893 34.3833 275.697 33.5455 275.308 32.8549C274.92 32.1644 274.41 31.6536 273.781 31.3144C273.152 30.9793 272.469 30.8077 271.738 30.8077C271.007 30.8077 270.304 30.9752 269.683 31.3144C269.062 31.6536 268.564 32.1644 268.188 32.8549C267.812 33.5455 267.625 34.3833 267.625 35.3722C267.625 36.3611 267.808 37.2233 268.176 37.9098C268.544 38.6004 269.034 39.1112 269.647 39.4504C270.259 39.7895 270.933 39.9571 271.669 39.9571C272.404 39.9571 273.09 39.7855 273.736 39.4381Z" fill="white"/>
<path d="M290.317 30.37C291.245 31.2772 291.71 32.5848 291.71 34.2929V41.5544H289.688V34.5871C289.688 33.3571 289.382 32.4173 288.769 31.7675C288.156 31.1178 287.315 30.7909 286.253 30.7909C285.191 30.7909 284.316 31.1301 283.679 31.8043C283.042 32.4786 282.723 33.4593 282.723 34.7506V41.5626H280.677V29.2462H282.723V30.9993C283.128 30.37 283.679 29.8837 284.374 29.5405C285.068 29.1972 285.836 29.0215 286.678 29.0215C288.177 29.0215 289.39 29.4751 290.317 30.3823V30.37Z" fill="white"/>
</g>
<defs>
<clipPath id="clip0_2631_4760">
<rect width="529" height="186" fill="white"/>
</clipPath>
</defs>
</svg>
