<svg width="352" height="456" viewBox="0 0 352 456" fill="none" xmlns="http://www.w3.org/2000/svg">
<g clip-path="url(#clip0_2613_1257)">
<path d="M175.82 100.46C179.69 126.64 164.12 150.96 152.51 164.99C141.8 177.92 133.84 192.98 130.7 209.27C119.16 269.18 160.57 296.09 182.99 306.06C181.31 303.98 179.62 301.77 177.95 299.47C174.56 294.81 171.37 289.59 168.49 283.97C162.73 272.75 158.74 259.43 158.48 245.78C158.31 238.97 159.14 232.15 160.69 225.64C162.26 219.12 164.69 212.95 167.59 207.28C170.53 201.55 174.22 196.69 177.1 191.96C180.05 187.19 182.36 182.41 184.33 177.93C188.18 168.92 190.13 160.93 191.09 155.31C192.03 149.67 192.03 146.4 192.03 146.4C192.03 146.4 192.26 149.66 191.71 155.38C191.14 161.08 189.73 169.25 186.45 178.69C184.75 183.38 182.73 188.42 180.03 193.52C177.34 198.69 174.05 203.66 171.67 209.12C169.27 214.63 167.36 220.53 166.29 226.65C165.24 232.76 164.88 239.06 165.43 245.25C166.48 257.66 170.86 269.46 176.79 279.38C179.76 284.35 182.99 288.94 186.4 293.04C187.86 294.8 189.33 296.48 190.79 298.09C186.91 283.03 186.33 254.11 211.62 207.84C251.74 134.44 175.83 100.46 175.83 100.46H175.82Z" fill="white"/>
<path d="M176 0C78.8 0 0 78.8 0 176.02C0 224.84 19.87 269.02 51.97 300.89C83.8 332.5 127.62 352.03 176 352.03C224.38 352.03 268.21 332.49 300.03 300.89C332.15 269.01 352.02 224.84 352.02 176.02C352.01 78.8 273.22 0 176 0ZM188.84 300.89C184.62 301.32 180.33 301.55 176 301.55C171.67 301.55 167.38 301.33 163.16 300.89C99.87 294.46 50.48 241 50.48 176.02C50.48 106.7 106.67 50.49 175.99 50.49C245.31 50.49 301.52 106.7 301.52 176.02C301.52 241.01 252.14 294.47 188.83 300.89H188.84Z" fill="white"/>
<path d="M300.03 361.71C268.22 393.32 224.4 412.85 176 412.85C127.6 412.85 83.8002 393.31 51.9702 361.71H300.02H300.03Z" fill="white"/>
<path d="M255.18 422.53C234.87 442.7 206.9 455.17 176.01 455.17C145.12 455.17 117.16 442.7 96.8398 422.53H255.18Z" fill="white"/>
</g>
<defs>
<clipPath id="clip0_2613_1257">
<rect width="352.01" height="455.17" fill="white"/>
</clipPath>
</defs>
</svg>
