<svg width="371" height="377" viewBox="0 0 371 377" fill="none" xmlns="http://www.w3.org/2000/svg">
<path d="M370.483 279.298L172.431 141.193L171.398 140.469C177.751 136.026 184.054 131.531 190.097 126.881C199.706 119.596 206.834 120.681 215.978 127.191C244.234 147.341 273.007 166.819 301.625 186.401C318.775 198.181 336.08 209.806 354.47 222.258C361.289 226.856 370.483 222 370.483 213.785V125.073C370.483 121.611 368.727 118.356 365.834 116.496L257.923 46.2292C232.095 28.4558 222.331 21.8941 216.494 17.8641C210.657 13.8341 208.694 12.4391 198.363 5.05073C188.961 -1.61429 181.522 -1.71762 171.966 4.9474C139.835 27.2675 107.55 49.2775 75.3158 71.3909C61.73 80.6392 48.2476 89.8359 34.7651 99.1876C28.2047 103.631 21.6442 108.126 15.0838 112.621C-3.40936 125.331 -3.51267 146.308 14.8255 159.224C55.2729 187.538 95.8752 215.645 136.323 243.906C151.768 254.653 167.11 265.555 182.865 276.715C190.149 281.881 187.825 293.3 179.043 295.108L154.144 300.326C151.355 300.895 148.462 300.326 146.137 298.621C103.211 268.035 59.4055 238.636 15.9103 208.825C15.9103 208.825 15.807 208.773 15.7554 208.721C9.09162 204.123 0 209.083 0 217.195V331.43C0 356.592 20.4045 377 45.5614 377H354.366C362.425 377 369.192 371.162 370.587 363.36C370.638 362.843 370.69 362.378 370.793 361.81C370.897 361.862 371 361.913 371 361.913V279.556L370.638 279.298H370.483ZM185.397 252.793C163.288 252.793 145.363 234.865 145.363 212.751C145.363 190.638 163.288 172.709 185.397 172.709C207.506 172.709 225.431 190.638 225.431 212.751C225.431 234.865 207.506 252.793 185.397 252.793Z" fill="white"/>
</svg>
