<svg width="437" height="400" viewBox="0 0 437 400" fill="none" xmlns="http://www.w3.org/2000/svg">
<g clip-path="url(#clip0_2613_1248)">
<path d="M291.179 0H146.429L73.7681 198.536C109.062 203.677 142.642 214.531 174.257 233.738C203.3 251.375 235.486 254.266 268.816 247.697C224.591 252.588 186.331 237.629 150.716 212.567H211.23C211.266 212.21 211.302 211.817 211.302 211.496C200.049 209.711 188.761 207.926 176.972 206.069C182.116 186.398 198.334 179.686 214.303 172.831C213.302 170.903 213.017 169.797 212.338 169.225C204.407 162.549 205.8 152.089 215.874 149.447C218.696 148.697 223.698 153.481 226.698 156.623C229.485 159.514 229.699 163.335 225.984 166.69C219.84 172.153 219.947 173.795 227.699 176.294C244.31 181.792 254.527 192.895 259.849 209.318C260.635 211.782 263.457 214.138 265.958 215.387C275.425 220.136 285.284 218.422 295.108 216.316C309.683 213.21 324.33 212.139 339.047 215.494C352.301 218.529 363.411 224.991 368.983 237.986C374.485 250.803 375.842 264.156 365.875 275.402C355.98 286.541 342.62 288.254 328.616 284.863C323.972 283.756 319.721 280.971 315.042 279.971C309.254 278.686 303.289 278.472 297.323 277.829C298.109 272.01 299.323 270.689 309.147 267.262C308.361 260.228 310.933 254.838 318.221 251.946C317.256 267.619 320.543 273.509 331.581 276.758C342.906 280.114 354.051 275.937 357.623 267.012C362.125 255.73 357.195 241.985 346.799 236.737C332.403 229.418 315.256 233.274 305.325 247.055C299.573 255.087 294.894 263.906 290.321 272.724C280.783 291.146 266.815 304.605 247.096 311.46C241.595 313.388 240.523 316.53 241.881 321.278C243.917 328.347 248.025 333.167 255.634 334.988C260.957 336.273 266.208 337.879 271.424 339.557H284.927L304.718 400H437L291.179 0ZM209.158 317.422L209.266 316.78C204.121 315.423 198.942 314.316 193.905 312.638C177.043 307.033 163.576 296.216 151.323 283.827C141.463 273.902 132.104 263.442 122.244 253.517C105.454 236.558 87.1285 224.134 67.0879 216.78L0 400H131.747L151.537 339.557H162.075C167.541 336.987 177.079 334.987 196.941 331.453C193.512 331.167 190.047 330.953 187.046 330.739C189.261 326.134 191.333 321.778 193.94 316.316C198.156 316.637 203.657 317.03 209.158 317.422Z" fill="white"/>
</g>
<defs>
<clipPath id="clip0_2613_1248">
<rect width="437" height="400" fill="white"/>
</clipPath>
</defs>
</svg>
