<svg width="439" height="438" viewBox="0 0 439 438" fill="none" xmlns="http://www.w3.org/2000/svg">
<g clip-path="url(#clip0_2600_1300)">
<path fill-rule="evenodd" clip-rule="evenodd" d="M351.745 175.716H273.048C267.234 175.716 262.523 171.01 262.523 165.201V86.5756H175.877V165.201C175.877 171.01 171.166 175.716 165.352 175.716H86.6547V262.284H165.352C171.166 262.284 175.877 266.99 175.877 272.799V351.424H262.523V272.799C262.523 266.99 267.234 262.284 273.048 262.284H351.745V340.214C351.745 350.098 347.611 359.527 340.349 366.231L262.523 438L175.877 351.432H97.8755C87.9823 351.432 78.5451 347.301 71.8351 340.046L0 262.284L86.6467 175.716V97.7861C86.6467 87.902 90.7815 78.4734 98.0434 71.7695L175.877 0L262.523 86.5676H340.525C350.418 86.5676 359.855 90.6987 366.565 97.9539L438.4 175.708L419.526 194.565L351.753 262.276V175.708L351.745 175.716Z" fill="white"/>
<path fill-rule="evenodd" clip-rule="evenodd" d="M86.6467 175.716V262.284H0L86.6467 175.716ZM175.877 351.424H262.523V437.992L175.877 351.424ZM351.745 262.284V175.716H438.392L351.745 262.284ZM262.523 86.5676H175.877V0L262.523 86.5676Z" fill="#D9D9D9"/>
</g>
<defs>
<clipPath id="clip0_2600_1300">
<rect width="439" height="438" fill="white"/>
</clipPath>
</defs>
</svg>
