<svg width="305" height="382" viewBox="0 0 305 382" fill="none" xmlns="http://www.w3.org/2000/svg">
<path d="M256.594 284.382C260.134 281.566 287.846 259.186 297.523 232.734C301.679 221.357 304.011 205.117 304.494 200.1C305 194.708 305 189.669 305 189.669C305 187.556 304.956 185.444 304.802 183.353C303.945 168.015 299.898 153.469 293.256 140.31C290.111 134.038 286.372 128.097 282.15 122.507L282.106 122.463C278.103 117.182 273.594 112.23 268.712 107.675C264.049 103.296 258.991 99.2688 253.625 95.6819H253.603C248.104 91.9409 242.276 88.662 236.14 85.8232C233.633 88.706 228.992 94.8457 227.563 103.736C225.781 114.717 229.916 123.167 231.565 126.402C234.337 131.838 237.833 135.667 240.341 138.021C245.883 144.051 254.922 155.56 259.299 172.196C261.476 180.515 261.784 187.336 261.784 191.187C261.806 214.536 249.644 232.206 247.796 234.825C242.958 241.669 238.163 246.004 236.316 247.698C219.645 262.861 191.362 289.598 154.084 324.983C147.662 320.186 143.021 313.342 141.284 305.508C140.778 303.241 140.492 300.887 140.492 298.488V298.422C140.514 284.448 167.522 258.459 167.522 258.459C180.585 247.522 191.164 238.06 198.95 230.908C209.33 221.357 212.673 217.837 215.796 212.203C218.282 207.692 224.572 195.831 221.251 181.087C219.117 171.624 213.949 165.11 211.002 161.898C181.069 190.109 151.137 218.321 121.204 246.532C116.608 251.351 111.241 258.041 106.865 266.778C104.929 270.629 103.5 274.304 102.4 277.648C102.356 277.714 102.356 277.758 102.356 277.825C100.179 284.602 99.0352 291.754 99.0352 299.17C99.0352 300.953 99.1011 302.757 99.2551 304.518C99.629 309.799 100.619 314.948 102.136 319.856C103.082 322.937 108.184 339.133 123.403 353.679C123.535 353.811 143.131 372.56 152.83 381.824L256.638 284.272L256.594 284.382Z" fill="white"/>
<path d="M48.4288 97.464C44.8879 100.281 17.1766 122.661 7.49964 149.112C3.34295 160.489 1.01168 176.729 0.527834 181.747C0 187.116 0 192.155 0 192.155C0 194.268 0.0439862 196.38 0.197938 198.471C1.05567 213.809 5.10239 228.355 11.7443 241.515C14.8893 247.786 18.6281 253.728 22.8508 259.317L22.8948 259.361C26.8975 264.643 31.4061 269.594 36.2886 274.149C40.9511 278.528 46.0095 282.556 51.3758 286.142H51.3978C56.8961 289.883 62.7243 293.162 68.8603 296.001C71.3675 293.118 76.0081 286.979 77.4376 278.088C79.2191 267.107 75.0844 258.657 73.4349 255.422C70.6638 249.987 67.1669 246.158 64.6597 243.803C59.1174 237.774 50.0782 226.264 45.7016 209.628C43.5243 201.31 43.2164 194.488 43.2164 190.637C43.1944 167.289 55.3566 149.618 57.204 146.999C62.0425 140.155 66.837 135.82 68.6844 134.126C85.3551 118.964 113.638 92.2266 150.917 56.8412C157.339 61.6385 161.979 68.4823 163.716 76.3164C164.222 78.583 164.508 80.9376 164.508 83.3363V83.4023C164.486 97.376 137.479 123.365 137.479 123.365C124.415 134.302 113.836 143.764 106.051 150.916C95.6699 160.467 92.327 163.988 89.2039 169.621C86.7187 174.133 80.4287 185.994 83.7496 200.738C85.883 210.2 91.0514 216.714 93.9984 219.927C123.931 191.715 153.864 163.504 183.796 135.292C188.393 130.473 193.759 123.783 198.136 115.047C200.071 111.196 201.501 107.521 202.6 104.176C202.644 104.11 202.644 104.066 202.644 104C204.822 97.222 205.965 90.0701 205.965 82.6541C205.965 80.8716 205.899 79.0671 205.745 77.3066C205.371 72.0252 204.382 66.8759 202.864 61.9686C201.918 58.8877 196.816 42.6914 181.597 28.1455C181.465 28.0135 161.869 9.26447 152.17 0L48.4288 97.464Z" fill="white"/>
</svg>
